<svg width="461" height="136" viewBox="0 0 461 136" fill="none" xmlns="http://www.w3.org/2000/svg">
<g clip-path="url(#clip0_1081_382)">
<path d="M126.75 128.234H0.536621V0.782227H126.75V128.234Z" fill="white"/>
<path d="M51.2891 86.8062L64.743 75.84C62.4867 72.9804 60.345 70.0959 58.3271 67.1176C42.7655 44.3817 33.5455 21.2522 40.2028 0.782227H0.534424V22.8742L51.2891 86.8062Z" fill="#F15A22"/>
<path d="M72.5043 53.7698C73.3462 46.5537 75.5127 32.9436 88.6199 22.8336C99.9692 14.1081 114.172 12.4299 126.75 17.8239V0.782227H56.723C52.1022 21.5178 64.2407 44.3036 72.5043 53.7698Z" fill="#F15A22"/>
<path d="M89.4913 32.9741L89.4417 33.0092C76.2632 43.8224 79.5037 60.7923 91.7722 76.0089C101.221 87.7533 113.864 95.9976 126.749 89.7472V39.6441C115.173 27.6715 101.28 23.2892 89.4913 32.9741Z" fill="#F15A22"/>
<path d="M0.5354 49.0098V128.221H0.55397L38.7399 97.0316L0.5354 49.0098Z" fill="#F15A22"/>
<path d="M69.985 82.1234C66.2339 85.2361 61.6007 89.0457 56.46 93.2866L61.4212 99.5245C68.5923 108.581 79.0874 124.273 92.0832 120.026L92.5661 120.622L83.3307 128.22H126.75V98.0865C104.411 110.343 85.2031 99.187 69.985 82.1234Z" fill="#F15A22"/>
<path d="M49.03 109.979L43.8892 103.522C33.3508 112.064 22.2893 121.017 13.3108 128.221H61.8928C58.739 121.461 53.0071 114.986 49.03 109.979Z" fill="#F15A22"/>
<path d="M231.873 54.0207C243.504 51.9674 251.074 41.8263 251.074 28.8848C251.074 11.6401 236.292 0.786133 210.994 0.786133H160.926V1.37394C171.155 7.03683 170.92 16.1779 170.92 24.9098V103.915C170.92 112.796 171.155 122.031 160.926 127.604V128.179H185.036C208.589 128.179 226.654 128.585 240.136 122.185C254.46 115.388 263.138 103.19 263.138 88.3172C263.138 69.3348 249.152 57.6897 231.873 54.0207ZM190.555 12.5375L206.401 12.8001C218.153 12.8001 230.167 18.6097 230.167 31.973C230.167 47.8522 219.533 52.0963 204.383 52.0963L190.555 52.1138V52.0963V12.5375ZM205.828 115.088L190.555 115.105V64.8771V64.1646L206.977 64.0856C226.088 64.0856 241.863 71.2516 241.863 90.0403C241.863 108.438 225.302 115.088 205.828 115.088Z" fill="#006885"/>
<path d="M301.523 103.919C301.523 114.789 301.328 122.505 311.495 128.539V129.087H277.555V128.539C287.71 122.505 287.534 114.789 287.534 103.919V26.5052C287.534 15.7169 287.71 7.16326 277.568 1.38167V0.785156H305.741V0.975773C306.49 3.28526 307.738 4.58224 308.607 5.83235C309.511 7.0387 311.288 9.68571 311.288 9.68571L375.917 97.6412V25.7523C375.917 14.9142 376.084 7.16366 365.951 1.38207V0.785558H399.687V1.38207C389.724 7.16366 389.724 14.9142 389.724 25.7523V135.434C383.562 132.965 366.381 118.521 354.147 101.901C332.185 72.1178 301.523 30.6965 301.523 30.6965V103.919Z" fill="#006885"/>
<path d="M431.155 23.8783C431.155 14.9746 431.004 7.0367 421.205 1.3832V0.783203H460.914V1.3832C451.075 6.86478 450.988 15.1497 450.988 23.8783V105.305C450.988 114.006 450.759 122.825 460.914 128.497V129.072H421.205V128.497C431.419 122.744 431.155 114.081 431.155 105.358V23.8783Z" fill="#006885"/>
</g>
<defs>
<clipPath id="clip0_1081_382">
<rect width="460.379" height="134.652" fill="white" transform="translate(0.534424 0.782227)"/>
</clipPath>
</defs>
</svg>
