<svg width="290" height="378" viewBox="0 0 290 378" fill="none" xmlns="http://www.w3.org/2000/svg">
<path d="M250.016 196C249.682 197 249.016 198.333 248.016 200C247.349 201.667 246.516 203.5 245.516 205.5C244.516 207.167 243.516 208.667 242.516 210C241.516 211 240.849 211.333 240.516 211C240.516 211 240.682 210.167 241.016 208.5C241.349 206.833 241.682 205 242.016 203C242.682 201 243.182 199.167 243.516 197.5C244.182 195.5 244.516 194.167 244.516 193.5C249.516 166.833 249.516 143.833 244.516 124.5C239.516 105.167 231.016 89.3333 219.016 77C207.349 64.6667 192.849 55.5 175.516 49.5C158.516 43.5 140.516 40.3333 121.516 40C107.849 40 94.349 41.1666 81.0156 43.5C68.0156 45.5 56.0156 48.1667 45.0156 51.5C34.349 54.8333 25.1823 58.5 17.5156 62.5C10.1823 66.5 5.51563 70.3333 3.51563 74C1.18229 78 0.515625 77.5 1.51562 72.5C4.18229 63.8333 11.1823 55.8333 22.5156 48.5C34.1823 41.1667 47.6823 35.1667 63.0156 30.5C78.349 25.8333 94.349 22.8333 111.016 21.5C128.016 19.8333 143.349 20.6667 157.016 24C166.016 26 175.016 28.8333 184.016 32.5C193.016 36.1667 201.516 40.6667 209.516 46C217.849 51 225.349 57.1667 232.016 64.5C239.016 71.5 244.849 79.6666 249.516 89C258.516 107 262.849 125.667 262.516 145C262.516 164 258.349 181 250.016 196ZM282.516 192.5C276.182 211.167 267.682 228 257.016 243C246.682 258 235.516 271.5 223.516 283.5C211.516 295.167 199.182 305.333 186.516 314C173.849 322.667 162.016 330 151.016 336C147.682 337.667 144.849 339 142.516 340C140.182 341 139.016 341.167 139.016 340.5C138.349 340.167 139.182 339.167 141.516 337.5C144.182 335.5 146.849 333.5 149.516 331.5C168.182 316.5 186.182 300.667 203.516 284C221.182 267.333 237.016 248.333 251.016 227C258.016 216 263.349 204 267.016 191C270.682 177.667 272.516 164 272.516 150C272.516 136 270.516 122.167 266.516 108.5C262.849 94.8333 257.016 82.1667 249.016 70.5C238.349 55.1666 225.349 43 210.016 34C195.016 25 178.849 18.8333 161.516 15.5C144.182 11.8333 126.349 10.6667 108.016 12C89.6823 13.3333 72.0156 16.5 55.0156 21.5C52.349 22.1666 50.6823 22.6666 50.0156 23C49.6823 23.3333 49.349 23.1667 49.0156 22.5C48.6823 21.8333 49.1823 21.1666 50.5156 20.5C51.849 19.8333 53.0156 19.1667 54.0156 18.5C61.349 14.5 70.849 10.8333 82.5156 7.49999C94.1823 4.16666 107.349 2.16665 122.016 1.49998C136.682 0.833318 152.349 2.16665 169.016 5.49998C185.682 8.49999 202.516 14.5 219.516 23.5C237.849 33.5 252.016 46.1666 262.016 61.5C272.349 76.8333 279.516 92.6667 283.516 109C287.516 125 289.182 140.667 288.516 156C287.849 171 285.849 183.167 282.516 192.5ZM65.0156 364C63.349 361.333 61.1823 357.167 58.5156 351.5C56.1823 345.5 54.349 338.5 53.0156 330.5C52.349 326.5 51.849 322 51.5156 317C51.5156 312 51.6823 307.333 52.0156 303C52.349 298.333 52.849 294.5 53.5156 291.5C54.1823 288.5 55.1823 287 56.5156 287C56.849 287 57.1823 288 57.5156 290C58.1823 291.667 58.6823 293.667 59.0156 296C59.6823 298.333 60.0156 300.667 60.0156 303C60.349 305 60.5156 306.5 60.5156 307.5C61.1823 316.167 62.1823 324.833 63.5156 333.5C65.1823 342.167 67.5156 350.5 70.5156 358.5C82.1823 344.167 95.5156 329.667 110.516 315C125.516 300.333 140.182 285.5 154.516 270.5C168.849 255.167 181.849 239.5 193.516 223.5C205.516 207.5 214.182 191 219.516 174C223.182 162.333 223.849 150.167 221.516 137.5C219.516 124.833 215.349 113.333 209.016 103C202.682 93 193.682 84.6667 182.016 78C170.349 71.3333 157.516 66.6666 143.516 64C137.849 63 132.182 62.1667 126.516 61.5C121.182 60.8333 115.516 60.5 109.516 60.5C110.516 65.5 111.016 71 111.016 77C111.349 82.6667 111.349 88.3333 111.016 94C110.682 99.6667 110.182 105.167 109.516 110.5C108.849 115.5 108.016 120 107.016 124C102.349 142 96.849 160.167 90.5156 178.5C84.1823 196.5 77.5156 213.833 70.5156 230.5C69.849 231.5 68.849 233.167 67.5156 235.5C66.5156 237.5 65.6823 238.5 65.0156 238.5C64.349 238.5 64.0156 237.167 64.0156 234.5C64.0156 231.833 64.1823 230 64.5156 229C64.849 225 65.5156 220.167 66.5156 214.5C67.5156 208.5 68.5156 202.5 69.5156 196.5C70.849 190.5 72.1823 184.667 73.5156 179C74.849 173 76.1823 168 77.5156 164C78.1823 162 79.349 157.167 81.0156 149.5C83.0156 141.833 85.0156 133 87.0156 123C89.0156 113 90.849 102.5 92.5156 91.5C94.5156 80.1667 95.849 69.8333 96.5156 60.5H90.5156C89.849 73.5 88.0156 86.8333 85.0156 100.5C82.0156 114.167 78.349 128 74.0156 142C70.0156 155.667 65.6823 169.5 61.0156 183.5C56.6823 197.5 52.849 211.5 49.5156 225.5C48.849 228.5 47.849 233.667 46.5156 241C45.5156 248.333 44.6823 256.667 44.0156 266C43.349 275 43.0156 284.667 43.0156 295C43.0156 305 43.6823 314.667 45.0156 324C46.6823 333 49.0156 341.167 52.0156 348.5C55.0156 355.833 59.349 361 65.0156 364ZM231.016 188.5C223.682 205.833 213.516 222.5 200.516 238.5C187.849 254.5 174.016 270 159.016 285C144.016 299.667 128.516 313.667 112.516 327C96.849 340.333 82.5156 353 69.5156 365C66.849 367.333 63.349 367.667 59.0156 366C55.0156 364 52.0156 361.667 50.0156 359C43.0156 349.667 37.849 339.167 34.5156 327.5C31.1823 315.833 29.1823 303.833 28.5156 291.5C27.849 278.833 28.1823 266.167 29.5156 253.5C31.1823 240.5 33.5156 228 36.5156 216C43.1823 188.333 50.6823 161.667 59.0156 136C67.6823 110 74.0156 85.3333 78.0156 62C60.0156 64 43.849 68.1667 29.5156 74.5C15.5156 80.5 6.18229 87.8333 1.51562 96.5C1.51562 97.1667 1.34896 97.5 1.01562 97.5C0.348958 97.5 0.348958 96.1667 1.01562 93.5C3.68229 84.1667 10.1823 76.1667 20.5156 69.5C30.849 62.5 43.1823 57.1667 57.5156 53.5C71.849 49.5 87.1823 47.1667 103.516 46.5C120.182 45.8333 136.349 46.8333 152.016 49.5C169.016 52.5 183.682 59 196.016 69C208.682 78.6667 218.516 90.1667 225.516 103.5C232.849 116.5 237.016 130.5 238.016 145.5C239.349 160.5 237.016 174.833 231.016 188.5ZM123.516 75C127.516 83.6667 129.016 95 128.016 109C127.349 123 125.516 137.667 122.516 153C119.516 168 116.016 182.5 112.016 196.5C108.349 210.5 105.516 221.833 103.516 230.5C99.5156 246.5 94.6823 262.5 89.0156 278.5C83.349 294.5 78.6823 308.5 75.0156 320.5C73.349 325.167 72.1823 327.5 71.5156 327.5C70.5156 327.5 70.0156 326.667 70.0156 325C70.0156 323 70.0156 321.167 70.0156 319.5C71.0156 294.833 74.5156 270.5 80.5156 246.5C86.849 222.5 93.6823 198.167 101.016 173.5C105.349 158.5 109.516 142.833 113.516 126.5C117.516 110.167 119.849 93 120.516 75C120.516 72.6667 120.849 71.3333 121.516 71C121.849 71 122.182 71.5 122.516 72.5C122.849 73.5 123.182 74.3333 123.516 75ZM183.016 282.5C183.349 282.833 182.682 284.167 181.016 286.5C179.349 288.833 177.182 291.5 174.516 294.5C172.182 297.167 169.682 300 167.016 303C164.682 305.667 163.016 307.5 162.016 308.5C155.016 315.5 147.849 322.667 140.516 330C133.516 337 126.182 343 118.516 348L73.5156 376.5C72.849 376.833 71.849 377.167 70.5156 377.5C69.5156 377.833 68.6823 377.833 68.0156 377.5C67.349 377.167 67.0156 376.667 67.0156 376C67.349 375.333 67.6823 374.667 68.0156 374C68.349 373.333 68.849 372.667 69.5156 372C75.1823 368 81.5156 363 88.5156 357C95.849 351 103.349 344.833 111.016 338.5C116.682 334.167 123.349 328.667 131.016 322C139.016 315.333 146.682 309 154.016 303C161.682 297 168.182 292 173.516 288C179.182 283.667 182.349 281.833 183.016 282.5Z" fill="#263C24"/>
</svg>
