<svg width="161" height="115" viewBox="0 0 161 115" fill="none" xmlns="http://www.w3.org/2000/svg">
<rect x="0.620605" y="0.956055" width="159.538" height="113.89" rx="5.76117" fill="#108EE9"/>
<path fill-rule="evenodd" clip-rule="evenodd" d="M35.0562 39.6787H34.5244C30.1052 39.7717 25.7525 41.5389 22.5431 44.579C18.7807 48.0602 16.6216 53.1333 16.5737 58.2462V58.7219C16.6641 63.7285 18.7621 68.6846 22.4155 72.1286C25.6514 75.2537 30.0866 77.0741 34.5882 77.1485H35.1094C41.1931 77.0794 47.0481 73.6752 50.2122 68.5012C52.9191 64.2121 53.7513 58.8175 52.5495 53.8986C51.5417 49.6547 48.9998 45.7881 45.4793 43.2051C42.488 40.9729 38.7867 39.7478 35.0562 39.6787ZM26.7948 54.9037C28.5125 55.4059 30.3446 55.1003 32.017 54.5609C32.9387 54.2572 33.8459 53.9101 34.7532 53.563L34.7533 53.563C36.2201 53.0017 37.687 52.4405 39.2148 52.0629C41.2596 51.5845 43.5569 51.9699 45.1949 53.3252C45.5189 53.6362 45.5182 54.0857 45.5175 54.5119C45.5173 54.6173 45.5172 54.7212 45.5219 54.8213C45.5036 56.1931 45.5101 57.5653 45.5166 58.9375V58.9377V58.9378V58.9379V58.938V58.938C45.5262 60.9601 45.5358 62.9819 45.4661 65.0019C45.2192 64.897 44.9737 64.7856 44.7279 64.6741C43.7158 64.2148 42.6982 63.753 41.5601 63.7317C39.1865 63.6013 36.9925 64.3886 34.7942 65.1774L34.7942 65.1774C33.0055 65.8193 31.214 66.4621 29.3209 66.6123C27.6032 66.7319 25.8084 66.3253 24.4151 65.2916C24.1296 64.8967 24.1439 64.4025 24.1578 63.9187C24.1635 63.722 24.1691 63.5269 24.1545 63.341C24.181 62.1132 24.1692 60.883 24.1575 59.6527C24.1386 57.6691 24.1197 55.6852 24.2608 53.7105C24.5743 53.85 24.8759 54.0161 25.1773 54.1821C25.6969 54.4681 26.216 54.754 26.7948 54.9037ZM62.8422 49.0109C61.9017 49.0169 60.9614 49.0228 60.0214 49.0116C60.02 52.166 60.02 55.321 60.02 58.4764C60.02 61.6318 60.02 64.7875 60.0187 67.9432C61.0662 67.9445 62.1129 67.9445 63.1597 67.9445C64.2069 67.9445 65.254 67.9445 66.3018 67.9458C67.8254 67.9485 69.365 67.6562 70.7263 66.9519C74.3479 65.1768 76.4458 60.9089 75.7518 56.952C75.1775 52.833 71.5772 49.3332 67.3947 49.0541C65.8778 48.9918 64.3599 49.0014 62.8422 49.0109ZM63.9786 62.3204C63.9864 59.2408 63.9943 56.1612 63.9669 53.0816C64.3732 53.0942 64.7818 53.087 65.1907 53.0799C66.0851 53.0644 66.9811 53.0488 67.857 53.2384C70.04 53.738 71.7231 55.771 71.8773 57.9926C72.1086 60.2036 70.8244 62.4863 68.7823 63.3898C67.6754 63.9126 66.4588 63.8872 65.2548 63.862C64.8247 63.8531 64.3962 63.8441 63.9749 63.8602C63.976 63.3469 63.9773 62.8337 63.9786 62.3204ZM82.7871 56.6688C82.9147 52.5631 86.6133 48.8745 90.772 49.0154C94.8481 48.9729 98.4271 52.5817 98.5893 56.6077C98.6316 58.9206 98.6251 61.2346 98.6186 63.5483V63.5484V63.5485V63.5486C98.6144 65.0122 98.6103 66.4758 98.6186 67.939L98.6159 67.939C97.2953 67.9416 95.9773 67.9443 94.6594 67.939C94.6527 67.2613 94.6534 66.5836 94.654 65.9063C94.6547 65.229 94.6554 64.552 94.6487 63.8757C93.0939 63.8836 91.5401 63.8822 89.9866 63.8808H89.9864H89.9863H89.9861C88.899 63.8798 87.812 63.8789 86.725 63.8811C86.7211 64.3862 86.723 64.8918 86.7249 65.3974V65.3975V65.3976V65.3976C86.7282 66.2511 86.7314 67.1049 86.7064 67.9576C85.8289 67.9363 84.9526 67.9387 84.0766 67.941C83.6387 67.9422 83.201 67.9434 82.7632 67.9416C82.768 66.5752 82.7644 65.2084 82.7608 63.8417V63.8404C82.7545 61.4491 82.7482 59.0579 82.7871 56.6688ZM87.7379 54.4427C86.6588 55.6081 86.6902 57.1805 86.7203 58.6874C86.728 59.0704 86.7356 59.4493 86.7248 59.8161C87.781 59.8171 88.8376 59.8165 89.8942 59.8159H89.8957C91.4802 59.8149 93.0648 59.8139 94.6485 59.8187C94.6387 59.4533 94.6471 59.0763 94.6557 58.6952C94.6888 57.2223 94.7233 55.6884 93.7072 54.5251C92.29 52.6649 89.2056 52.6224 87.7379 54.4427ZM105.545 56.709C105.662 53.0949 108.489 49.7412 112.076 49.1327C114.745 48.6198 117.606 49.6695 119.345 51.7476C120.691 53.2278 121.377 55.2315 121.377 57.2192C121.382 59.5993 121.38 61.9782 121.378 64.3575V64.3655C121.378 65.5566 121.377 66.7478 121.377 67.9393C120.928 67.942 120.48 67.9404 120.031 67.9388H120.031C119.165 67.9357 118.299 67.9326 117.433 67.9606C117.405 65.9363 117.409 63.9112 117.414 61.8862V61.8848C117.418 60.3268 117.421 58.7688 117.41 57.2113C117.431 55.7656 116.657 54.3253 115.391 53.6078C114.078 52.8212 112.299 52.9381 111.094 53.8842C110.052 54.6628 109.47 55.9596 109.488 57.2511C109.482 59.2869 109.483 61.3219 109.484 63.357C109.485 64.8842 109.485 66.4115 109.483 67.9393C109.001 67.9374 108.518 67.9383 108.036 67.9391C107.191 67.9407 106.347 67.9422 105.503 67.9287C105.531 66.126 105.526 64.3226 105.521 62.5192C105.515 60.5823 105.509 58.6453 105.545 56.709ZM129.572 52.6809C131.101 50.2998 133.924 48.7638 136.777 49.0349C140.003 49.2342 142.864 51.6896 143.757 54.759C144.087 55.7952 144.103 56.8777 144.118 57.9592V57.9593C144.127 58.5779 144.136 59.1963 144.204 59.8054V67.9186C143.191 67.9465 142.178 67.943 141.165 67.9395H141.165C140.827 67.9383 140.489 67.9372 140.152 67.9372C140.15 67.5007 140.151 67.064 140.151 66.6272V66.6271C140.153 65.7048 140.155 64.7822 140.133 63.8607C138.529 63.8849 136.924 63.8816 135.319 63.8783C134.287 63.8762 133.255 63.8741 132.223 63.8793C132.221 64.5556 132.221 65.2319 132.221 65.9086C132.221 66.5852 132.221 67.2622 132.22 67.9398H128.258C128.257 66.1952 128.257 64.4513 128.257 62.7077C128.257 60.9641 128.257 59.2208 128.255 57.4775C128.237 55.798 128.638 54.092 129.572 52.6809ZM133.214 54.467C132.156 55.628 132.188 57.1879 132.218 58.6832V58.6833C132.226 59.067 132.233 59.4464 132.222 59.8138C133.983 59.8155 135.744 59.8149 137.505 59.8144H137.508H137.509C138.389 59.8141 139.269 59.8138 140.149 59.8138C140.137 59.439 140.145 59.0521 140.154 58.6611V58.6609C140.185 57.1945 140.218 55.6708 139.199 54.5148C137.769 52.652 134.671 52.6281 133.214 54.467Z" fill="white"/>
</svg>
