<svg width="124" height="44" viewBox="0 0 124 44" fill="none" xmlns="http://www.w3.org/2000/svg">
<path d="M29.7982 22.7549C29.7584 22.8718 29.6788 23.0277 29.5593 23.2225C29.4797 23.4173 29.3802 23.6316 29.2608 23.8654C29.1413 24.0602 29.0219 24.2356 28.9025 24.3914C28.783 24.5083 28.7034 24.5473 28.6636 24.5083C28.6636 24.5083 28.6835 24.4109 28.7233 24.2161C28.7631 24.0213 28.8029 23.807 28.8427 23.5732C28.9224 23.3394 28.9821 23.1251 29.0219 22.9303C29.1015 22.6965 29.1413 22.5406 29.1413 22.4627C29.7385 19.3456 29.7385 16.6571 29.1413 14.3972C28.5442 12.1373 27.529 10.2865 26.0958 8.84481C24.7024 7.40314 22.9707 6.33164 20.9005 5.63029C18.8702 4.92894 16.7204 4.55878 14.4512 4.51981C12.819 4.51981 11.2067 4.65619 9.61425 4.92893C8.06164 5.16272 6.62846 5.47443 5.31471 5.86407C4.04077 6.25371 2.94598 6.68231 2.03034 7.14988C1.15451 7.61744 0.597158 8.06553 0.358295 8.49413C0.0796211 8.9617 0 8.90325 0.119432 8.3188C0.437916 7.30573 1.27394 6.3706 2.6275 5.51339C4.02086 4.65619 5.63319 3.95484 7.46448 3.40934C9.29576 2.86385 11.2067 2.51317 13.1972 2.35732C15.2275 2.1625 17.0588 2.25991 18.691 2.64955C19.7659 2.88333 20.8408 3.21452 21.9157 3.64313C22.9906 4.07173 24.0058 4.59774 24.9612 5.22117C25.9565 5.80562 26.8522 6.52646 27.6484 7.38366C28.4844 8.2019 29.1811 9.15652 29.7385 10.2475C30.8134 12.3516 31.3309 14.5335 31.2911 16.7934C31.2911 19.0144 30.7935 21.0015 29.7982 22.7549ZM33.6797 22.3458C32.9233 24.5278 31.9082 26.4955 30.6342 28.2488C29.4001 30.0022 28.0664 31.5803 26.6333 32.983C25.2001 34.3467 23.7271 35.5351 22.2143 36.5481C20.7015 37.5612 19.2882 38.4184 17.9745 39.1198C17.5764 39.3146 17.238 39.4704 16.9593 39.5873C16.6806 39.7042 16.5413 39.7237 16.5413 39.6458C16.4617 39.6068 16.5612 39.4899 16.8399 39.2951C17.1583 39.0613 17.4768 38.8275 17.7953 38.5938C20.0247 36.8404 22.1745 34.9896 24.2446 33.0414C26.3546 31.0932 28.2456 28.8723 29.9176 26.3786C30.7536 25.0928 31.3906 23.6901 31.8285 22.1705C32.2664 20.6119 32.4854 19.0144 32.4854 17.3779C32.4854 15.7414 32.2465 14.1244 31.7688 12.5269C31.3309 10.9294 30.6342 9.44875 29.6788 8.08501C28.4048 6.29267 26.8522 4.87049 25.0209 3.81846C23.2295 2.76644 21.2986 2.0456 19.2285 1.65597C17.1583 1.22736 15.0285 1.09099 12.8389 1.24685C10.6493 1.4027 8.53936 1.77286 6.50902 2.35732C6.19054 2.43524 5.99149 2.49369 5.91187 2.53266C5.87206 2.57162 5.83224 2.55214 5.79243 2.47421C5.75262 2.39628 5.81234 2.31835 5.97158 2.24042C6.13082 2.1625 6.27016 2.08457 6.38959 2.00664C7.26542 1.53908 8.40002 1.11047 9.79339 0.720833C11.1868 0.331195 12.7593 0.0974106 14.5109 0.0194815C16.2626 -0.0584453 18.1337 0.0974107 20.1242 0.487049C22.1148 0.837725 24.1252 1.53908 26.1555 2.5911C28.3451 3.76002 30.0371 5.24065 31.2314 7.03299C32.4655 8.82533 33.3214 10.6761 33.7992 12.5853C34.2769 14.4556 34.4759 16.2869 34.3963 18.0793C34.3167 19.8326 34.0778 21.2548 33.6797 22.3458ZM7.70334 42.3927C7.50429 42.081 7.24552 41.594 6.92703 40.9316C6.64836 40.2302 6.4294 39.412 6.27016 38.4769C6.19054 38.0093 6.13082 37.4833 6.09101 36.8988C6.09101 36.3144 6.11092 35.7689 6.15073 35.2623C6.19054 34.7168 6.25026 34.2688 6.32988 33.9181C6.4095 33.5674 6.52893 33.3921 6.68817 33.3921C6.72798 33.3921 6.76779 33.509 6.8076 33.7427C6.88722 33.9376 6.94694 34.1714 6.98675 34.4441C7.06637 34.7168 7.10618 34.9896 7.10618 35.2623C7.14599 35.4961 7.1659 35.6715 7.1659 35.7884C7.24552 36.8014 7.36495 37.8145 7.52419 38.8275C7.72325 39.8406 8.00192 40.8147 8.36021 41.7498C9.75358 40.0744 11.346 38.3795 13.1375 36.665C14.929 34.9506 16.6806 33.2167 18.3925 31.4634C20.1043 29.671 21.6569 27.8397 23.0503 25.9694C24.4835 24.0992 25.5186 22.1705 26.1555 20.1833C26.5934 18.8196 26.6731 17.3974 26.3944 15.9168C26.1555 14.4361 25.6579 13.0919 24.9015 11.884C24.1451 10.7151 23.0702 9.74098 21.6768 8.9617C20.2835 8.18242 18.7508 7.63693 17.0787 7.32521C16.4019 7.20832 15.7252 7.11091 15.0484 7.03299C14.4114 6.95506 13.7346 6.9161 13.018 6.9161C13.1375 7.50055 13.1972 8.14346 13.1972 8.84481C13.237 9.5072 13.237 10.1696 13.1972 10.832C13.1574 11.4944 13.0977 12.1373 13.018 12.7607C12.9384 13.3451 12.8389 13.8712 12.7195 14.3387C12.1621 16.4428 11.5052 18.5663 10.7488 20.7093C9.99245 22.8134 9.19624 24.8395 8.36021 26.7877C8.28059 26.9046 8.16116 27.0994 8.00192 27.3721C7.88249 27.6059 7.78296 27.7228 7.70334 27.7228C7.62372 27.7228 7.58391 27.567 7.58391 27.2553C7.58391 26.9435 7.60381 26.7292 7.64362 26.6124C7.68343 26.1448 7.76306 25.5798 7.88249 24.9174C8.00192 24.2161 8.12135 23.5147 8.24078 22.8134C8.40002 22.112 8.55927 21.4302 8.71851 20.7678C8.87775 20.0664 9.03699 19.482 9.19624 19.0144C9.27586 18.7806 9.41519 18.2156 9.61425 17.3195C9.85311 16.4233 10.092 15.3907 10.3308 14.2218C10.5697 13.0529 10.7887 11.8255 10.9877 10.5397C11.2266 9.21496 11.3858 8.00708 11.4654 6.9161H10.7488C10.6692 8.43569 10.4503 9.99424 10.092 11.5918C9.73368 13.1893 9.29576 14.8063 8.77822 16.4428C8.3005 18.0403 7.78296 19.6573 7.22561 21.2938C6.70808 22.9303 6.25026 24.5667 5.85215 26.2032C5.77253 26.5539 5.6531 27.1578 5.49386 28.0151C5.37442 28.8723 5.2749 29.8464 5.19528 30.9373C5.11565 31.9894 5.07584 33.1193 5.07584 34.3272C5.07584 35.4961 5.15547 36.6261 5.31471 37.7171C5.51376 38.7691 5.79243 39.7237 6.15073 40.5809C6.50902 41.4381 7.02656 42.0421 7.70334 42.3927ZM27.529 21.8782C26.6532 23.9044 25.4389 25.8526 23.8863 27.7228C22.3735 29.5931 20.7214 31.4049 18.9299 33.1583C17.1384 34.8727 15.2872 36.5092 13.3763 38.0677C11.5052 39.6263 9.79339 41.1069 8.24078 42.5096C7.9223 42.7824 7.50429 42.8213 6.98675 42.6265C6.50902 42.3927 6.15073 42.12 5.91187 41.8083C5.07584 40.7173 4.45878 39.4899 4.06068 38.1262C3.66257 36.7625 3.42371 35.3597 3.34409 33.9181C3.26446 32.4375 3.30428 30.9568 3.46352 29.4762C3.66257 27.9566 3.94124 26.4955 4.29954 25.0928C5.09575 21.8588 5.99149 18.7416 6.98675 15.7414C8.02182 12.7022 8.77822 9.81891 9.25595 7.09143C7.10618 7.32522 5.17537 7.81227 3.46352 8.55258C1.79147 9.25393 0.676779 10.1111 0.119432 11.1242C0.119432 11.2021 0.0995264 11.2411 0.0597158 11.2411C-0.0199053 11.2411 -0.0199053 11.0852 0.0597158 10.7735C0.3782 9.68253 1.15451 8.7474 2.38863 7.96812C3.62276 7.14988 5.09575 6.52646 6.8076 6.09785C8.51946 5.63029 10.3507 5.35754 12.3015 5.27961C14.292 5.20168 16.2228 5.31857 18.0939 5.63029C20.1242 5.98096 21.8759 6.74076 23.3489 7.90967C24.8617 9.03963 26.0361 10.3839 26.8721 11.9424C27.7479 13.462 28.2456 15.0985 28.365 16.8519C28.5243 18.6053 28.2456 20.2807 27.529 21.8782ZM14.6901 8.61102C15.1678 9.62409 15.347 10.9489 15.2275 12.5853C15.1479 14.2218 14.929 15.9362 14.5707 17.7286C14.2124 19.482 13.7944 21.1769 13.3166 22.8134C12.8787 24.4499 12.5403 25.7746 12.3015 26.7877C11.8237 28.658 11.2465 30.5282 10.5697 32.3985C9.89292 34.2688 9.33557 35.9052 8.89766 37.3079C8.6986 37.8534 8.55927 38.1262 8.47965 38.1262C8.36021 38.1262 8.3005 38.0288 8.3005 37.834C8.3005 37.6002 8.3005 37.3859 8.3005 37.1911C8.41993 34.3077 8.83794 31.4634 9.55453 28.658C10.3109 25.8526 11.127 23.0082 12.0029 20.1249C12.5204 18.3715 13.018 16.5402 13.4958 14.6309C13.9735 12.7217 14.2522 10.7151 14.3318 8.61102C14.3318 8.33828 14.3716 8.18242 14.4512 8.14346C14.491 8.14346 14.5308 8.2019 14.5707 8.3188C14.6105 8.43569 14.6503 8.5331 14.6901 8.61102ZM21.7963 32.8661C21.8361 32.905 21.7565 33.0609 21.5574 33.3336C21.3584 33.6064 21.0996 33.9181 20.7811 34.2688C20.5024 34.5805 20.2039 34.9117 19.8854 35.2623C19.6067 35.5741 19.4076 35.7884 19.2882 35.9052C18.4522 36.7235 17.5963 37.5612 16.7204 38.4184C15.8844 39.2367 15.0086 39.938 14.0929 40.5225L8.71851 43.8539C8.63889 43.8928 8.51946 43.9318 8.36021 43.9708C8.24078 44.0097 8.14126 44.0097 8.06164 43.9708C7.98201 43.9318 7.9422 43.8734 7.9422 43.7954C7.98201 43.7175 8.02182 43.6396 8.06164 43.5617C8.10145 43.4837 8.16116 43.4058 8.24078 43.3279C8.91756 42.8603 9.67396 42.2758 10.51 41.5745C11.3858 40.8731 12.2816 40.1523 13.1972 39.412C13.874 38.9055 14.6702 38.2626 15.5858 37.4833C16.5413 36.704 17.4569 35.9637 18.3328 35.2623C19.2484 34.561 20.0247 33.9765 20.6617 33.509C21.3385 33.0024 21.7167 32.7881 21.7963 32.8661Z" fill="#263C24"/>
<path d="M41.7942 18.8391C40.7492 18.8391 39.9654 18.6077 39.4429 18.145C38.9204 17.658 38.6592 16.9883 38.6592 16.1359C38.6592 15.2836 38.9951 14.5774 39.6669 14.0173C40.3636 13.4328 41.222 13.1406 42.2421 13.1406C43.1627 13.1406 43.9092 13.3598 44.4815 13.7981C45.0537 14.2364 45.3399 14.8574 45.3399 15.6611C45.3399 16.6352 45.0164 17.4144 44.3695 17.9989C43.7226 18.559 42.8642 18.8391 41.7942 18.8391ZM41.4957 38.4549C39.8784 38.4549 38.6965 37.8948 37.95 36.7746C37.2285 35.6544 36.8677 34.1689 36.8677 32.3181C36.8677 31.2223 37.0045 29.822 37.2782 28.1173C37.5768 26.3883 37.95 24.781 38.3979 23.2955C38.6218 22.5163 38.9204 21.9805 39.2936 21.6883C39.6669 21.3961 40.264 21.2499 41.0851 21.2499C42.3541 21.2499 42.9886 21.6639 42.9886 22.4919C42.9886 23.1007 42.7522 24.5132 42.2794 26.7292C41.6823 29.408 41.3837 31.2223 41.3837 32.172C41.3837 32.9026 41.4832 33.4627 41.6823 33.8523C41.8813 34.242 42.2172 34.4368 42.69 34.4368C43.1379 34.4368 43.6977 34.1324 44.3695 33.5236C45.0413 32.9148 45.937 31.9528 47.0567 30.6378C47.3553 30.2969 47.6912 30.1264 48.0644 30.1264C48.3879 30.1264 48.6367 30.2725 48.8109 30.5648C49.0099 30.857 49.1094 31.2588 49.1094 31.7702C49.1094 32.7443 48.8731 33.4992 48.4003 34.035C45.937 36.9816 43.6355 38.4549 41.4957 38.4549Z" fill="#263C24"/>
<path d="M48.7397 38.4549C47.7942 38.4549 47.1224 37.9679 46.7243 36.9938C46.3511 36.0197 46.1645 34.4611 46.1645 32.3181C46.1645 29.1523 46.6248 26.1448 47.5454 23.2955C47.7693 22.5893 48.1301 22.0779 48.6277 21.7613C49.1503 21.4204 49.8718 21.2499 50.7924 21.2499C51.2901 21.2499 51.6384 21.3108 51.8375 21.4326C52.0365 21.5543 52.136 21.7857 52.136 22.1266C52.136 22.5163 51.9494 23.393 51.5762 24.7567C51.3274 25.7308 51.1283 26.5831 50.979 27.3137C50.8298 28.0443 50.7054 28.9453 50.6058 30.0168C51.4269 27.9225 52.3475 26.2178 53.3677 24.9028C54.3878 23.5878 55.3831 22.6502 56.3535 22.0901C57.3487 21.53 58.2569 21.2499 59.078 21.2499C60.6953 21.2499 61.504 22.0414 61.504 23.6243C61.504 24.5741 61.2303 26.2909 60.6829 28.7748C60.2101 30.8935 59.9737 32.2938 59.9737 32.9756C59.9737 33.9497 60.3345 34.4368 61.0561 34.4368C61.5537 34.4368 62.1384 34.1446 62.8102 33.5601C63.5069 32.9513 64.4276 31.9772 65.5721 30.6378C65.8707 30.2969 66.2066 30.1264 66.5798 30.1264C66.9033 30.1264 67.1521 30.2725 67.3263 30.5648C67.5253 30.857 67.6248 31.2588 67.6248 31.7702C67.6248 32.7443 67.3885 33.4992 66.9157 34.035C65.8458 35.3257 64.6888 36.385 63.4447 37.213C62.2255 38.041 60.8322 38.4549 59.2646 38.4549C57.9957 38.4549 57.0377 38.1018 56.3908 37.3956C55.7439 36.665 55.4204 35.6179 55.4204 34.2542C55.4204 33.5723 55.5946 32.3547 55.9429 30.6013C56.2664 29.0671 56.4281 28.0077 56.4281 27.4233C56.4281 27.0336 56.2913 26.8388 56.0176 26.8388C55.6941 26.8388 55.2338 27.2528 54.6366 28.0808C54.0644 28.8844 53.4672 29.9559 52.8452 31.2953C52.248 32.6347 51.7628 34.0472 51.3896 35.5327C51.1159 36.6772 50.7924 37.4565 50.4192 37.8705C50.0709 38.2601 49.511 38.4549 48.7397 38.4549Z" fill="#263C24"/>
<path d="M69.1959 38.4549C67.6532 38.4549 66.4216 37.907 65.501 36.8112C64.5803 35.7153 64.12 34.2785 64.12 32.5008C64.12 30.5526 64.5803 28.714 65.501 26.9849C66.4216 25.2316 67.6408 23.8313 69.1585 22.7841C70.7012 21.7126 72.331 21.1769 74.0478 21.1769C74.5952 21.1769 74.956 21.2865 75.1301 21.5056C75.3292 21.7005 75.4909 22.0658 75.6153 22.6015C76.1378 22.5041 76.6852 22.4554 77.2575 22.4554C78.4767 22.4554 79.0863 22.8816 79.0863 23.7339C79.0863 24.2453 78.8997 25.4629 78.5265 27.3868C77.9542 30.1873 77.6681 32.1355 77.6681 33.2313C77.6681 33.5966 77.7551 33.8889 77.9293 34.108C78.1284 34.3272 78.3772 34.4368 78.6758 34.4368C79.1485 34.4368 79.7208 34.1446 80.3926 33.5601C81.0644 32.9513 81.9726 31.9772 83.1171 30.6378C83.4157 30.2969 83.7516 30.1264 84.1248 30.1264C84.4483 30.1264 84.6971 30.2725 84.8713 30.5648C85.0703 30.857 85.1699 31.2588 85.1699 31.7702C85.1699 32.7443 84.9335 33.4992 84.4607 34.035C83.4406 35.277 82.3582 36.3241 81.2137 37.1764C80.0691 38.0288 78.9619 38.4549 77.892 38.4549C77.0709 38.4549 76.312 38.1871 75.6153 37.6513C74.9435 37.0912 74.4334 36.3363 74.0851 35.3865C72.7913 37.4321 71.1615 38.4549 69.1959 38.4549ZM70.5395 34.7656C71.0869 34.7656 71.6094 34.449 72.107 33.8158C72.6047 33.1826 72.9654 32.3425 73.1894 31.2953L74.5703 24.5741C73.5253 24.5984 72.5549 24.988 71.6592 25.743C70.7883 26.4735 70.0916 27.4476 69.5691 28.6653C69.0466 29.8829 68.7853 31.1736 68.7853 32.5373C68.7853 33.2922 68.9346 33.8523 69.2332 34.2176C69.5567 34.5829 69.9921 34.7656 70.5395 34.7656Z" fill="#263C24"/>
<path d="M84.7864 38.4549C83.8409 38.4549 83.1691 37.9679 82.771 36.9938C82.3978 36.0197 82.2112 34.4611 82.2112 32.3181C82.2112 29.1523 82.6715 26.1448 83.5921 23.2955C83.816 22.5893 84.1768 22.0779 84.6745 21.7613C85.197 21.4204 85.9185 21.2499 86.8392 21.2499C87.3368 21.2499 87.6851 21.3108 87.8842 21.4326C88.0832 21.5543 88.1828 21.7857 88.1828 22.1266C88.1828 22.5163 87.9961 23.393 87.6229 24.7567C87.3741 25.7308 87.1751 26.5831 87.0258 27.3137C86.8765 28.0443 86.7521 28.9453 86.6525 30.0168C87.4736 27.9225 88.3943 26.2178 89.4144 24.9028C90.4345 23.5878 91.4298 22.6502 92.4002 22.0901C93.3955 21.53 94.3036 21.2499 95.1247 21.2499C96.742 21.2499 97.5507 22.0414 97.5507 23.6243C97.5507 24.5741 97.277 26.2909 96.7296 28.7748C96.2568 30.8935 96.0205 32.2938 96.0205 32.9756C96.0205 33.9497 96.3812 34.4368 97.1028 34.4368C97.6004 34.4368 98.1852 34.1446 98.857 33.5601C99.5536 32.9513 100.474 31.9772 101.619 30.6378C101.917 30.2969 102.253 30.1264 102.627 30.1264C102.95 30.1264 103.199 30.2725 103.373 30.5648C103.572 30.857 103.672 31.2588 103.672 31.7702C103.672 32.7443 103.435 33.4992 102.962 34.035C101.893 35.3257 100.736 36.385 99.4914 37.213C98.2722 38.041 96.8789 38.4549 95.3113 38.4549C94.0424 38.4549 93.0844 38.1018 92.4375 37.3956C91.7906 36.665 91.4671 35.6179 91.4671 34.2542C91.4671 33.5723 91.6413 32.3547 91.9896 30.6013C92.3131 29.0671 92.4748 28.0077 92.4748 27.4233C92.4748 27.0336 92.338 26.8388 92.0643 26.8388C91.7408 26.8388 91.2805 27.2528 90.6834 28.0808C90.1111 28.8844 89.5139 29.9559 88.8919 31.2953C88.2947 32.6347 87.8095 34.0472 87.4363 35.5327C87.1626 36.6772 86.8392 37.4565 86.4659 37.8705C86.1176 38.2601 85.5578 38.4549 84.7864 38.4549Z" fill="#263C24"/>
<path d="M117.298 30.1264C117.621 30.1264 117.87 30.2725 118.044 30.5648C118.243 30.857 118.343 31.2588 118.343 31.7702C118.343 32.7443 118.106 33.4992 117.634 34.035C116.564 35.3257 115.394 36.385 114.125 37.213C112.856 38.041 111.401 38.4549 109.759 38.4549C104.683 38.4549 102.145 34.9604 102.145 27.9712C102.145 26.8997 102.182 25.816 102.257 24.7202H100.801C100.055 24.7202 99.5447 24.5862 99.271 24.3184C99.0222 24.0505 98.8978 23.6243 98.8978 23.0399C98.8978 21.6761 99.4576 20.9942 100.577 20.9942H102.705C103.128 18.3155 103.775 15.8681 104.645 13.652C105.516 11.4359 106.561 9.67036 107.781 8.35532C109.025 7.04029 110.356 6.38278 111.774 6.38278C112.819 6.38278 113.64 6.8333 114.237 7.73434C114.834 8.63538 115.133 9.76777 115.133 11.1315C115.133 14.9061 113.516 18.1937 110.281 20.9942H114.461C114.859 20.9942 115.145 21.0795 115.32 21.2499C115.494 21.4204 115.581 21.737 115.581 22.1997C115.581 23.88 114.175 24.7202 111.363 24.7202H106.81C106.76 25.9378 106.735 26.8875 106.735 27.5694C106.735 30.1021 107.034 31.8798 107.631 32.9026C108.253 33.9254 109.224 34.4368 110.542 34.4368C111.612 34.4368 112.558 34.1202 113.379 33.487C114.2 32.8539 115.17 31.9041 116.29 30.6378C116.589 30.2969 116.924 30.1264 117.298 30.1264ZM110.766 9.88953C110.393 9.88953 109.97 10.3522 109.497 11.2776C109.049 12.1787 108.614 13.445 108.191 15.0766C107.793 16.6839 107.457 18.4738 107.183 20.4463C108.651 19.2043 109.746 17.8162 110.468 16.282C111.214 14.7235 111.587 13.311 111.587 12.0447C111.587 10.6079 111.314 9.88953 110.766 9.88953Z" fill="#263C24"/>
<path d="M120.454 18.8391C119.409 18.8391 118.626 18.6077 118.103 18.145C117.581 17.658 117.319 16.9883 117.319 16.1359C117.319 15.2836 117.655 14.5774 118.327 14.0173C119.024 13.4328 119.882 13.1406 120.902 13.1406C121.823 13.1406 122.569 13.3598 123.142 13.7981C123.714 14.2364 124 14.8574 124 15.6611C124 16.6352 123.677 17.4144 123.03 17.9989C122.383 18.559 121.524 18.8391 120.454 18.8391ZM116.871 38.4549C116.075 38.4549 115.528 38.2967 115.229 37.9801C114.931 37.6635 114.781 37.1643 114.781 36.4824C114.781 36.2876 114.806 35.9466 114.856 35.4596C115.254 31.0031 115.913 26.9484 116.834 23.2955C117.033 22.5406 117.357 22.017 117.804 21.7248C118.277 21.4082 119.024 21.2499 120.044 21.2499C121.114 21.2499 121.649 21.6761 121.649 22.5284C121.649 22.6502 121.624 22.8816 121.574 23.2225C120.454 28.4339 119.783 32.8052 119.559 36.3363C119.509 37.1156 119.272 37.6635 118.85 37.9801C118.427 38.2967 117.767 38.4549 116.871 38.4549Z" fill="#263C24"/>
</svg>
