<svg width="158" height="114" viewBox="0 0 158 114" fill="none" xmlns="http://www.w3.org/2000/svg">
<rect y="0.956055" width="157.865" height="112.696" rx="5.76117" fill="#4C3494"/>
<path fill-rule="evenodd" clip-rule="evenodd" d="M128.964 43.6904C125.256 40.4171 120.156 38.8874 115.251 39.355C114.025 39.4667 112.809 39.6847 111.629 40.0336C107.307 41.2765 103.515 44.2366 101.252 48.1182C98.2086 53.2371 97.8442 59.8071 100.193 65.2653C101.938 69.3773 105.272 72.7899 109.36 74.5996C114.003 76.6549 119.498 76.717 124.182 74.7569C126.57 73.7527 128.735 72.2188 130.472 70.2973C133.642 66.8364 135.328 62.1134 135.221 57.4373C135.193 52.2508 132.916 47.0809 128.964 43.6904ZM107.726 50.1833C109.47 47.5859 112.344 45.7748 115.457 45.3885C117.925 45.0534 120.512 45.5444 122.65 46.8369C124.704 48.0549 126.309 49.9653 127.268 52.1434C129.163 56.4884 128.738 61.8736 125.877 65.7055C124.52 67.5208 122.616 68.936 120.453 69.634C117.737 70.5182 114.678 70.3278 112.106 69.0822C110.077 68.107 108.381 66.4904 107.256 64.5454C104.741 60.1783 104.886 54.3656 107.726 50.1833ZM49.2608 41.2691C45.9138 39.5352 42.019 38.9559 38.2952 39.4497C34.7054 39.9118 31.255 41.4678 28.5774 43.9093C25.8309 46.3646 23.9027 49.6958 23.0691 53.278C22.063 57.5307 22.5267 62.1364 24.4521 66.0691C26.2201 69.7424 29.2923 72.7729 32.9954 74.4847C36.6625 76.1896 40.89 76.5979 44.8373 75.7689C48.63 74.9799 52.1329 72.8998 54.6572 69.9644C57.0643 67.1919 58.5632 63.6703 58.9841 60.0301C59.3913 56.6355 58.8875 53.1305 57.5032 50.0006C55.8621 46.2639 52.9072 43.112 49.2608 41.2691ZM34.3726 47.3487C35.8494 46.2824 37.6008 45.612 39.4047 45.3803C41.5647 45.1017 43.813 45.4438 45.766 46.419C48.0653 47.5404 49.9106 49.5033 50.9968 51.8096C52.2307 54.3808 52.5661 57.3451 52.101 60.148C51.6717 62.7054 50.5027 65.1731 48.634 66.9939C47.0275 68.6147 44.8909 69.6947 42.6371 70.0437C39.8767 70.4782 36.9466 69.8809 34.6335 68.2974C32.2444 66.7042 30.5674 64.162 29.8429 61.4019C29.1279 58.6762 29.2176 55.7298 30.152 53.0676C30.947 50.7999 32.4072 48.7474 34.3726 47.3487ZM60.6498 40.2718L60.6484 40.2718C60.6475 41.5886 60.6478 42.906 60.6481 44.2237C60.6482 44.8825 60.6484 45.5415 60.6484 46.2004C61.5427 46.2025 62.4362 46.2022 63.3301 46.202C63.6281 46.2019 63.9262 46.2018 64.2244 46.2018C66.436 51.2865 68.6448 56.3726 70.8535 61.4584C72.4574 65.1516 74.0613 68.8447 75.6661 72.537C76.4128 74.2502 77.982 75.5868 79.808 76.0103C80.4723 76.1839 81.1576 76.1769 81.8404 76.17C82.0527 76.1678 82.2648 76.1656 82.4759 76.1689C84.5716 71.2355 86.6741 66.305 88.7766 61.3746C91.2823 55.4985 93.788 49.6227 96.2818 43.7424C96.3454 43.0268 96.3357 42.3043 96.326 41.5819C96.3201 41.1442 96.3142 40.7065 96.3246 40.2704H84.7339V40.2718C84.7325 42.2494 84.7311 44.2256 84.7339 46.2018C85.2384 46.2024 85.743 46.2022 86.2476 46.2021C86.9203 46.2018 87.593 46.2016 88.2657 46.2032C87.3431 48.4623 86.4226 50.7224 85.5022 52.9825C83.7172 57.3655 81.9322 61.7485 80.131 66.1242C78.728 62.8041 77.3254 59.4839 75.9228 56.1637C74.5202 52.8435 73.1176 49.5234 71.7147 46.2032C72.3081 46.2011 72.9019 46.2015 73.4959 46.2018C74.0899 46.2021 74.6841 46.2025 75.2783 46.2004V40.2718C70.4026 40.2691 65.5269 40.2704 60.6498 40.2718Z" fill="white"/>
</svg>
