<svg width="282" height="135" viewBox="0 0 282 135" fill="none" xmlns="http://www.w3.org/2000/svg">
<path fill-rule="evenodd" clip-rule="evenodd" d="M81.2353 85.9565C75.2673 87.1155 67.5637 85.1025 63.3922 80.6189C61.5043 78.6059 64.5492 75.5254 66.4371 77.5689C69.2384 80.5884 74.2625 82.0219 78.3426 81.9304C83.5494 81.8084 88.1777 77.0809 85.2241 71.7738C81.1135 64.4232 71.0349 66.4972 65.8281 60.7022C61.6261 56.0356 63.6358 48.7155 68.5381 45.4825C73.6839 42.097 82.5446 42.219 86.777 47.0685C88.604 49.1426 85.5591 52.2231 83.7321 50.1186C80.3218 46.184 72.2528 46.733 69.1775 50.7591C64.7928 56.5236 71.3394 59.6347 75.9372 61.0072C82.2401 62.9287 89.2129 66.4057 90.37 73.6343C91.3139 79.4599 86.8075 84.8585 81.2353 85.9565ZM41.3775 31.3608H112.446C117.196 31.3608 121.032 35.2344 121.032 39.9619V89.7995C121.032 94.5576 117.165 98.4006 112.446 98.4006H39.307C34.557 98.4006 30.7204 94.5576 30.6899 89.7995V28.2498C30.6899 26.0233 32.5473 24.4678 34.7397 24.1933L100.266 15.8057C102.519 15.8057 104.316 17.6357 104.316 19.8622V26.8163H37.2669C37.2669 29.7748 38.15 31.3608 41.3775 31.3608Z" fill="#ED4C2F"/>
<path fill-rule="evenodd" clip-rule="evenodd" d="M150.233 19.7094C147.401 16.5984 141.494 16.5069 138.053 18.6724C134.765 20.7464 133.425 25.474 136.227 28.463C139.698 32.1536 146.427 30.842 149.167 35.5696C151.147 38.9856 148.041 42.0357 144.57 42.0967C141.829 42.1577 138.48 41.2427 136.622 39.2906C135.374 37.9791 133.334 39.9311 134.582 41.2427C137.353 44.1402 142.499 45.4212 146.488 44.6587C150.203 43.9572 153.217 40.4802 152.608 36.7591C151.847 32.1231 147.188 29.866 142.986 28.646C139.941 27.7615 135.557 25.7485 138.48 22.0579C140.55 19.4654 145.909 19.1299 148.193 21.6309C149.411 23.0035 151.451 21.0514 150.233 19.7094ZM170.451 33.8006V43.5302C170.451 45.3602 167.559 45.3602 167.559 43.5302V34.0141C167.467 32.8551 166.797 31.8181 165.793 31.2385C163.752 30.354 160.007 30.7505 157.815 33.5566V43.5302C157.815 45.3602 154.922 45.3602 154.922 43.5302V18.5809C154.922 16.7509 157.815 16.7509 157.815 18.5809V29.805C161.347 27.4565 165.823 27.7005 167.954 29.1645C169.568 30.11 170.512 31.9096 170.451 33.8006ZM218.682 35.0816C218.713 34.9596 218.743 34.8681 218.774 34.7766C219.474 32.4891 221.819 31.1775 224.194 31.1165C226.934 31.0555 228.457 32.8856 228.944 35.0816H218.682ZM231.958 36.4846C231.897 32.6721 229.888 29.195 225.716 28.4325C222.123 27.7615 217.921 29.622 216.399 32.8856C214.815 36.2711 215.485 40.9377 218.622 43.3167C222.001 45.8787 227.3 45.0857 230.771 43.1947C232.385 42.3102 230.923 39.9006 229.309 40.7852C227.117 41.9747 224.224 42.5847 221.758 41.7612C219.9 41.1512 218.865 39.6261 218.561 37.8876H230.527C231.319 37.8876 231.958 37.2776 231.958 36.4846ZM237.835 35.0816C237.865 34.9901 237.896 34.8681 237.926 34.7766C238.627 32.4891 240.971 31.1775 243.346 31.1165C246.087 31.0555 247.609 32.8856 248.096 35.0816H237.835ZM251.141 36.4541C251.08 32.6416 249.071 29.1645 244.899 28.402C241.306 27.731 237.104 29.5915 235.582 32.8551C233.998 36.2406 234.668 40.9072 237.804 43.2862C241.184 45.8482 246.482 45.0552 249.954 43.1642C251.567 42.2797 250.106 39.8701 248.492 40.7547C246.3 41.9747 243.407 42.5542 240.941 41.7307C239.083 41.1207 238.048 39.5956 237.744 37.8571H249.71C250.471 37.8571 251.111 37.2471 251.141 36.4541ZM182.387 31.33C179.373 31.33 176.906 33.7091 176.906 36.6371C176.906 39.5651 179.342 41.9442 182.387 41.9442C185.432 41.9442 187.838 39.5651 187.838 36.6371C187.838 33.7091 185.371 31.33 182.387 31.33ZM182.387 44.9332C177.668 44.9332 173.831 41.2122 173.831 36.6066C173.831 32.0011 177.668 28.28 182.387 28.28C187.107 28.28 190.943 32.0011 190.943 36.6066C190.943 41.2122 187.107 44.9332 182.387 44.9332ZM203.61 41.9442C200.596 41.9442 198.16 39.5651 198.16 36.6371C198.19 33.9836 200.139 31.7876 202.758 31.391H202.819C203.093 31.3605 203.367 31.33 203.641 31.33C205.772 31.33 207.721 32.5501 208.634 34.5021C208.634 34.5021 208.634 34.5021 208.634 34.5326C208.939 35.2036 209.091 35.9051 209.091 36.6371C209.061 39.5651 206.625 41.9442 203.61 41.9442ZM203.61 28.3105C201.174 28.3105 198.86 29.317 197.216 31.086V29.1035C197.216 27.304 194.323 27.304 194.323 29.1035V52.6193C194.323 54.4188 197.216 54.4188 197.216 52.6193V42.1577C198.86 43.9572 201.174 44.9637 203.61 44.9332C208.33 44.9332 212.166 41.2122 212.166 36.6066C212.166 32.0011 208.33 28.3105 203.61 28.3105Z" fill="#ED4C2F"/>
<path fill-rule="evenodd" clip-rule="evenodd" d="M189.146 71.2255C194.627 71.2255 199.103 75.6786 199.103 81.1991C199.103 86.7197 194.657 91.1727 189.146 91.1727C183.635 91.1727 179.189 86.7197 179.189 81.1991C179.189 75.6786 183.665 71.2255 189.146 71.2255ZM200.291 64.2714H207.02V98.0963H200.291V94.2838C193.074 100.445 182.204 99.5603 176.053 92.3318C169.902 85.1032 170.785 74.2145 178.002 68.0535C184.427 62.5939 193.835 62.5939 200.26 68.0535V64.2714H200.291ZM141.828 76.6851V58.4154H152.181C157.997 58.4154 162.716 62.5024 162.716 67.5655C162.716 72.6285 157.997 76.7156 152.181 76.7156L141.828 76.6851ZM134.186 98.4013H141.828V84.3712H152.181C162.899 84.3712 171.577 76.8376 171.577 67.5655C171.577 58.2934 162.869 50.7598 152.181 50.7598H134.155L134.186 98.4013ZM225.289 112.889H216.154L225.929 94.3753L209.852 63.9664H219.778L230.892 84.9812L242.006 63.9664H251.14L225.289 112.889Z" fill="#ED4C2F"/>
</svg>
