<svg width="68" height="68" viewBox="0 0 68 68" fill="none" xmlns="http://www.w3.org/2000/svg">
<circle cx="34" cy="34" r="34" fill="white"/>
<path fill-rule="evenodd" clip-rule="evenodd" d="M38.3652 41.7666C40.0749 41.5591 41.7322 42.0826 43.4036 42.3464C44.2861 42.4856 45.1696 42.5896 46.0626 42.6282C46.2423 42.6361 46.422 42.6407 46.6017 42.6443C46.6185 42.4861 46.707 42.3408 46.8989 42.2538C47.2922 42.0755 47.607 41.9951 48.0389 42.0123C48.4342 42.0279 48.8309 42.0685 49.2201 42.1398C49.9269 42.2694 50.6369 42.5634 51.1539 43.0744C52.3505 44.2566 52.1683 46.1555 51.2438 47.4431C49.3336 50.1038 45.8473 50.2273 42.8614 50.1926L42.5858 50.189C39.867 50.1502 35.9773 50.5555 34.7421 47.4623C34.2879 46.3248 34.351 45.0064 34.9071 43.9154C35.5705 42.6141 36.9668 41.9364 38.3652 41.7666ZM46.8577 46.1968L46.8333 46.1978C45.5798 46.2461 44.3266 46.2801 43.0724 46.3022C43.1099 46.6243 43.1482 46.9465 43.192 47.2679C43.2263 47.5208 43.2632 47.7734 43.3015 48.0258C43.3177 48.1326 43.3772 48.2984 43.3604 48.4043L43.3543 48.4461C43.4187 48.4752 43.4771 48.5221 43.5206 48.5902C43.5358 48.6138 43.5467 48.6375 43.5576 48.6612C44.5314 48.6688 45.5793 48.6499 46.5719 48.473L46.5739 48.4514C46.5919 48.3246 46.6446 48.2392 46.7147 48.1807C46.7845 47.7763 46.7781 47.3454 46.8051 46.9442C46.8219 46.695 46.8401 46.4459 46.8577 46.1968ZM42.1145 46.3193C41.211 46.3347 40.3071 46.3465 39.4038 46.3355L38.9937 46.3292C39.0803 46.7938 39.1746 47.2568 39.2529 47.7244C39.3346 48.2119 38.9056 48.5217 38.5342 48.5092C38.5759 48.5161 38.6175 48.5231 38.6592 48.529C39.8194 48.6931 41.024 48.6495 42.2014 48.6483C42.138 48.2785 42.1637 47.8614 42.1542 47.5528L42.1524 47.505C42.1344 47.1096 42.1217 46.7145 42.1145 46.3193ZM35.9775 46.2341C36.0088 46.4757 36.0699 46.7121 36.1611 46.9322C36.5468 47.8622 37.4309 48.2962 38.3664 48.4789C38.2041 48.4229 38.0752 48.2882 38.0427 48.0576C37.9616 47.484 37.9324 46.901 37.9302 46.3186C37.2783 46.3126 36.6219 46.2987 35.9775 46.2341ZM50.2577 46.0355C49.7935 46.145 49.2541 46.0948 48.7987 46.1155C48.3721 46.1349 47.9452 46.1518 47.5185 46.1691C47.5387 46.4604 47.5583 46.7515 47.5796 47.0426C47.607 47.4189 47.6096 47.8165 47.6817 48.1911C48.5403 47.8981 49.3098 47.4281 49.887 46.6766C50.0308 46.4894 50.1596 46.2696 50.2577 46.0355ZM38.1691 43.2925C37.3964 43.4754 36.6651 43.8619 36.2721 44.569C36.0388 44.9886 35.9362 45.4859 35.9559 45.9759C36.609 45.8999 37.2733 45.871 37.9344 45.8472C37.9366 45.7281 37.9394 45.6092 37.943 45.4905L37.9532 45.1864C37.9712 44.6063 37.9802 43.8778 38.1691 43.2925ZM42.1685 43.3632L41.8284 43.325C40.8836 43.2174 39.9393 43.1044 38.9944 43.1692C38.8577 43.1786 38.7189 43.1935 38.5797 43.2139C38.7467 43.8165 38.7327 44.5243 38.8025 45.1208C38.8294 45.3515 38.8635 45.5803 38.9012 45.8081L39.0651 45.8005C40.0789 45.7455 41.0938 45.7117 42.1084 45.6715C42.1083 45.481 42.1094 45.2904 42.1124 45.0997L42.1162 44.909C42.1277 44.4219 42.0963 43.8733 42.1685 43.3632ZM46.913 43.2859C45.9234 43.4456 44.9007 43.4796 43.9287 43.4808C43.5404 43.4813 43.1524 43.4575 42.7645 43.4231C42.7898 43.6296 42.803 43.8385 42.822 44.0421C42.8603 44.4536 42.904 44.8645 42.9516 45.2749L42.994 45.6341C44.2412 45.5776 45.4882 45.5165 46.735 45.4532L46.911 45.4437L46.9603 44.7534C46.9939 44.2932 47.0308 43.833 47.0829 43.3748L47.0438 43.3607C46.9978 43.3418 46.9543 43.3157 46.913 43.2859ZM47.3427 43.4573C47.3972 44.1081 47.4274 44.7616 47.4675 45.4135L48.2894 45.3696C48.4264 45.3621 48.5634 45.3545 48.7004 45.3466C49.233 45.3159 49.9174 45.1546 50.444 45.3051C50.4842 44.8264 50.3474 44.36 49.9154 44.0384C49.1569 43.4736 48.1911 43.6747 47.3427 43.4573ZM44.5344 37.6392C45.7584 36.9383 48.8294 36.2219 49.0239 38.4246C49.1133 39.4382 48.3597 40.2781 47.4798 40.6528L47.4467 40.6667C46.6214 41.006 45.1586 41.3892 44.4443 40.6534C43.8499 40.041 44.6383 38.943 45.377 39.4447C45.7566 39.7024 46.5556 39.5125 46.9792 39.3899L47.0057 39.3821C47.4628 39.2478 48.0722 38.8178 47.8832 38.255C47.7159 37.7571 47.0042 37.6662 46.5585 37.65C45.8931 37.6262 45.2456 37.7807 44.5864 37.8309C44.4819 37.8389 44.4497 37.6877 44.5344 37.6392ZM49.6045 34.0973C51.2658 34.0195 52.2991 35.8333 51.9171 37.3195C51.8511 37.5759 51.5643 37.8277 51.2874 37.7988L51.2176 37.7924C51.1822 37.789 51.1466 37.7845 51.1139 37.7755C50.851 37.7027 50.6153 37.4292 50.6344 37.1458L50.6395 37.0632C50.6783 36.3611 50.6022 35.5522 49.7678 35.3822C49.0602 35.238 48.6651 35.9191 48.6567 36.5461C48.6551 36.6574 48.5301 36.7351 48.4316 36.6752C47.9201 36.3639 47.8315 35.7447 48.0269 35.2114C48.2745 34.5357 48.8943 34.1305 49.6045 34.0973ZM37.2767 34.4863C38.4856 34.083 39.7899 34.7274 40.3753 35.7962C40.5806 35.8556 40.7857 36.0139 40.7572 36.2563C40.716 36.6049 40.6539 36.8248 40.4122 37.0892C40.034 37.5028 39.3258 37.2913 39.1686 36.7821L39.162 36.7591C38.9834 36.101 38.2589 35.6667 37.599 35.8971C36.828 36.1662 36.8504 36.9804 36.3096 37.4548C36.2461 37.5105 36.1699 37.5194 36.0937 37.4826C35.5193 37.2051 35.6225 36.3697 35.8273 35.8915C36.0958 35.2641 36.6179 34.706 37.2767 34.4863ZM35.6303 30.8153C36.6099 29.8157 39.1644 28.8485 39.8345 30.6943C39.9622 31.0459 39.6904 31.5199 39.3244 31.5928C38.725 31.7121 38.1932 31.4519 37.5977 31.4986C37.1157 31.5366 36.6129 31.6976 36.2276 31.9963C35.1602 32.8233 34.9254 34.2221 34.1816 35.2747C34.1454 35.326 34.0751 35.3044 34.0684 35.244C33.8991 33.7115 34.5574 31.91 35.6303 30.8153ZM48.4062 29.8313C49.0563 29.6017 49.7924 29.6213 50.4459 29.825C51.1042 30.0302 51.7085 30.42 52.174 30.9293C52.3853 31.1605 52.5808 31.4156 52.7375 31.6872C52.8208 31.8311 52.9084 32.1284 53.003 32.3055C53.5151 32.6011 53.734 33.2748 53.2756 33.7542L53.2549 33.7752L53.1935 33.836C52.9471 34.08 52.5755 34.1857 52.2391 34.0883C51.4862 33.8704 51.3948 33.2775 51.1342 32.6481C50.962 32.2324 50.6671 31.8646 50.3095 31.5944C49.4645 30.9561 48.0788 30.7527 47.0614 31.0536C47.0073 31.0696 46.9436 31.0006 46.9822 30.9505C47.175 30.7008 47.2861 30.4958 47.5442 30.2944C47.8062 30.0899 48.0922 29.9422 48.4062 29.8313Z" fill="black"/>
<path fill-rule="evenodd" clip-rule="evenodd" d="M18.4805 16.7711C20.8824 14.2217 34.5187 10.2783 41.4176 11.1142L41.6246 11.141C42.1751 11.2108 42.7177 11.3165 43.2532 11.4601C44.984 11.8644 46.7719 12.4765 48.2021 13.4989C49.396 14.3353 53.1624 15.7012 52.0523 17.8892C52.4639 18.669 52.6175 19.6325 52.3393 20.4006C52.3043 20.6659 52.2226 20.9102 52.1179 21.1636C52.9973 22.4612 53.6936 23.9288 54.2572 25.3246C55.2421 28.8374 55.855 32.4932 55.9447 36.0772C56.2434 42.8865 55.4967 51.0201 49.5662 55.4233C45.9835 58.2135 40.3715 58.3072 36.3454 54.8477C36.1169 54.5774 35.0424 53.8477 35.401 53.7197C35.5077 53.8324 35.6174 53.9421 35.7291 54.0499C35.724 54.0379 35.723 54.0259 35.7251 54.013L35.6201 53.9178C35.4222 53.7348 35.1659 53.4693 35.4578 53.5212C35.4707 53.5362 35.4848 53.5492 35.4986 53.5641C35.5605 53.6012 35.6072 53.6334 35.6435 53.6617L35.6622 53.6767L35.6564 53.6707C35.4883 53.4914 35.3875 53.3085 35.6389 53.4253L35.6722 53.4415C35.784 53.5591 35.8976 53.6718 36.0133 53.7816C36.0114 53.7686 36.0133 53.7556 36.0204 53.7417L35.9125 53.6375C35.8072 53.5343 35.8233 53.5338 35.8747 53.4504C35.6509 53.1368 36.0687 53.3231 36.0981 53.4454C36.3595 53.3836 36.589 53.8743 36.7573 53.9342C44.1378 59.6082 54.8482 54.5736 54.6748 38.7628L54.6721 38.4534C54.6214 33.3978 54.196 28.2016 52.1049 23.6251C51.9015 23.1842 51.674 22.7554 51.4238 22.3405C51.2512 22.0293 51.0667 21.7261 50.8682 21.4308C50.3126 21.386 49.764 21.2842 49.2236 21.1266C49.0379 21.0798 48.8544 21.0279 48.671 20.9671C45.9901 21.1133 43.3689 21.2724 40.6805 21.4232L39.8407 21.4755C37.5633 21.6219 35.2081 21.8564 33.3702 23.265C31.567 24.5474 31.5588 27.0763 30.0152 28.4843C27.814 29.9782 27.7979 31.3254 27.3741 33.527C27.4055 35.1866 28.5562 37.5979 26.4445 38.2964C26.8008 38.8043 26.3042 38.5603 26.2651 38.3822C26.2611 38.3832 26.2571 38.3842 26.2541 38.3842C26.5716 38.9743 26.1049 38.6027 26.0636 38.4131C26.0387 38.4061 26.0137 38.3881 25.9888 38.3632C26.3087 38.8802 25.7916 38.5182 25.8222 38.424C25.2042 37.4741 23.9321 37.3265 23.0355 37.5783C23.0245 37.6122 22.9847 37.6152 22.9598 37.5972C19.1471 38.4235 20.1309 46.3162 24.038 45.5533C24.2052 45.5191 24.2012 45.5994 24.2344 45.6071C24.1442 45.3701 24.3986 45.4666 24.3959 45.5163L24.4114 45.5156C24.4237 45.5145 24.4187 45.5132 24.4278 45.5163C24.3406 45.0317 24.8317 45.7339 24.7929 45.7627C24.8079 45.7537 24.8249 45.7487 24.8398 45.7467L24.8229 45.7007C24.7414 45.4836 24.7484 45.5739 24.749 45.4495C24.6877 45.2958 24.6833 45.3631 24.6976 45.2629C24.9128 45.0962 24.9764 45.602 25.0482 45.639C24.9251 45.4675 25.023 45.3273 25.139 45.4205C26.019 47.2714 27.1557 49.0105 28.6248 50.3805C28.7854 50.5072 28.948 50.6319 29.1165 50.7496C29.7413 51.2938 30.6998 51.6438 31.2847 52.1259C31.2847 52.1339 31.2809 52.1439 31.2749 52.1539L31.2883 52.1659L31.3018 52.1788L31.5053 52.2765C31.5651 52.3274 31.619 52.3842 31.6667 52.4471C31.7177 52.5059 31.7625 52.5708 31.8005 52.6396C31.8194 52.7234 31.7775 52.7583 31.6978 52.7224C31.6628 52.7104 31.6279 52.6964 31.593 52.6835C31.595 52.6865 31.5959 52.6884 31.598 52.6904C31.6095 52.7077 31.6869 52.8874 31.5977 52.8581L31.587 52.854C31.5381 52.8361 31.4893 52.8161 31.4414 52.7972C31.4983 52.868 31.55 52.9448 31.5959 53.0096C31.6449 53.0605 31.6747 53.1203 31.6868 53.1881C31.6847 53.226 31.6638 53.242 31.6259 53.237C31.5681 53.218 31.5112 53.1981 31.4543 53.1772L31.4705 53.208C31.5107 53.2872 31.5679 53.4199 31.4664 53.3756C31.3795 53.3487 31.2958 53.3178 31.212 53.2839C31.205 53.2978 31.1911 53.3028 31.1632 53.2899C30.8969 53.1951 30.6395 53.0794 30.3932 52.9428C30.1768 52.7852 29.9582 52.6306 29.7409 52.474C29.5364 52.3513 29.3389 52.2147 29.1505 52.0611C27.8892 51.2464 26.785 50.2116 25.909 49.059C24.444 50.3278 21.5148 49.1157 19.7029 48.1225C18.1002 47.2348 17.4703 45.5935 17.3074 43.824C16.9688 41.4417 15.0219 40.6262 15.1574 35.399C15.1544 35.4 15.1513 35.4 15.1473 35.4C15.0765 35.3791 15.0078 35.3512 14.9429 35.3152C14.8761 35.2833 14.8133 35.2454 14.7543 35.1995L14.6815 35.0988C14.6437 35.0779 14.6098 35.0559 14.5839 35.034L14.5704 35.0513C14.5279 35.1027 14.5565 35.0254 14.5589 35.01L14.4325 34.838C14.1326 34.4286 13.8035 33.9692 13.5355 33.6018L13.5271 33.6167C13.521 33.628 13.5178 33.6361 13.5207 33.6397C12.8829 32.7233 12.283 31.6164 12.1164 30.5448C11.9196 29.7194 11.9965 28.8688 12.1681 28.1043C12.9041 25.4268 15.3149 19.368 18.4805 16.7711ZM35.7896 53.7988L35.7497 53.7632L35.7848 53.8073C35.8032 53.83 35.8221 53.8505 35.8528 53.8713C35.8508 53.8643 35.8508 53.8574 35.8517 53.8494C35.8313 53.8338 35.8105 53.8168 35.7896 53.7988ZM41.3871 12.4595C36.7087 12.0573 32.1071 13.0879 27.6426 14.3356L27.3347 14.4241C24.7961 15.1484 22.1119 15.8002 19.9667 17.3506C16.9695 19.6463 15.4218 23.2982 14.0711 26.67C12.8917 29.1752 13.4946 32.0001 15.272 33.7494C15.4569 32.0111 15.7721 30.3236 16.2648 28.6497C16.3677 28.3882 16.2899 28.3025 16.5115 28.2684C16.8462 32.7793 15.1977 36.1121 18.4601 41.4583C19.8756 43.9808 18.2369 45.8265 22.2344 47.1539L22.3426 47.1953C23.1754 47.5095 24.0849 47.7576 24.9006 47.5819L24.8275 47.463C24.753 47.3406 24.7304 47.2812 24.8387 47.2288C24.8358 47.2229 24.8319 47.2169 24.8278 47.2099C24.7401 47.0443 24.6553 46.8768 24.5744 46.7072C24.5416 46.7182 24.5087 46.7262 24.4747 46.7351C24.4967 46.776 24.4996 46.8169 24.4379 46.8309C24.2181 46.9063 23.9924 46.9365 23.7614 46.9224L23.7118 46.9187C23.4508 46.9027 23.2863 46.8551 23.1392 46.8109C23.0904 46.803 23.0416 46.795 22.9936 46.785C22.5204 46.6801 22.0194 46.4132 21.6951 46.1487C17.9991 44.0494 18.3811 36.9034 22.9369 36.2278C23.0303 31.7285 25.1704 24.1377 28.722 19.8503C31.9323 15.9066 40.6966 14.1973 46.7942 14.8C46.883 14.8295 46.9719 14.8592 47.0608 14.8892C48.0015 14.9728 48.898 15.3919 49.8394 15.5866C49.1635 15.08 48.3967 14.7426 47.6069 14.4558C46.0333 13.4933 44.2292 12.9724 42.4863 12.6051C42.1253 12.5163 41.7592 12.4675 41.3871 12.4595ZM22.7283 39.8423C22.9733 39.7092 22.9453 39.8377 23.0016 39.8004C24.7636 39.6567 26.6635 41.1993 27.6484 42.4853C27.5706 42.5661 27.3601 42.3267 27.3232 42.2888C27.3182 42.2938 27.3122 42.2978 27.3063 42.2998L27.3337 42.3385C27.7329 42.9114 26.9415 42.2373 26.8674 42.0984C26.8545 42.1053 26.8415 42.1093 26.8265 42.1063C26.8893 42.1679 27.0809 42.3283 27.1138 42.4424L27.1646 42.4847C27.6435 42.8949 27.6038 43.2034 27.06 42.621C27.0729 42.6479 27.0779 42.6728 27.0689 42.6928L27.0876 42.7053C27.355 42.8921 27.5749 43.413 27.016 42.8783C27.0742 43.2689 26.4622 42.514 26.4425 42.5192C25.3835 41.6879 23.8243 40.8795 22.4959 40.7708L22.4502 40.7656C22.2065 40.7343 22.0912 40.662 22.1768 40.5026C21.8766 40.4311 21.9469 40.2833 22.089 40.2881C21.8773 40.1489 22.0679 40.0157 22.1908 40.0677C22.1063 39.8338 22.4451 39.9896 22.476 39.957C22.6518 39.6858 22.6992 39.912 22.7283 39.8423ZM19.0351 25.3455C19.8813 25.0355 22.3811 25.9635 22.1811 27.1924C22.062 27.4746 21.6696 27.6363 21.3939 27.477L21.0339 27.2353C20.4075 26.8158 19.8426 26.4479 19.1701 26.0821C18.8041 25.9005 18.6465 25.5149 19.0351 25.3455ZM23.8499 23.5192L23.523 23.3065C21.7593 22.1522 19.266 20.4031 23.6878 22.2128C24.1918 22.4289 24.8614 22.5567 25.1364 23.0367C25.5683 23.9213 24.4315 23.9807 23.8499 23.5192ZM24.0481 18.34C23.9065 17.8029 25.6676 18.4331 26.1803 18.5993L26.2583 18.6288C26.757 18.8146 27.3287 18.987 27.6269 19.4173C27.9764 20.012 27.2691 20.1351 26.8309 19.8665C25.9326 19.2795 24.9477 18.8366 24.0481 18.34ZM28.5263 15.8381C27.5351 14.7556 30.1879 15.7926 30.5853 16.0804L30.5966 16.0889C30.8932 16.2977 30.833 16.7473 30.5545 16.8793C29.7618 16.8944 29.1786 16.2337 28.5263 15.8381ZM33.037 14.6521C31.4612 13.5196 33.537 14.0582 34.258 14.5021C34.7494 14.9354 34.2432 15.667 33.037 14.6521Z" fill="black"/>
</svg>
