<svg width="68" height="68" viewBox="0 0 68 68" fill="none" xmlns="http://www.w3.org/2000/svg">
<circle cx="34" cy="34" r="34" fill="white"/>
<path fill-rule="evenodd" clip-rule="evenodd" d="M42.8317 44.7491C40.3284 46.1281 37.462 46.1817 34.7693 45.3139C33.1545 44.7948 31.6738 43.9922 30.288 43.0324C29.0825 42.1968 28.0066 41.27 26.9406 40.286C26.063 38.3763 25.2814 36.47 24.9155 34.3922C24.5876 32.5271 24.5441 30.5905 24.9245 28.7289C27.7377 26.4455 30.5335 24.1434 33.3256 21.8342C34.7476 20.658 36.1731 19.4883 37.6159 18.3371C38.3485 17.7526 39.0741 17.1592 39.804 16.5721C39.9244 16.4756 40.0441 16.379 40.1645 16.2825C41.6715 17.371 43.2872 18.3041 44.7835 19.4104C45.5668 19.9904 46.3285 20.608 47.054 21.2576C47.4344 21.5982 47.8058 21.9494 48.1681 22.3095C48.4995 22.6385 48.8192 23.1103 49.2893 23.2346C49.3536 23.2515 49.4142 23.2551 49.4712 23.247C50.0998 28.6771 50.5463 34.5406 47.8537 39.4719C46.679 41.623 45.0136 43.5462 42.8317 44.7491ZM26.5467 46.7448C26.202 46.4332 26.7157 45.9289 27.0589 46.2392C29.215 48.188 32.0337 49.221 34.8808 49.6991C35.3401 49.7764 35.1442 50.4652 34.6881 50.3885C31.7156 49.8893 28.794 48.7761 26.5467 46.7448ZM23.9595 49.7348C23.548 49.517 23.9143 48.9 24.3251 49.1175C26.0049 50.0064 27.8473 50.4683 29.7161 50.7802C30.1758 50.8569 29.9797 51.5456 29.5236 51.4696C27.5913 51.1471 25.6952 50.6534 23.9595 49.7348ZM30.7961 19.6152C32.1899 18.3809 33.6879 17.2065 35.2702 16.2155C36.8714 15.2128 38.6203 14.6131 40.5104 14.5988C40.3782 14.7034 40.2523 14.8196 40.1246 14.9276C39.7678 15.2289 39.4118 15.5318 39.0559 15.8339C38.344 16.4389 37.6303 17.043 36.9275 17.6579C35.5436 18.8697 34.1552 20.0753 32.7741 21.2899C30.1195 23.6242 27.5221 26.0093 24.9807 28.4635C24.9943 28.4036 25.0088 28.3437 25.0232 28.2839C25.8646 24.8163 28.1533 21.9556 30.7961 19.6152ZM41.7222 14.7499C41.7313 14.723 41.7377 14.697 41.7413 14.6721C45.3686 15.1386 48.3981 17.7722 49.3997 21.2398C49.3128 21.3596 49.2648 21.5017 49.2829 21.6526C49.2919 21.7287 49.301 21.8055 49.31 21.8815C49.186 21.76 49.0583 21.6464 48.9497 21.5383C48.5882 21.1772 48.2179 20.8259 47.8374 20.4837C47.0594 19.784 46.2516 19.1298 45.4002 18.5194C43.9195 17.4577 42.3163 16.4818 40.5512 15.9724C40.6671 15.8786 40.7831 15.7847 40.9 15.6918C41.2485 15.412 41.572 15.1815 41.7222 14.7499ZM48.2251 11.0419C45.998 8.6406 42.9141 6.88183 39.6664 6.27055C36.5653 5.68608 33.3546 6.07125 30.4248 7.20713C24.2942 9.58434 19.4569 14.8116 17.1918 20.8689C15.8713 24.3981 15.4384 28.2669 15.8352 32.0025C16.23 35.721 17.3648 39.5613 19.4297 42.7249C19.619 43.0146 19.8264 43.2924 20.0438 43.5614C19.9469 44.6535 19.5774 45.7242 18.9959 46.6554C18.9647 46.7052 18.9317 46.7542 18.8991 46.8033C18.3037 47.2432 17.6861 47.6561 17.0832 48.0823C16.5607 48.4516 16.0436 48.8304 15.5522 49.2395C15.0884 49.6256 14.5498 50.0557 14.2358 50.5769C13.9785 51.0038 13.8735 51.5842 14.2247 51.9914C14.6479 52.4819 15.365 52.3089 15.9383 52.3089C15.9874 52.3089 16.0364 52.31 16.0854 52.3105C16.2576 52.4173 16.4349 52.5139 16.6067 52.6037C18.3429 53.5117 20.0854 54.4099 21.8298 55.3036C25.3041 57.0847 28.7638 58.9374 32.3095 60.5772C33.9525 61.3378 35.7113 62.0026 37.5515 62C39.2779 61.9973 40.8383 61.3208 42.1859 60.2921C43.722 59.1204 45.0063 57.6325 46.2524 56.1741C46.7506 55.5904 47.2387 54.9997 47.7178 54.401C48.638 54.098 49.5509 54.0095 50.3715 54.594C51.0299 55.0632 51.8976 54.4251 51.913 53.7208C51.9184 53.4707 51.9076 53.224 51.8804 52.9809C51.7156 51.4794 50.9711 50.1211 50.1324 48.8611C49.6742 48.172 49.1915 47.4953 48.7059 46.8251C48.5918 46.667 48.4795 46.5088 48.3708 46.3479C50.3208 43.515 51.8677 40.3736 52.8187 37.091C53.8177 33.637 54.1573 30.0551 53.9345 26.4759C53.5921 20.9905 52.067 15.1851 48.2251 11.0419Z" fill="black"/>
<path fill-rule="evenodd" clip-rule="evenodd" d="M37.4086 36.6524C37.9137 35.8214 38.9905 37.857 39.1049 38.207C39.2062 38.5171 39.2731 38.8347 39.3071 39.156C39.6987 39.2438 40.1054 39.244 40.5067 39.167C41.1031 39.0526 41.4677 38.732 41.9861 38.4567C42.3441 38.2664 42.7953 38.4895 42.9815 38.805C43.2005 39.1764 43.061 39.5619 42.773 39.8387C42.2267 40.3637 41.152 40.4843 40.4389 40.3449C40.0304 40.2651 39.656 40.1118 39.3253 39.8892C39.3231 39.9307 39.3217 39.9723 39.3184 40.0138L39.3121 40.0858C39.2573 40.668 39.0973 41.4002 38.645 41.7791C37.9032 42.4006 36.9878 41.2053 37.7085 40.5845L37.7309 40.5659C38.1789 40.2039 38.2766 39.2327 38.2525 38.6978C38.2367 38.3486 38.1731 37.995 38.0628 37.6625L38.0402 37.5962C38.007 37.5023 37.6452 36.6113 37.5144 36.7247L37.5082 36.7311C37.4543 36.7955 37.3672 36.7205 37.4086 36.6524ZM41.4419 31.9634C42.1238 32.3779 43.1628 33.3444 42.4292 34.372C41.5658 35.2781 40.3225 34.2392 39.7099 33.7694C39.1418 33.4052 38.5035 34.3417 39.0306 34.7669C43.4576 38.0445 45.2541 32.0718 41.7868 31.4761C41.405 31.4104 41.2632 31.8352 41.4419 31.9634ZM34.1603 28.1321C34.8267 28.0139 35.5094 28.1796 36.0609 28.5696L36.1027 28.5996C36.634 28.9882 37.2284 29.6705 36.9235 30.3402C36.8012 30.6091 36.4347 30.6513 36.2022 30.5294C35.8151 30.3264 35.7449 29.8269 35.3995 29.5505C35.1162 29.324 34.7348 29.1865 34.3699 29.2197C33.5129 29.2975 32.9857 30.1428 32.7195 30.8713C32.6854 30.9645 32.5486 31.0007 32.4952 30.9006C31.8675 29.7274 32.9786 28.3418 34.1603 28.1321ZM44.835 27.6894C46.1116 27.5842 47.6059 28.9077 47.2698 30.2552C47.1086 30.9017 46.1495 30.8832 45.979 30.2552C45.8852 29.9096 45.8945 29.6038 45.6458 29.3168C45.4404 29.0799 45.1486 28.9422 44.835 28.9634C44.4893 28.9867 44.1705 29.1594 43.9282 29.4023C43.7094 29.6215 43.5785 29.9424 43.3519 30.1364C43.2961 30.1841 43.2214 30.1872 43.1663 30.1364C42.7762 29.7767 43.0104 29.0279 43.2577 28.6525C43.6117 28.1152 44.1881 27.7428 44.835 27.6894ZM31.7292 25.7423C32.5482 25.0173 34.0363 24.3172 35.1406 24.674C35.7755 24.8791 36.0523 25.9021 35.3435 26.2264C34.5227 26.6019 33.5765 26.4491 32.7411 26.8383C32.3902 27.0018 32.0603 27.2062 31.816 27.5059C31.6236 27.7421 31.4278 28.0529 31.1495 28.1891C31.0763 28.225 30.9773 28.2259 30.9187 28.1594C30.3086 27.4693 31.1965 26.2137 31.7292 25.7423ZM43.4274 24.638C43.9336 24.4959 44.4951 24.4988 45.0092 24.5881C45.5232 24.6773 46.0451 24.8903 46.4647 25.201L46.5135 25.2374C46.9716 25.5826 47.5183 26.0849 47.489 26.6964C47.4645 27.2071 46.9273 27.5525 46.4635 27.2849C46.0854 27.0666 45.9075 26.6293 45.5874 26.3382C45.3232 26.0979 45.0129 25.9085 44.6819 25.7757C44.3142 25.6283 43.9458 25.5592 43.5512 25.5526C43.2473 25.5475 42.9417 25.6472 42.6435 25.6791C42.668 25.7295 42.4324 25.706 42.2973 25.6613C42.1972 25.6187 42.1967 25.4922 42.2313 25.4101C42.4034 25.0034 43.0293 24.7496 43.4274 24.638Z" fill="black"/>
<path fill-rule="evenodd" clip-rule="evenodd" d="M49.1876 29.738C48.3786 35.4724 42.7309 36.1066 41.7274 30.4137C41.8885 30.3398 42.0043 30.1943 41.9801 29.9119C41.9744 28.6713 42.3419 27.36 43.41 26.6701C44.5137 25.9582 45.8053 25.8876 47.0825 25.9055C49.5199 25.8447 49.4686 27.9795 49.1876 29.738ZM40.8432 27.244C40.0783 27.2102 39.1106 27.2385 38.4253 27.7268C38.237 27.1953 37.7475 26.6277 37.2529 26.3242C39.0911 26.3806 40.9833 26.191 42.8353 26.0438C42.392 26.3605 41.9796 26.8362 41.7115 27.3862C41.4628 27.2472 41.1066 27.2602 40.8432 27.244ZM37.4716 30.3459C35.3505 37.9963 30.0561 34.6618 29.4789 33.6813C28.4377 32.0589 28.2419 28.1149 29.1488 27.0604C30.4469 26.1068 32.2847 26.3522 33.8183 26.3288C36.6357 26.3686 38.6367 27.2518 37.4716 30.3459ZM51.6921 26.8272C51.1158 26.7483 50.5 26.7323 49.9642 26.9982C49.7992 26.2635 49.2813 25.6492 48.6966 25.3789C48.6258 25.2859 48.6364 25.2359 48.3946 25.2498C46.91 24.7823 45.2487 25.0297 43.8221 25.5091C41.5689 25.708 39.2049 25.8647 36.9328 26.1387C34.8044 25.1371 28.3811 24.9903 27.9819 27.459C27.4798 27.3803 26.6247 26.9662 26.2028 27.5279C23.1079 26.9781 19.91 27.7422 16.8016 28.0825C16.0192 28.2335 15.6162 29.8606 16.5044 29.8383C17.0037 29.6963 16.489 28.8252 17.1614 28.7596C20.1604 28.4164 23.0938 27.9295 26.1235 27.8725C26.0181 28.4207 28.1274 28.4563 28.1585 28.1362C28.163 28.1386 28.1678 28.1402 28.1724 28.1424C27.6512 30.1778 28.1216 33.107 29.0636 34.3691C30.3833 36.0218 33.6966 36.4959 35.1658 35.4326C37.061 34.4512 39.0325 29.5248 38.4787 27.8881C39.4838 27.5543 40.4774 27.6545 41.5205 27.8246C41.2817 28.5314 40.8695 30.2714 41.4625 30.4223C41.3537 33.8769 44.354 36.0324 47.1199 34.6153C49.5139 33.4377 50.3511 29.7103 50.0582 27.4479C50.3562 28.0513 52.8586 27.3944 51.6921 26.8272Z" fill="black"/>
</svg>
