<svg width="68" height="68" viewBox="0 0 68 68" fill="none" xmlns="http://www.w3.org/2000/svg">
<circle cx="34" cy="34" r="34" fill="white"/>
<path fill-rule="evenodd" clip-rule="evenodd" d="M27.2014 6.01292C27.7768 5.92652 28.2113 6.28349 28.418 6.78665L28.4288 6.81374C28.4952 6.98494 28.5692 7.15147 28.6487 7.31519C30.0885 6.60885 32.1429 6.79035 33.0541 8.22079C33.7043 9.2424 33.3077 10.4549 33.0625 11.5382L32.9016 12.252C33.2127 12.45 33.4472 12.8044 33.4362 13.1715L33.4349 13.1997L33.3694 14.1951C33.5771 13.9846 33.767 13.7554 33.9363 13.5113C34.0533 13.297 34.1796 13.0865 34.3152 12.8826C35.1132 11.6823 36.9048 12.7254 36.2462 14.0108C36.1199 14.2588 35.9777 14.4936 35.8252 14.72C35.6531 15.054 35.5118 15.3973 35.4033 15.75C35.7148 15.8857 35.9543 16.1869 35.9796 16.6416C36.0385 17.7034 35.4809 18.5894 34.594 19.146C34.333 19.3097 34.0636 19.3415 33.8194 19.2807C33.7764 19.3387 33.7333 19.3967 33.6922 19.4557C34.0458 19.7429 34.3648 20.0703 34.6389 20.4333C35.4641 20.3098 36.2939 20.2518 37.1237 20.25C38.1378 19.7532 39.3522 19.7635 40.4421 19.9496C41.1437 20.0694 41.8173 20.3023 42.5078 20.4698C43.2356 20.6457 43.9747 20.6522 44.7109 20.772C45.639 20.9226 46.4529 21.3511 46.9647 22.035C47.5269 22.0518 48.1182 22.2819 48.6084 22.5944C49.7498 23.3223 50.8846 24.0604 52.0231 24.7929C52.4601 25.0742 52.6235 25.5231 52.5431 26.0239L52.5377 26.0559L52.4993 26.2636L52.5894 26.3914C52.9378 26.8835 53.3169 27.3989 53.5424 27.942C53.9597 28.5435 54.3367 29.1741 54.6707 29.8243C55.1207 30.6981 55.4921 31.6242 55.7438 32.5747C55.8064 32.8152 55.8691 33.0575 55.9103 33.3026C55.9692 33.6487 55.8785 33.9172 55.8289 34.2494C55.7671 34.6704 55.7447 35.097 55.6792 35.5189C55.6352 35.7986 55.3976 35.9361 55.1488 35.9436C55.2423 36.6556 55.3097 37.3722 55.3742 38.0832C55.465 39.0992 55.5267 40.118 55.58 41.1368C55.8551 41.5363 56.4173 41.8525 56.8234 41.9619C57.3856 42.1126 57.975 41.9488 58.5064 41.7571C58.8404 41.6364 59.1145 42.0564 58.9517 42.3371C58.44 43.2184 57.3454 43.2146 56.5165 42.8245C56.1657 42.6599 55.8579 42.4213 55.6296 42.1107C55.6437 42.4063 55.6586 42.702 55.6736 42.9985L55.6875 43.2671C55.8561 46.4042 56.2199 49.6491 55.6306 52.7553C54.6099 58.1355 50.1574 62.2322 44.7184 62.5504C41.8643 62.7173 39.4875 61.8743 38.3056 61.404C37.1237 60.9337 37.5831 59.9749 38.4036 60.249C39.817 60.7212 42.4135 61.4246 44.7371 61.1209C50.2138 60.4049 54.8578 57.6676 54.3807 45.8781C54.313 44.2062 54.1047 42.5336 54.0598 40.8618C54.0168 39.2274 54.0327 37.592 53.9606 35.9586L53.9366 35.4013C53.9085 34.7501 53.8784 34.0958 53.8296 33.4439C53.7707 33.1913 53.7221 32.9349 53.65 32.687C53.4545 32.0125 53.1991 31.3567 52.8819 30.7308C52.8118 30.7841 52.7332 30.8225 52.6481 30.8375C52.0016 30.9535 51.3954 30.9207 50.7901 30.6513C50.5075 30.5268 50.2587 30.3613 50.0267 30.1564C49.9163 30.06 49.8424 29.9665 49.7844 29.8692C49.4916 29.8738 49.1987 29.7859 49.0154 29.5754C48.8062 29.3355 48.7714 29.0877 48.8534 28.8583L48.8619 28.8354L48.8414 28.8279C48.5944 29.4669 48.1023 30.0291 47.5625 30.409C46.7093 31.0115 45.6418 31.1855 44.6183 31.2014C43.4882 31.2182 42.2963 31.0442 41.1812 30.8665C40.8865 30.8197 40.5936 30.7663 40.3064 30.6943C40.2952 30.7055 40.284 30.7186 40.2718 30.7299C39.3148 31.6458 37.9685 31.8815 36.7542 31.3585C36.0525 31.0564 35.4641 30.5699 34.9439 30.0123C34.9364 30.3042 34.9215 30.5961 34.8962 30.8852L34.8857 31C34.834 31.5384 34.7343 32.1095 34.3274 32.498C33.6697 33.1277 32.7155 32.8751 31.9567 32.4653C31.9577 32.4849 31.9577 32.5055 31.9577 32.5261C32.1626 33.2221 32.3684 33.9191 32.5742 34.6161L32.6185 34.7646C32.7682 35.2595 32.9323 35.755 32.9774 36.2729C33.0635 37.2627 32.4049 38.2404 31.3047 37.9083C30.7276 37.7347 30.2652 37.2494 29.8216 36.8608L29.5421 36.6191C30.2653 38.9832 30.7667 41.4315 30.8135 43.8985C30.8163 44.0323 30.7012 44.1333 30.574 44.138C30.2765 44.1502 29.9566 44.0912 29.6572 43.9724C29.6403 43.9715 29.6235 43.9705 29.6057 43.9677C29.0949 43.8938 28.6206 43.7095 28.2024 43.4373C28.2988 43.7432 28.3418 44.0716 28.3166 44.4149C28.31 44.4982 28.18 44.5272 28.1613 44.4355C27.9199 43.2483 26.5306 42.3511 25.3331 42.5785C24.0477 42.8226 23.1009 43.9284 22.8689 45.1867C22.6201 46.5386 23.0962 48.1019 23.9785 49.145C24.3845 49.6259 24.9187 50.0272 25.553 50.1283C25.843 50.1741 26.1442 50.1582 26.4258 50.0759C26.5456 50.0403 26.6578 49.9907 26.772 49.944C26.9385 49.8766 27.1331 49.8663 27.2903 49.7952C27.6467 49.6352 28.005 49.9636 27.8245 50.3294C27.6673 50.6484 27.526 50.8636 27.265 51.0283C27.4764 51.2865 27.6682 51.6457 27.7393 51.7421C28.1023 52.2323 28.4709 52.6954 28.8844 53.1435C29.3054 53.5982 29.7648 54.0136 30.2503 54.3981L30.4544 54.5593C30.9221 54.9303 31.3293 55.274 31.6592 55.8061C31.9193 56.2261 31.5825 56.7959 31.0951 56.7893C29.5702 56.7678 28.4616 55.4281 27.672 54.2577C27.5597 54.0903 27.454 53.9135 27.3558 53.732C27.3202 53.789 27.2809 53.8424 27.2369 53.891L27.3239 54.1249C27.5822 54.8134 26.4698 55.2634 26.147 54.6207C25.9122 54.1548 25.64 53.7114 25.3369 53.2923C25.1582 53.267 24.9832 53.1585 24.8859 53.0182C24.6399 52.6617 24.3639 52.3015 24.131 51.9217C24.0019 51.7991 23.869 51.6813 23.7333 51.5662C23.6941 51.6008 23.6538 51.6354 23.6155 51.6719C23.4452 52.0602 23.2347 52.4147 22.9737 52.7487L22.9177 52.82C22.4177 53.4502 21.7664 54.0952 20.9604 54.2493C20.7144 54.2961 20.4777 53.9902 20.6957 53.7946C21.2598 53.2876 21.9268 52.9424 22.447 52.3764C22.7033 52.0975 22.9386 51.7904 23.1409 51.4686L23.187 51.3941C23.2207 51.3389 23.2553 51.2837 23.2908 51.2275C23.056 51.0676 22.8212 50.9066 22.5864 50.7457C21.94 51.298 21.0981 51.5506 20.3831 52.0081L20.3121 52.0545C19.6656 52.4868 18.9846 51.5306 19.5028 51.0058C20.0742 50.4294 20.5511 49.7421 21.0572 49.1014C20.8192 48.663 20.7066 48.1446 20.6644 47.6207C20.6478 47.4725 20.6348 47.3241 20.6217 47.1757C20.2588 47.1813 19.8939 47.0569 19.5852 46.8427L19.4682 46.7594C19.0931 46.8791 18.6992 46.9371 18.3222 46.9269C17.4353 46.9007 17.0723 45.8875 17.6271 45.2466C18.1931 44.5917 19.1838 44.4486 19.9687 44.7667C19.994 44.7536 20.0202 44.7396 20.0455 44.7255C20.008 44.5534 20.0164 44.3972 20.0589 44.2601L20.0466 44.1765C19.874 43.9116 19.7605 43.6092 19.7175 43.2898C19.6834 43.0367 19.6903 42.7859 19.7489 42.536C19.7683 42.4528 19.8089 42.3667 19.8398 42.2799C19.776 42.1188 19.7385 41.9523 19.7269 41.7849C19.709 41.7636 19.6913 41.7418 19.6744 41.7182C19.285 41.1714 19.3636 40.5125 19.7343 40.07C19.736 40.0418 19.7386 40.0137 19.7424 39.9857C19.7207 39.9369 19.7008 39.8876 19.6827 39.8377C19.3205 39.4724 19.0546 39.0328 19.1042 38.488C19.1333 38.1675 19.265 37.879 19.4644 37.6633C19.429 37.5587 19.4257 37.4376 19.4685 37.3365C19.1503 36.4902 19.1906 35.4709 19.4196 34.5244C19.3691 34.3803 19.3429 34.2241 19.3485 34.0585C19.3747 33.3559 19.9828 32.7104 20.7031 32.7188C20.7899 32.7196 20.8711 32.7309 20.9491 32.7474L20.9501 32.7307C20.9777 32.5198 21.0357 32.325 21.1204 32.1501C21.0788 32.135 21.0402 32.1134 21.0064 32.0847C20.5448 32.3309 20.0564 32.5192 19.5443 32.6474C19.1677 32.7417 18.782 32.3137 19.0161 31.9603C19.1247 31.7963 19.2445 31.649 19.3736 31.5145C19.1901 31.5155 19.0037 31.528 18.8152 31.5522C18.4766 31.5962 18.0986 31.3651 17.8787 31.0526C17.6056 31.3183 17.3315 31.5831 17.0573 31.8478C16.3632 32.5205 15.3144 32.0256 15.205 31.1387C14.9982 31.0835 14.8055 30.9899 14.6362 30.8562C13.5416 31.3314 12.3637 31.5924 11.1597 31.642C10.2953 31.6776 9.79007 30.6709 10.1942 29.9599C10.4655 29.4828 10.8023 29.0543 11.1906 28.682C10.5881 28.8663 9.96596 28.9991 9.33072 29.0842C8.98738 29.1301 8.50184 28.8457 8.36431 28.5304C7.83854 27.318 7.88345 26.054 8.48874 24.8743C8.51213 24.8275 8.53832 24.7826 8.56358 24.7377C8.62626 24.5815 8.69456 24.4271 8.76847 24.2756C8.02378 23.4991 7.95922 22.3446 8.36057 21.3782C8.19966 21.1172 8.13791 20.8029 8.24737 20.5185C8.5589 19.6999 9.00796 18.9439 9.5749 18.2947C9.52064 18.1899 9.47293 18.0786 9.4327 17.9588C9.11368 16.9905 9.48322 15.822 10.2288 15.1475C10.6975 14.7228 11.2364 14.4683 11.8118 14.3055C12.0541 13.8771 12.3656 13.4907 12.7286 13.1651C12.7426 13.1342 12.7567 13.1034 12.7726 13.0725C13.3376 12.0079 14.3667 11.4372 15.4697 11.3053C15.5128 10.8889 15.7934 10.4913 16.2013 10.3622C16.3136 10.0021 16.4811 9.65778 16.7112 9.34531C17.0732 8.85321 17.6748 8.6212 18.2417 8.94396C18.5523 9.12078 18.8498 9.32379 19.1286 9.54832C19.2538 9.4896 19.3958 9.4516 19.556 9.43948L19.5964 9.43699L20.5188 9.39021C20.9052 9.21901 21.2907 9.03939 21.677 8.86444C21.909 8.67265 22.1682 8.51268 22.4507 8.39386C22.7707 8.26008 23.0981 8.1843 23.4265 8.15904C23.6931 8.07204 23.9616 7.99532 24.2348 7.93545C24.8766 7.79512 25.5483 7.71653 26.2144 7.72308C26.228 7.55068 26.2348 7.37621 26.2335 7.19968L26.2322 7.11124C26.2172 6.54524 26.6691 6.09337 27.2014 6.01292ZM26.5549 51.2977C26.4633 51.3173 26.3706 51.3332 26.278 51.3445C26.3061 51.4137 26.3341 51.4829 26.3613 51.5522C26.4361 51.5943 26.5119 51.6345 26.5877 51.6719C26.5652 51.5447 26.5521 51.4165 26.5549 51.2977ZM21.7484 49.8694L21.6862 49.9839C21.6761 50.0027 21.6662 50.0212 21.6565 50.0394C21.7884 50.0291 21.9212 50.0319 22.0522 50.0469L22.0518 50.0329C22.035 50.0272 22.0181 50.022 22.002 50.0141C21.9117 49.9707 21.8277 49.9221 21.7484 49.8694ZM24.3461 44.6441C25.1738 44.6924 25.8751 44.8193 26.6278 45.1813L26.6925 45.213C27.3576 45.5432 28.4578 46.1532 28.3652 47.0279C28.339 47.2768 28.1584 47.5387 27.874 47.5191C27.0947 47.4657 26.6494 46.6799 26.1218 46.1897C25.5895 45.6957 24.9355 45.1877 24.2909 44.8481C24.1998 44.8003 24.2357 44.649 24.3349 44.6441L24.3461 44.6441ZM20.5927 33.1192C20.3944 33.1258 20.4608 33.3185 20.5628 33.1576C20.5712 33.1445 20.5815 33.1314 20.5927 33.1192ZM31.2987 20.2535C29.4203 20.3029 27.5299 21.412 26.1227 22.533C24.8986 23.5083 23.8415 24.6684 22.9055 25.9188C22.6647 26.5415 22.4579 27.1772 22.2833 27.8175C22.1682 28.2404 22.0962 28.6679 21.9998 29.0945L21.9699 29.2253C21.8942 29.3668 21.8379 29.519 21.797 29.6763C21.9675 29.8473 22.1888 29.9697 22.4324 30.0278C22.5109 30.0465 22.5761 30.0871 22.6276 30.1408C22.8237 29.8135 22.9951 29.4681 23.0948 29.1019L23.0985 29.085C23.4754 28.4676 23.8848 27.8695 24.3237 27.2918C25.5343 25.6967 26.8674 24.2428 28.47 23.0332C29.6853 22.1164 31.0437 21.3979 32.4881 20.931C32.1346 20.6458 31.7331 20.4201 31.2987 20.2535Z" fill="black"/>
<path fill-rule="evenodd" clip-rule="evenodd" d="M46.8001 51.6365C46.865 51.619 46.9222 51.7062 46.8684 51.7539C46.6481 51.9493 46.5083 52.3134 46.3476 52.5616C46.1947 52.7977 46.0473 53.0314 45.9129 53.2786C45.7622 53.5556 45.6166 53.8316 45.4993 54.1247L45.4761 54.1838C45.5112 54.2674 45.5387 54.35 45.5589 54.4041L45.5648 54.4194C45.7652 54.9311 45.3446 55.4999 44.8701 55.6429C44.0587 55.8875 43.3624 55.2212 43.3431 54.4287C43.3278 53.8052 43.7504 53.2497 44.1798 52.8376C44.5554 52.4771 44.9761 52.1703 45.4465 51.9455C45.6541 51.8464 45.8698 51.7635 46.0951 51.7154C46.3257 51.6663 46.5743 51.6975 46.8001 51.6365ZM45.2707 53.8959C45.3302 53.9239 45.381 53.9925 45.4237 54.0726C45.4024 54.0047 45.3583 53.9371 45.2707 53.8959ZM45.7784 45.2334C46.4848 45.6628 47.5613 46.6641 46.8013 47.7287C45.9067 48.6674 44.6187 47.5911 43.984 47.1044C43.3955 46.7272 42.7342 47.6974 43.2803 48.1379C47.8666 51.5334 49.7279 45.3457 46.1357 44.7285C45.7402 44.6605 45.5933 45.1006 45.7784 45.2334ZM39.9712 41.11L40.096 41.0996C40.6374 41.0519 41.1856 40.9791 41.7195 41.1016C42.4368 41.2663 42.3842 42.3098 41.7195 42.5017C41.1337 42.6707 40.4845 42.5975 39.8798 42.6033C39.7846 42.6043 39.6897 42.6067 39.5946 42.6083C39.5759 42.8344 39.5017 43.0294 39.3882 43.2242C39.3068 43.3639 39.2029 43.4967 39.1008 43.6208C38.8579 43.9159 38.2851 43.9093 38.04 43.6208C37.8586 43.4073 37.7143 43.1618 37.712 42.8728C37.7114 42.7988 37.7204 42.7202 37.7381 42.6429L37.408 42.6487C36.6001 42.661 35.7861 42.6555 34.9929 42.5272C34.7107 42.5856 34.4799 42.0765 34.8693 41.9241C35.9281 41.51 37.1109 41.3881 38.2344 41.2637C38.8117 41.1998 39.3922 41.1557 39.9712 41.11ZM48.9909 40.6821L49.0197 40.6793C49.7203 40.6075 50.4926 40.4833 51.1946 40.5548C52.2428 40.6613 52.241 42.0783 51.1946 42.1843C50.8105 42.2232 50.4058 42.2043 50.0022 42.1671C50.2085 42.6047 49.9637 43.1274 49.4667 43.1942C49.0048 43.2562 48.526 42.8074 48.6776 42.3259L48.6847 42.3047C48.7142 42.2211 48.7408 42.1278 48.7723 42.0356L48.6052 42.0215C48.1055 41.9774 47.412 41.8871 47.2281 41.4926C47.1726 41.3737 47.1854 41.2633 47.2709 41.1617C47.6211 40.7448 48.4845 40.7311 48.9909 40.6821ZM41.5406 37.4379C42.0477 37.2537 42.5747 37.6848 42.6405 38.1706C42.7162 38.7304 42.3124 39.099 41.8006 39.1659L41.7749 39.169C40.6451 39.2934 39.5239 39.521 38.3926 39.6496C37.8789 39.7079 37.3612 39.7463 36.844 39.7601L36.4743 39.7684C36.0214 39.7799 35.5356 39.7902 35.1174 39.6342L35.119 39.6314C35.0079 39.5993 34.9569 39.4391 35.0805 39.3515C35.5257 39.0367 36.1258 38.9177 36.6441 38.7681C37.1652 38.6176 37.6901 38.4789 38.2165 38.3485C39.3217 38.0752 40.4698 37.8269 41.5406 37.4379ZM46.2171 37.5688C46.3514 36.8605 47.3548 36.7845 47.7233 37.2999C47.9615 37.3816 48.3107 37.467 48.5271 37.5311C48.9041 37.6429 49.2814 37.7541 49.6596 37.8618C50.4426 38.0848 51.2068 38.3675 51.9766 38.6311C52.056 38.6583 52.0342 38.7589 51.9579 38.769C50.8834 38.9088 49.8269 38.9739 48.7459 38.929L48.5242 38.9191C47.5717 38.8819 45.9546 38.9527 46.2171 37.5688Z" fill="black"/>
</svg>
