<svg width="68" height="68" viewBox="0 0 68 68" fill="none" xmlns="http://www.w3.org/2000/svg">
<circle cx="34" cy="34" r="34" fill="white"/>
<path fill-rule="evenodd" clip-rule="evenodd" d="M22.65 11.2132C27.2485 8.65354 32.7389 7.57912 37.9652 8.14895C40.5819 8.43539 43.1915 9.08473 45.4871 10.4099C47.5809 11.6169 49.2944 13.3926 50.4219 15.5301C51.4953 17.5669 52.0376 19.9023 52.0977 22.1979C52.1283 23.358 52.0142 24.5191 51.7909 25.6577C51.6798 26.2265 51.5115 26.8565 51.6462 27.4355C51.7767 27.9961 52.3037 28.3091 52.6982 28.6822C54.4658 30.355 55.3353 32.8932 54.9979 35.2959C54.7074 37.3682 53.4515 39.5323 51.6125 40.6353C51.8908 40.9534 52.1058 41.3367 52.2527 41.7118C52.6126 42.6353 52.5871 43.6241 52.1946 44.5304C51.794 45.4539 50.9948 46.5752 50.0865 47.0574C49.637 47.2949 49.109 47.3774 48.6258 47.2235C48.3281 50.4774 47.4301 53.5834 45.1008 56.0839C43.2272 58.0962 40.6737 59.4937 37.9428 59.877C36.4585 60.0839 34.9366 60.0238 33.4657 59.7413C32.7735 59.6089 32.0925 59.4141 31.4351 59.1604C30.7042 58.878 29.9672 58.5977 29.4361 58.0043C28.8815 57.3857 29.4228 56.4539 30.2362 56.6313C31.0039 56.7985 31.6767 57.2328 32.4208 57.4876C33.1119 57.7231 33.8327 57.9055 34.5574 58.0003C36.008 58.192 37.4973 58.037 38.8979 57.6261C41.164 56.9606 43.2668 55.4968 44.6421 53.5712C46.2241 51.357 46.8714 48.6986 47.1068 46.0217C47.3771 42.9401 47.271 39.8321 47.2975 36.7423C47.3118 35.1144 47.2975 33.4865 47.3088 31.8596C47.32 30.3091 47.2782 28.7617 47.376 27.2153C47.3066 27.2019 47.2354 27.1724 47.165 27.1205C46.4321 26.5884 45.8572 25.832 45.1569 25.2489C44.4494 24.6597 43.6818 24.1429 42.8826 23.6883C39.8928 21.9859 36.4351 21.255 33.0121 21.311C31.1293 21.3417 29.2822 21.5884 27.4422 21.9808L21.7378 23.5048C20.5665 22.6903 19.2414 22.1174 17.9498 21.517C17.8152 22.0481 17.4309 22.5578 17.1934 23.0287C16.8783 23.6526 16.5879 24.2897 16.331 24.9401C15.8132 26.2489 15.3983 27.6056 15.0854 28.9788C14.7944 30.2577 14.6239 31.5542 14.4605 32.8531L14.4116 33.2428C14.3239 33.9432 14.2271 34.6526 14.1883 35.357C14.1669 35.7372 14.1751 36.1195 14.169 36.4996C14.1638 36.7597 14.0782 37.3081 14.3035 37.5527C14.3219 37.5721 14.3412 37.5894 14.3636 37.6047C15.5961 37.2316 17.013 37.6404 17.5767 38.9034C17.6124 38.9829 17.5247 39.0533 17.4564 38.9962C16.3076 38.0339 14.3157 38.5813 13.6868 39.8881C13.3932 40.4966 13.3494 41.2337 13.5002 41.8861C13.6786 42.6537 14.1556 43.2928 14.4534 44.0134C14.6205 44.4182 14.7011 44.8199 14.7653 45.25C14.805 45.5161 14.8234 45.8922 15.0171 46.0982C15.223 46.3173 15.6236 46.3459 15.8998 46.408C16.2842 46.4947 16.6552 46.5997 17.0058 46.7832C18.3749 47.4988 19.0752 49.1705 20.0477 50.302C20.6072 50.9533 21.2159 51.5649 21.8652 52.1277C22.487 52.667 23.4829 53.1094 23.5675 54.0003C23.5961 54.2949 23.3331 54.5854 23.066 54.6588C22.4014 54.8423 21.9254 54.3867 21.44 54.0033C20.9906 53.6486 20.5574 53.2735 20.1444 52.877C19.327 52.0931 18.591 51.2276 17.9294 50.3102C17.4512 49.6466 17.0517 48.7893 16.3657 48.3092C15.6654 47.8199 14.7203 47.9462 14.0344 47.3785C13.2056 46.6924 13.3728 45.7597 13.1312 44.8289C12.8978 43.934 12.2841 43.1929 12.0976 42.2735C11.7653 40.6281 12.2637 38.6129 13.8693 37.8025C13.9661 37.7536 14.066 37.7097 14.1669 37.6719C14.1363 37.6496 14.1078 37.6241 14.0823 37.5955C13.9008 37.3988 13.8275 37.0675 13.7693 36.8168C13.5859 36.0339 13.4839 35.2204 13.3759 34.4243C13.1537 32.8055 13.2709 31.1603 13.5308 29.5527C13.7745 28.04 14.1567 26.5588 14.6786 25.1195C14.4972 24.9941 14.3535 24.8086 14.2739 24.573C14.1017 24.0726 14.2566 23.5619 14.3554 23.0583C14.385 22.9044 14.4177 22.7504 14.4513 22.5965C14.3738 17.6198 18.5502 13.4945 22.65 11.2132ZM14.6908 41.2296C15.3871 41.2183 15.9784 41.351 16.5838 41.724C17.1638 42.0829 17.7031 42.6007 17.9651 43.2368C18.1822 43.7627 17.3116 44.1084 17.0568 43.6191C16.7948 43.1164 16.6001 42.6485 16.1801 42.247C15.7816 41.8647 15.2056 41.516 14.6746 41.352C14.6073 41.3306 14.6205 41.2306 14.6908 41.2296Z" fill="black"/>
<path fill-rule="evenodd" clip-rule="evenodd" d="M36.8609 50.9085C37.6314 50.8013 38.46 50.3649 39.196 50.7196C39.54 50.8853 39.7033 51.4522 39.4707 51.7673C39.1154 52.2485 38.7487 52.3281 38.172 52.3744C37.7397 52.4091 37.305 52.4116 36.8738 52.3618L36.7642 52.3483C35.9948 52.249 35.1951 52.0343 34.599 51.5172C34.4771 51.4114 34.5396 51.1829 34.6961 51.1498C35.4039 51.0009 36.1444 51.0083 36.8609 50.9085ZM35.954 49.1343C35.9537 49.1281 35.9632 49.1281 35.9635 49.1343C35.9821 49.5746 36.1059 49.9829 36.3346 50.3597C36.3378 50.3651 36.3295 50.3699 36.3264 50.3646C36.0975 49.9875 35.9727 49.5751 35.954 49.1343ZM38.3829 40.0457C39.1526 40.5135 40.3255 41.6046 39.4974 42.7646C38.5227 43.7873 37.1193 42.6147 36.4277 42.0843C35.7864 41.6733 35.0659 42.7304 35.6609 43.2104C40.6582 46.9102 42.6863 40.168 38.7722 39.4955C38.3412 39.4214 38.1812 39.9009 38.3829 40.0457ZM42.3227 34.8094C42.5035 34.8094 42.6763 34.8708 42.8338 34.9843C42.9887 35.0961 43.129 35.2591 43.2459 35.4625C43.467 35.8474 43.6052 36.3788 43.6052 36.9664C43.6052 37.554 43.467 38.0855 43.2459 38.4704C43.129 38.6737 42.9887 38.8368 42.8338 38.9485C42.6763 39.0621 42.5035 39.1234 42.3227 39.1234C42.142 39.1234 41.9691 39.0621 41.8116 38.9485C41.6567 38.8368 41.5164 38.6737 41.3996 38.4704C41.1785 38.0855 41.0402 37.554 41.0402 36.9664C41.0402 36.3788 41.1785 35.8474 41.3996 35.4625C41.5164 35.2591 41.6567 35.0961 41.8116 34.9843C41.9691 34.8708 42.142 34.8094 42.3227 34.8094ZM33.9519 35.4088L34.0199 35.3959C34.417 35.3237 34.6176 35.348 34.9633 35.6186C35.2232 35.8219 35.1487 36.2225 34.9633 36.4363C34.6403 36.809 34.3248 36.743 33.8824 36.7572L33.8513 36.7583C33.4826 36.7733 33.1136 36.7838 32.7446 36.7894C32.6436 36.7911 32.5426 36.7907 32.4417 36.7913C32.4524 37.7251 31.914 38.4361 31.2049 38.9767C30.7466 39.3262 30.1669 38.923 30.0034 38.4879C29.8681 38.1279 29.839 37.6852 29.9092 37.291C29.9351 37.1457 29.9893 36.9879 30.0721 36.8534L30.0954 36.8174L30.0916 36.7658C30.0907 36.753 30.0916 36.7407 30.0912 36.728C29.433 36.688 28.7785 36.622 28.1243 36.539L27.9062 36.5107C27.3478 36.4368 26.5277 36.4131 26.0758 36.0499C26.0615 36.0383 26.0666 36.0129 26.0817 36.0048C26.3301 35.871 26.5822 35.8786 26.86 35.8663L26.8999 35.8644C27.202 35.8488 27.5035 35.8357 27.8054 35.8254L28.1076 35.8159C28.8805 35.7938 29.6541 35.7563 30.4263 35.7152C30.5605 35.7081 30.6948 35.6996 30.8293 35.6914C30.9698 35.6324 31.1193 35.5972 31.2669 35.5906C31.3892 35.5851 31.5068 35.6021 31.6174 35.6372C31.8995 35.6154 32.1813 35.5917 32.463 35.5662L32.7446 35.5401C33.1419 35.5023 33.5596 35.4858 33.9519 35.4088ZM38.8315 28.4098C39.6809 27.9923 40.7138 27.9821 41.5886 28.3276L41.6466 28.3511C42.5301 28.7177 43.5947 29.5647 43.3642 30.6196C43.1533 31.5851 41.6388 31.4215 41.5621 30.5089C41.0731 29.8314 39.9766 29.6828 39.2873 30.1135C38.8692 30.3749 38.5823 30.815 38.3861 31.2588C38.2189 31.6368 38.1874 32.1036 37.9307 32.4328C37.9223 32.4435 37.9056 32.4455 37.8935 32.4426C37.1277 32.2654 37.11 31.0486 37.2406 30.4584C37.4303 29.6003 38.0391 28.7994 38.8315 28.4098Z" fill="black"/>
</svg>
