<svg width="68" height="68" viewBox="0 0 68 68" fill="none" xmlns="http://www.w3.org/2000/svg">
<circle cx="34" cy="34" r="34" fill="white"/>
<path fill-rule="evenodd" clip-rule="evenodd" d="M50.2154 28.2144C50.1828 28.0298 50.4408 27.8921 50.5406 28.0792C51.2656 29.4382 51.556 31.0122 51.8128 32.5133C52.0722 34.0303 52.2436 35.5535 52.2531 37.0934C52.2603 38.278 52.1512 39.4762 51.9464 40.6616L51.9713 40.746C52.0173 40.9009 52.0637 41.0557 52.1106 41.2104L52.1814 41.4424C52.3182 41.8879 52.4478 42.3354 52.5883 42.7797C52.8816 43.7071 53.1905 44.6371 53.5689 45.5345C53.938 46.4103 54.387 47.2548 54.9207 48.0442C55.4351 48.8051 56.2513 49.4485 56.6137 50.2937C56.74 50.5882 56.5532 50.9775 56.2044 50.9305C56.1817 50.9574 56.1471 50.977 56.1002 50.981C55.8293 51.0043 55.5755 50.9822 55.3052 50.9572C55.1544 50.9432 55.1546 50.7399 55.3052 50.7259C55.42 50.7153 55.5318 50.7059 55.6435 50.6996C54.8707 50.2481 54.3193 49.3665 53.8784 48.6447C53.3119 47.7174 52.884 46.7043 52.5352 45.6797C52.1769 44.6277 51.9232 43.5538 51.7194 42.4634C51.696 42.3379 51.6738 42.2123 51.6524 42.0865C51.3948 43.166 51.0632 44.2257 50.6701 45.2441L50.615 45.3859C49.7088 47.7018 48.4815 50.04 46.4403 51.5708C46.3476 51.6402 46.253 51.7061 46.1576 51.7706L46.2737 51.8362C46.3893 51.9013 46.5032 51.9637 46.6145 52.0149C47.027 52.2046 47.4747 52.3493 47.9177 52.4517C48.8325 52.6636 49.7933 52.6029 50.7266 52.6324C51.0327 52.6421 51.2069 53.0946 50.8939 53.2415C49.8631 53.7255 48.7496 53.6228 47.6856 53.2823C47.159 53.1136 46.665 52.8776 46.2079 52.5695C46.0189 52.4422 45.7994 52.2851 45.6142 52.1034C43.5727 53.2295 41.0353 53.3556 38.7631 52.9528C37.5823 52.7434 36.4381 52.3612 35.4314 51.7073C34.4631 51.0785 33.7728 50.2824 33.2801 49.2509C33.2363 49.1595 33.3579 49.0456 33.4325 49.135C34.9804 50.9884 37.6442 51.7618 39.9876 51.9089C41.238 51.9875 42.5172 51.9222 43.7193 51.5534C44.8597 51.2033 45.8383 50.5618 46.6553 49.7086C48.3114 47.9791 49.3037 45.6264 50.0163 43.3873C50.7916 40.9515 51.1608 38.3887 51.237 35.8395C51.2755 34.548 51.227 33.2456 51.0212 31.9684C50.8172 30.7017 50.4384 29.4757 50.2154 28.2144ZM27.0076 17.2415C27.1173 17.1866 27.1945 17.3295 27.1015 17.3999C25.1713 18.8593 23.4427 20.7098 22.0436 22.6683C19.4634 26.2806 17.8086 30.4607 17.0466 34.8043C16.5967 37.3693 16.4792 39.9733 16.5241 42.5726C16.5419 43.6051 16.6017 44.6345 16.6683 45.6642L16.7434 46.8056C16.7783 47.3374 16.8074 47.8646 16.7849 48.399L16.7787 48.5225C16.743 49.1443 16.8051 49.7711 16.6469 50.3777C16.5657 50.6888 16.1207 50.7378 15.9596 50.4662C15.928 50.4131 15.8985 50.3582 15.8698 50.3029C15.4922 50.9101 15.0031 51.4529 14.4605 51.9378C14.7199 51.8834 14.9817 51.8487 15.2506 51.8804C15.6768 51.9307 16.0591 52.093 16.3296 52.3774C16.5981 52.258 16.8742 52.1759 17.1917 52.1742C17.4256 52.173 17.601 52.4456 17.4675 52.648C17.2013 53.0522 16.8299 53.2787 16.4078 53.5026C16.1087 53.6614 15.7517 53.5256 15.6413 53.2118L15.635 53.1927C15.5107 52.7958 14.8496 52.8599 14.5377 52.9213L14.4459 52.9398C13.8653 53.0589 13.2983 53.2113 12.7069 53.0541C12.3253 52.9527 12.2256 52.3865 12.5934 52.1985C13.7553 51.6049 14.7307 50.8076 15.7331 50.007C15.5118 49.472 15.3861 48.8743 15.2412 48.3303C15.0372 47.5646 14.9776 46.7407 14.9039 45.9541C14.7639 44.4587 14.7105 42.947 14.7255 41.4457C14.7764 36.3749 15.656 31.2883 17.9029 26.6965C18.8873 24.6851 20.1805 22.8238 21.7091 21.1763C23.2286 19.5385 25.0034 18.2452 27.0076 17.2415ZM25.2087 42.0746C25.1491 41.9932 25.2655 41.8854 25.3471 41.9382C27.1137 43.0823 28.3397 44.8195 29.1308 46.7279C29.9138 48.6173 30.3946 50.9315 29.6224 52.9017C29.4995 53.2155 28.9107 53.332 28.8504 52.9017C28.5812 50.9801 28.5394 49.0558 27.9474 47.1876C27.3605 45.3357 26.3563 43.6398 25.2087 42.0746ZM23.8389 48.313C23.8486 48.279 23.9048 48.2849 23.9024 48.3215C23.8581 48.9991 23.8281 49.6849 23.7417 50.3588C23.6997 50.6863 23.6441 51.0117 23.5969 51.3384C23.5484 51.6735 23.5557 52.0117 23.3581 52.2979C23.0962 52.6773 22.4005 52.5705 22.4239 52.0485C22.44 51.6883 22.6078 51.4572 22.7651 51.1411C22.866 50.9384 22.9539 50.7289 23.0386 50.5185L23.1646 50.2028C23.4149 49.5769 23.6544 48.9614 23.8389 48.313ZM20.6754 46.518C20.6861 46.4647 20.7733 46.4775 20.7707 46.5307C20.7236 47.4897 20.6138 48.438 20.442 49.3831C20.3637 49.8139 20.2723 50.2422 20.1757 50.6694L20.134 50.8523C20.0306 51.3022 19.964 51.8311 19.7325 52.233C19.5011 52.6346 18.9518 52.3429 19.023 51.9381C19.1061 51.4654 19.4004 50.9899 19.5714 50.536C19.7293 50.1169 19.8673 49.6904 19.9962 49.2619C20.2677 48.3599 20.4903 47.4409 20.6754 46.518ZM26.5665 49.1806L26.5871 49.1598C26.6675 49.0737 26.7874 49.1311 26.8258 49.222C26.9829 49.5945 26.9043 50.0339 26.893 50.4294L26.891 50.5156C26.8826 50.9163 26.8884 51.2916 26.7041 51.6615C26.4804 52.1106 25.8908 51.8316 25.8452 51.4321C25.7953 50.9961 26.0045 50.5693 26.1396 50.1609C26.2254 49.9014 26.2879 49.6315 26.4184 49.3959C26.3068 49.4149 26.1954 49.4529 26.0933 49.4803C26.0476 49.4925 26.0304 49.4263 26.074 49.411C26.2427 49.3521 26.4332 49.3079 26.5665 49.1806ZM50.0855 50.5027C50.0316 50.4433 50.0988 50.3641 50.1687 50.3963C51.0089 50.7831 51.7947 51.0348 52.7217 51.1172C53.1234 51.1529 53.1259 51.775 52.7217 51.739C51.7542 51.6531 50.7403 51.2254 50.0855 50.5027ZM20.527 37.4325C21.2667 35.7922 23.6067 34.337 25.1758 35.8625C25.2052 35.891 25.1753 35.9532 25.1326 35.9357C24.1566 35.537 22.9618 36.0441 22.2863 36.7695C21.7504 37.3449 21.4284 38.0838 21.3644 38.8625C21.3005 39.6419 21.4895 40.4554 22.0146 41.0582C22.29 41.3745 22.6619 41.6739 23.0996 41.7119C23.5415 41.7502 23.9098 41.4434 24.3276 41.3601C24.6425 41.2973 24.8802 41.4921 24.9111 41.7982C24.9792 42.4737 24.297 42.927 23.7057 43.0371C23.0697 43.1555 22.4205 43.0262 21.8724 42.6863C20.1022 41.5888 19.7204 39.2217 20.527 37.4325ZM37.1356 21.3545C37.4573 21.0514 38.0044 21.3527 37.8857 21.7851C37.6333 22.7052 37.0969 23.4829 36.5026 24.2211C35.9307 24.9312 35.3181 25.6137 34.6616 26.2489C34.0093 26.8799 33.3006 27.4637 32.5557 27.9853L32.3314 28.142C31.8035 28.5088 31.2444 28.8798 30.6535 29.1441C30.5108 30.3559 30.2317 31.5516 29.8094 32.6963C29.4027 33.7986 28.8851 34.8639 28.258 35.8609L28.168 36.0036C27.5917 36.9141 26.8988 37.9317 25.9209 38.4308C25.8916 38.4458 25.8622 38.455 25.8332 38.4604C26.052 38.6042 26.2368 38.7851 26.3467 39.045C26.4671 39.3295 26.2154 39.598 25.9742 39.6919C25.464 39.8907 24.9662 39.5543 24.5076 39.1954C24.4882 39.2384 24.4699 39.2819 24.4542 39.3257C24.3517 39.6123 24.3215 39.9051 24.057 40.0953C23.9313 40.1857 23.7765 40.1048 23.6974 40.0024C23.4381 39.6665 23.7065 39.2089 23.9345 38.9344C23.9661 38.8965 23.9987 38.8604 24.0322 38.8258C23.9359 38.756 23.8419 38.6941 23.7508 38.6465C23.2152 38.3669 22.4213 38.3173 22.1129 38.9364C22.0893 38.9839 22.015 38.9593 22.015 38.9102C22.0158 38.1498 22.8058 37.7369 23.4914 37.6807C23.9923 37.6398 24.4768 37.8129 24.9277 38.0146L25.0118 38.0527C25.1796 38.1295 25.3524 38.2019 25.5179 38.283C25.491 38.213 25.4914 38.1307 25.5337 38.049C26.0522 37.0507 26.9426 36.2389 27.5847 35.3144C28.2214 34.3971 28.7681 33.4155 29.2045 32.3905C29.6281 31.3956 29.9599 30.3695 30.1919 29.3229C30.1155 29.3385 30.0293 29.2714 30.0348 29.1927C30.0477 29.0024 30.1422 28.831 30.308 28.7579C30.4907 27.7735 30.584 26.7724 30.5785 25.7632C30.5781 25.6849 30.6931 25.6878 30.6998 25.7632C30.7805 26.6605 30.7871 27.5665 30.7192 28.4672C31.1507 28.0759 31.6057 27.7038 32.0211 27.3021C32.6462 26.6976 33.251 26.077 33.8343 25.4333C34.4295 24.7766 34.9921 24.0958 35.5065 23.3754L35.7758 22.9976C36.1897 22.4185 36.6149 21.8454 37.1356 21.3545ZM36.324 14.8892C39.874 14.6707 43.6654 15.1008 46.8542 16.7438C48.6054 17.646 49.9591 19.0096 50.9263 20.7066C51.5038 21.7199 51.9419 22.842 52.1079 23.9957C52.2783 25.1811 52.0782 26.2381 51.3105 27.1803C51.0056 27.5545 50.492 27.1365 50.5671 26.7537C51.0267 24.4113 50.2813 22.097 48.9592 20.1578C47.0407 17.3438 43.6904 16.0938 40.4284 15.5362C38.8257 15.2623 37.2002 15.1479 35.5742 15.2036C34.3346 15.2461 33.063 15.36 31.8866 15.7711C31.837 15.7885 31.8172 15.7123 31.865 15.6943C33.2683 15.166 34.8347 14.9809 36.324 14.8892ZM41.589 20.1858C41.7717 20.0716 41.9953 20.1887 42.0581 20.3741C42.2796 21.0273 41.8154 21.8904 41.5049 22.4558C41.1535 23.0955 40.7015 23.6937 40.2349 24.2556C39.3013 25.3793 38.0743 26.317 36.7278 26.9063C36.6454 26.9424 36.5493 26.8443 36.6249 26.7749C37.6667 25.8185 38.6113 24.793 39.4291 23.6427C39.8309 23.0774 40.166 22.4811 40.486 21.8686C40.7724 21.3204 41.0417 20.5278 41.589 20.1858ZM47.5595 20.9554C47.6763 20.5533 48.3416 20.6217 48.314 21.056C48.2429 22.178 47.706 23.3042 47.1226 24.255C46.5219 25.2341 45.7612 26.1066 44.8893 26.8602C44.8463 26.8973 44.7875 26.8401 44.8264 26.7982C45.5787 25.9862 46.1864 25.0613 46.6364 24.0548C47.0859 23.0497 47.2556 22.0009 47.5595 20.9554ZM44.2533 20.7737C44.3806 20.4241 44.9895 20.45 44.9522 20.867C44.8495 22.0132 44.1672 23.2144 43.5353 24.161C42.8647 25.1655 42.0088 26.0503 41.0522 26.7935C41.0164 26.8213 40.9658 26.7752 41.0007 26.7427C41.8599 25.9446 42.5567 25.0227 43.1083 23.9944C43.3899 23.4697 43.6261 22.9233 43.8125 22.3589C43.9851 21.8367 44.0661 21.2884 44.2533 20.7737Z" fill="black"/>
<path fill-rule="evenodd" clip-rule="evenodd" d="M43.0709 47.245C42.4406 47.4341 41.7641 47.451 41.1216 47.2557C40.5388 47.0786 39.9405 46.6888 39.5116 46.1731C39.1306 45.7149 38.8838 45.1581 38.8935 44.5638C38.8946 44.4959 38.9181 44.4392 38.9541 44.3953C38.9929 44.3479 39.0471 44.3154 39.1052 44.3013C39.1649 44.2868 39.2281 44.2919 39.2818 44.3172C39.3305 44.3401 39.3722 44.379 39.3983 44.4358C39.4642 44.5255 39.5298 44.6139 39.5957 44.6997C40.1257 45.3775 40.6389 45.884 41.4358 46.0656C41.8682 46.1642 42.3001 46.1205 42.6963 45.9701C43.1204 45.8091 43.5038 45.526 43.8043 45.1637C43.9401 45 44.1004 44.9332 44.2571 44.9321C44.4347 44.9308 44.6103 45.0163 44.7426 45.1529C44.8726 45.2872 44.9596 45.4697 44.9675 45.6606C44.9745 45.8282 44.9217 46.0032 44.7813 46.1593C44.3188 46.6737 43.7194 47.0505 43.0709 47.245ZM43.0514 38.7566C43.6975 39.1634 44.682 40.1118 43.987 41.1201C43.1688 42.0092 41.9908 40.9898 41.4104 40.5288C40.8721 40.1715 40.2674 41.0905 40.7668 41.5077C44.9613 44.7239 46.6635 38.863 43.3782 38.2784C43.0165 38.214 42.8822 38.6308 43.0514 38.7566ZM37.0074 36.9669C36.7998 36.8294 36.5555 36.7821 36.2848 36.9097C36.0732 37.0093 35.7021 37.3415 35.4439 37.7782C35.2672 38.0769 35.142 38.4274 35.168 38.7924C35.1741 38.8772 35.1438 38.9397 35.0961 38.9859C35.0585 39.0224 35.004 39.0492 34.9401 39.0576C34.8858 39.0647 34.8251 39.0583 34.7757 39.0424C34.6817 39.012 34.632 38.9489 34.6133 38.8973C34.4324 38.4 34.5103 37.8451 34.713 37.3444C34.9865 36.6687 35.4831 36.1027 35.8085 35.9202C36.3653 35.6079 37.0222 35.5935 37.5798 35.9117C38.0544 36.1826 38.3512 36.6198 38.6464 37.0656C38.7091 37.1603 38.7714 37.2544 38.8358 37.3468C38.9648 37.5319 38.9776 37.7155 38.9277 37.873C38.8723 38.0475 38.7312 38.1947 38.5548 38.2717C38.3917 38.3429 38.2024 38.3529 38.0349 38.2798C37.8934 38.218 37.7635 38.0975 37.6814 37.893C37.543 37.5488 37.3124 37.1689 37.0074 36.9669ZM47.5542 37.7329C47.412 37.8096 47.3008 37.8328 47.143 37.7838C47.0557 37.7567 46.9695 37.7047 46.902 37.6348C46.8351 37.5655 46.7868 37.4793 46.7681 37.3837C46.7219 37.1478 46.5973 36.927 46.4197 36.783C46.2679 36.66 46.0763 36.5947 45.8637 36.6315C45.6344 36.6712 45.4159 36.8235 45.2654 37.0031C45.2151 37.0632 45.1757 37.1315 45.136 37.1992C45.0619 37.326 44.9898 37.4439 44.8876 37.537C44.8488 37.5724 44.7904 37.5969 44.7338 37.5969C44.7108 37.5969 44.6875 37.5931 44.6652 37.5859C44.437 37.3486 44.3931 37.1686 44.4004 36.9901C44.4082 36.8028 44.4794 36.6133 44.5946 36.4364C44.8648 36.0215 45.3777 35.6814 45.7239 35.6043C46.1979 35.4988 46.6687 35.6255 47.0462 35.8997C47.4346 36.1818 47.7223 36.6199 47.8121 37.1136C47.8337 37.2325 47.8245 37.3608 47.7808 37.4721C47.738 37.5808 47.6636 37.6739 47.5542 37.7329ZM38.0529 32.5436C37.7684 32.8306 37.4317 32.8751 37.0911 32.9146C36.9018 32.9368 36.7507 32.9547 36.602 32.9894C36.1934 33.085 35.7894 33.2289 35.4209 33.4361C35.0356 33.6528 34.6158 33.914 34.3137 34.2487C34.2419 34.3284 34.1742 34.4119 34.1064 34.4957C34.0446 34.5721 33.985 34.6456 33.9223 34.7165C33.8502 34.7979 33.7817 34.8833 33.7136 34.9684C33.6715 35.0402 33.6632 35.0579 33.6548 35.0763C33.642 35.1039 33.6272 35.1348 33.6102 35.168C33.587 35.2134 33.5598 35.2632 33.5313 35.3083C33.4839 35.3907 33.4585 35.4134 33.4366 35.4236C33.4001 35.4404 33.3655 35.4486 33.332 35.4442C33.3005 35.44 33.2709 35.4243 33.2417 35.3987C33.0956 35.2709 33.0525 35.0612 33.0569 34.8385C33.0636 34.5007 33.184 34.1266 33.2949 33.8966C33.5528 33.3623 33.9105 32.8069 34.3406 32.4081C34.8314 31.9529 35.3683 31.6083 35.985 31.3708C36.3683 31.2232 36.812 31.0877 37.2296 31.1048C37.5301 31.1171 37.8171 31.2097 38.054 31.4407C38.1995 31.5826 38.2693 31.7843 38.2693 31.9859C38.2693 32.1916 38.1968 32.3984 38.0529 32.5436ZM48.1328 35.1723C48.1147 35.203 48.0897 35.2241 48.0618 35.2368C48.0326 35.2502 48 35.254 47.9687 35.2485C47.9376 35.2431 47.908 35.2285 47.8845 35.2061C47.8619 35.1847 47.8448 35.1563 47.8371 35.1215C47.6483 34.2623 47.2815 33.6231 46.4987 33.2109C46.1136 33.0081 45.6709 32.8793 45.2517 32.7766C45.1299 32.7467 45.0012 32.7274 44.8716 32.7078C44.4653 32.6463 44.0562 32.576 43.7913 32.2359C43.6317 32.0311 43.5648 31.7691 43.6026 31.5295C43.6383 31.3039 43.7656 31.097 43.997 30.9731C44.573 30.6646 45.2888 30.9673 45.8706 31.2252C45.9137 31.2443 45.9561 31.2631 45.9975 31.2812C46.5664 31.5299 47.0852 31.8581 47.5117 32.3276C47.8501 32.7 48.1636 33.2506 48.2899 33.817C48.395 34.2882 48.3703 34.7692 48.1328 35.1723Z" fill="black"/>
<g clip-path="url(#clip0_12_17951)">
<path fill-rule="evenodd" clip-rule="evenodd" d="M49.4176 39.4704C48.3856 40.4533 46.702 40.6962 45.3821 40.1163C41.9931 38.6229 43.7939 34.3138 46.471 33.2184C46.8035 33.1474 47.2501 32.9694 47.6536 32.9375C47.6905 32.9212 47.7682 32.9738 47.8655 32.9288C50.7721 33.3284 51.3116 37.7602 49.4176 39.4704ZM38.3522 39.4175C37.1856 40.8415 35.0804 41.2316 33.3897 40.5067C30.0486 39.1145 31.3555 35.2852 33.7091 33.8358C38.6412 32.1848 40.5287 36.7927 38.3522 39.4175ZM31.1211 35.9857C31.118 35.9841 31.1149 35.9833 31.1117 35.9818C31.1298 35.9746 31.1479 35.9675 31.1659 35.9602C31.1597 35.9747 31.153 35.9892 31.1469 36.0037C31.1383 35.9976 31.1308 35.9905 31.1211 35.9857ZM51.8694 34.9957C51.5938 34.9885 51.1944 35.0214 50.961 35.2014C50.4506 33.3356 48.4223 31.5648 46.5811 32.7624C45.1464 33.1683 44.0632 34.1276 43.4263 35.4256C42.3626 34.7679 40.6545 34.9878 39.6934 35.7908C39.135 33.7947 37.643 33.0592 35.8468 32.9062C33.892 32.5372 31.8823 34.3416 31.2296 35.8161C30.7234 35.7455 29.9691 35.5665 29.4828 35.8586C26.4048 34.9784 20.9967 34.3885 20.354 34.8112C19.9001 34.9666 19.6244 35.9935 20.2503 36.0669C20.7991 36.0067 20.2078 35.3076 20.761 35.2488C23.7023 35.1541 26.5366 35.811 29.435 36.1349C29.6848 36.4824 30.5197 36.6198 30.9707 36.4958C30.1952 39.0064 31.6668 40.7709 33.9299 41.3508C37.4345 42.2402 40.5896 39.2503 39.7576 36.0245C40.8406 35.5363 42.0689 35.5932 43.225 35.899C41.0835 42.8234 52.6198 42.8352 51.0264 35.4426C52.2081 36.0575 52.4947 35.1307 51.8694 34.9957Z" fill="black"/>
</g>
<defs>
<clipPath id="clip0_12_17951">
<rect width="32.4156" height="11.1273" fill="white" transform="translate(18.8591 30.9092) rotate(1.61459)"/>
</clipPath>
</defs>
</svg>
