<svg width="68" height="68" viewBox="0 0 68 68" fill="none" xmlns="http://www.w3.org/2000/svg">
<circle cx="34" cy="34" r="34" fill="white"/>
<path fill-rule="evenodd" clip-rule="evenodd" d="M51.8725 26.8539C53.0686 25.9948 51.2851 23.1684 50.6792 22.3274C50.1521 21.2303 49.625 20.1331 49.0978 19.0359C49.1619 18.1362 48.2833 17.3356 47.415 17.6094C46.6597 17.0677 45.3946 17.327 45.0107 18.1752C36.6589 14.5376 22.2079 16.0509 21.4605 27.2753C19.845 30.471 18.2437 33.6942 16.8103 36.9763C14.8216 37.0831 13.8576 39.4991 15.0416 41.0606C15.1992 43.5961 16.8067 43.7967 18.9527 43.6839C19.8145 43.9109 20.7078 44.0339 21.3541 44.6994C21.8454 45.2014 22.1793 45.8379 22.5015 46.4556C23.9885 49.3051 25.8776 51.77 28.4385 53.7412C32.4209 56.7216 37.8119 58.8614 42.7778 57.4106C53.4539 53.218 55.5505 36.4626 51.8725 26.8539Z" fill="white"/>
<path fill-rule="evenodd" clip-rule="evenodd" d="M29.592 10.5249C36.567 8.90492 44.403 11.0789 49.244 16.435C49.5846 16.8113 49.5478 17.3012 49.2482 17.6187C49.388 17.7322 49.5247 17.8489 49.6635 17.9656C49.8085 18.0886 49.7875 18.3356 49.6635 18.4607C49.5405 18.5837 49.285 18.609 49.1683 18.4607L48.9956 18.2433C48.9096 18.1347 48.8246 18.0257 48.7426 17.9141C48.6427 17.9509 48.5449 17.9898 48.4472 18.0276C49.9263 19.0105 51.1594 20.3162 52.0046 21.8878C52.9192 23.5877 53.5026 25.4021 53.8821 27.2902C54.5586 30.6581 54.6567 34.1123 54.5662 37.5372L54.5612 37.7206C54.4445 41.8489 54.0419 46.0454 52.301 49.8415C50.905 52.8838 48.424 55.6811 45.3134 57.0131C43.5221 57.7794 41.5962 58.1064 39.6503 57.9697C38.6243 57.8982 37.6015 57.7363 36.6028 57.4893L36.3629 57.4297C35.4531 57.2018 34.5095 56.9377 33.7329 56.417C32.936 55.8819 33.4732 54.8191 34.3521 54.9484C35.4107 55.1051 36.4188 55.5466 37.469 55.7758C38.4961 56.0007 39.5358 56.1185 40.588 56.088C42.4498 56.0354 44.1455 55.4635 45.6845 54.4249C51.5683 50.4522 52.2832 42.4649 52.4366 36.0102C52.5113 32.8565 52.3956 29.6618 51.6703 26.5806C50.9733 23.6182 49.7738 20.701 48.0761 18.1706C47.7018 18.3104 47.3276 18.4271 46.9292 18.4639C46.219 18.8908 45.3744 18.9021 44.5532 18.9023L44.4388 18.9023C43.5841 18.9012 42.7294 18.8508 41.879 18.774C38.8693 18.507 35.7723 17.83 32.7468 18.261L32.6233 18.2791C31.3775 18.4664 29.8338 18.8596 28.9192 19.7559C27.9311 20.723 28.5933 22.5532 29.3755 23.1346C29.8811 23.5109 30.0388 24.3582 29.3755 24.6999C28.0656 25.3758 24.8951 25.0005 24.5387 25.3748C24.1109 25.8221 24.1408 26.5039 24.1285 27.0845L24.1276 27.123C24.0835 28.7756 24.1245 30.4229 24.2643 32.0712C24.3989 33.6649 24.7048 35.2618 24.7731 36.8596C24.7962 37.3863 24.1602 37.5461 23.8123 37.257C23.7439 37.2002 23.6735 37.1466 23.6031 37.0983C22.9713 36.6504 22.2533 36.4612 21.4827 36.3414C21.4422 36.3349 21.4106 36.3148 21.3879 36.2881L21.3786 36.2762L21.2966 36.3435C21.4564 36.5422 21.5931 36.7671 21.7014 37.0194C21.7234 37.0699 21.6761 37.134 21.6204 37.1004C20.5545 36.4665 19.3939 36.1974 18.1671 36.4539C17.0633 36.6841 16.0646 37.3842 15.7408 38.5048C15.4433 39.5361 15.662 40.7251 16.3295 41.5734C17.3166 42.8307 18.9198 42.7172 20.3579 42.775C20.6396 42.7866 20.9539 42.9232 21.0853 43.1923C21.2399 43.5098 21.2294 43.7264 21.0853 44.0428C21.0654 44.088 21.0391 44.129 21.0086 44.1658C21.1304 44.2665 21.2456 44.3768 21.3578 44.4892L21.7333 44.8674C21.9902 45.1268 22.2456 45.3884 22.4919 45.6565C23.2152 46.4449 23.8953 47.2838 24.5355 48.1406L24.5947 48.2206C25.3446 49.2464 26.1224 50.7278 27.4223 51.0515C27.868 51.1629 28.2822 51.3826 28.4146 51.8651C28.5471 52.3476 28.2349 52.8155 27.8154 53.0173C27.088 53.3674 26.165 52.9511 25.5647 52.5095C24.2702 51.556 23.4245 50.0003 22.6294 48.6309L22.4116 48.2566C22.0022 47.55 21.6022 46.835 21.2609 46.0927C21.0664 45.6691 20.8572 45.2486 20.6764 44.8186C20.6238 44.6935 20.5713 44.5663 20.5303 44.436C20.4725 44.4486 20.4136 44.457 20.3579 44.4602C18.6223 44.5737 16.6239 44.2983 15.3697 42.981C13.6404 41.1655 13.4375 37.9193 15.4023 36.1868C15.6094 36.0039 15.8428 35.8431 16.0951 35.7054C15.744 35.1114 15.5116 34.4229 15.3403 33.7763C15.0901 32.8323 14.9503 31.8704 14.8809 30.897C14.7411 28.9112 14.9734 26.8896 15.4507 24.9606C17.181 17.9688 22.494 12.1732 29.592 10.5249ZM17.0223 39.5382C16.6788 37.5462 20.6648 39.0192 21.5341 39.158L21.5595 39.1618C22.5565 39.3003 22.0008 41.0491 21.0196 40.5281L20.9897 40.5116C20.4589 40.2075 19.875 39.9894 19.3183 39.7318L19.1994 39.6759C18.7568 39.4635 17.2946 38.5101 17.1358 39.5382C17.1274 39.595 17.0317 39.5939 17.0223 39.5382Z" fill="black"/>
<path fill-rule="evenodd" clip-rule="evenodd" d="M41.7467 43.9919C41.9079 43.7116 42.2792 43.4518 42.619 43.4917C44.1411 43.6702 44.1385 45.5155 43.5507 46.5928C43.0296 47.5481 41.9511 48.1088 40.8717 48.0269C39.7377 47.9408 38.7715 47.2741 38.3463 46.2133C38.0651 45.5116 37.9352 44.2162 38.6832 43.7447C38.6971 43.7359 38.72 43.7381 38.7311 43.7508C39.0897 44.168 39.1038 44.7945 39.4178 45.259C39.7099 45.6911 40.1636 46.0479 40.6951 46.1029C41.092 46.1442 41.4936 46.001 41.6489 45.6446C41.7329 45.4518 41.7233 45.3472 41.6918 45.2145L41.6631 45.0992C41.5636 44.6954 41.519 44.3879 41.7467 43.9919ZM42.1535 35.8989C42.9474 36.3815 44.1569 37.5066 43.303 38.7029C42.2977 39.7576 40.8504 38.5483 40.1372 38.0013C39.4759 37.5774 38.7329 38.6676 39.3465 39.1626C44.5001 42.9781 46.5915 36.0251 42.5551 35.3316C42.1106 35.2552 41.9456 35.7497 42.1535 35.8989ZM33.7706 32.5902C34.2579 31.8592 35.3701 31.9668 35.6385 32.8343C35.7839 33.3042 35.5831 33.7266 35.5935 34.1959C35.6022 34.5923 35.5762 35.034 35.4547 35.4179C35.1776 36.2934 34.3902 36.9118 33.4587 36.8861C32.5303 36.8606 31.7125 36.2729 31.3236 35.4453C30.9334 34.6145 31.016 33.7547 31.3009 32.9099C31.3146 32.8693 31.3678 32.8496 31.3998 32.8838C31.7366 33.2417 31.9831 33.6195 32.2382 34.0202L32.4996 34.4309C32.6994 34.7402 32.9897 35.1353 33.3627 35.1105L33.4187 35.105C33.5224 35.0961 33.5065 35.1167 33.5864 34.9754C33.6234 34.91 33.6167 34.7885 33.6346 34.7113L33.6408 34.6852L33.6374 34.6712C33.6295 34.6338 33.6217 34.5634 33.6153 34.4412L33.614 34.4142C33.587 33.8427 33.4254 33.1081 33.7706 32.5902ZM46.1219 33.0769C46.0345 32.1419 47.349 31.9343 47.786 32.6261C48.0139 32.9869 48.0803 33.4401 48.1307 33.8694L48.1543 34.0732C48.206 34.5142 48.2265 34.973 48.035 35.3844C47.7335 36.0322 47.0779 36.3747 46.3706 36.3205C45.6952 36.2686 45.0789 35.877 44.7541 35.2825C44.4645 34.752 44.1765 33.7163 44.5283 33.1631C44.5495 33.1295 44.592 33.1252 44.6211 33.1511C44.9535 33.4462 45.0077 33.9844 45.2053 34.3689C45.4091 34.7654 45.7183 35.1518 46.1868 35.2121C46.6351 35.2697 46.8063 35.0248 46.692 34.5975C46.5445 34.0458 46.1774 33.6705 46.1219 33.0769ZM34.1257 27.0316L34.3406 26.9492C35.0771 26.671 36.0883 26.3494 36.6871 26.9483C37.0565 27.3176 37.1269 27.8616 36.8632 28.3123C36.5437 28.8582 35.9707 28.8717 35.4173 28.9521C34.7879 29.0435 34.1478 29.2174 33.5619 29.4653C32.9018 29.7446 32.2892 30.0928 31.6891 30.4816C31.1187 30.8512 30.5503 31.4551 29.8675 31.5689C29.8396 31.5736 29.808 31.5616 29.8007 31.531C29.6457 30.8635 30.0766 30.2065 30.4611 29.6857C30.9264 29.0552 31.4902 28.5377 32.1203 28.0737C32.7285 27.6257 33.4233 27.302 34.1257 27.0316ZM47.5046 29.4049L47.5702 29.3934C48.0169 29.3191 48.4216 29.3362 48.7582 29.6899C49.0151 29.9598 49.1141 30.3095 48.9917 30.6663C48.8787 30.9954 48.6259 31.3298 48.2592 31.3988C47.0209 31.6318 45.6493 31.5933 44.4049 31.4169C43.8355 31.3361 43.261 31.2374 42.7064 31.0815L42.4513 31.0076C41.9883 30.8753 41.4582 30.7372 41.1219 30.3967C41.0011 30.2743 41.0707 30.0992 41.2154 30.0425C41.8022 29.8127 42.6065 29.9349 43.2322 29.917C43.9601 29.8962 44.6891 29.8416 45.4135 29.7664C46.1215 29.6928 46.8065 29.533 47.5046 29.4049Z" fill="black"/>
</svg>
