<svg width="68" height="68" viewBox="0 0 68 68" fill="none" xmlns="http://www.w3.org/2000/svg">
<circle cx="34" cy="34" r="34" fill="white"/>
<path fill-rule="evenodd" clip-rule="evenodd" d="M52.1408 21.5138C52.1082 20.3524 50.4189 19.8702 49.9309 21.0204C49.9006 21.0512 49.8676 21.0808 49.8367 21.1074C49.9895 20.9763 49.6701 21.1931 49.6181 21.2199C49.5736 21.2428 49.5282 21.2635 49.4828 21.2849C49.1689 18.3426 48.1033 15.1708 45.3496 13.6939C41.509 11.8315 37.0711 11.4679 32.8576 11.653C30.7231 11.7796 28.2583 12.1209 26.362 11.0411C25.7711 10.7046 25.2974 10.175 24.6297 9.96709C22.5218 9.39688 21.5657 11.5614 21.8528 13.3414C20.9537 13.3484 20.0619 13.8462 19.6739 14.6657C19.446 15.1508 19.45 15.6742 19.2535 16.161C18.6507 17.3954 17.7881 18.2827 18.2758 19.7794C17.4181 20.7554 17.9071 22.2329 18.5992 23.1673C18.941 23.6534 19.348 24.1199 19.5984 24.6639C19.8414 25.1848 19.4746 25.8025 19.2704 26.2963C17.7611 29.8752 17.8473 33.8166 18.6595 37.5496C17.0298 38.2568 16.5406 40.4673 17.6034 41.8592C17.969 42.3512 18.4151 42.5338 18.921 42.8365C19.5613 43.1889 19.0384 44.6003 19.2434 45.2819C19.522 46.9459 21.0371 47.9707 22.5352 46.8901C23.4859 46.7462 24.2526 49.5122 24.943 50.2065C25.3683 50.7659 25.8405 51.2682 26.3539 51.7318C27.8836 55.6677 35.7221 57.6636 39.5975 57.4358C43.6558 57.0108 46.3936 53.5643 48.6733 50.5055C49.8439 48.8757 50.6053 47.0515 50.8822 45.0619C51.1603 43.0623 51.0387 41.0592 50.8506 39.0572C50.4556 34.8035 49.8325 28.6754 49.4301 24.3759C50.8842 24.2561 52.1849 23.0181 52.1408 21.5138Z" fill="white"/>
<path fill-rule="evenodd" clip-rule="evenodd" d="M20.4407 18.957C20.4392 18.9633 20.4414 18.968 20.4428 18.9747C20.4431 18.9728 20.4434 18.9717 20.4439 18.9694C20.4427 18.9644 20.4418 18.9611 20.4407 18.957Z" fill="#4F66AF"/>
<path fill-rule="evenodd" clip-rule="evenodd" d="M20.4412 19.0195C20.4357 19.0137 20.4277 19.0093 20.4198 19.0034C20.4196 19.0036 20.4195 19.0038 20.4194 19.004C20.4268 19.0089 20.4339 19.0145 20.4412 19.0195Z" fill="#4F66AF"/>
<path fill-rule="evenodd" clip-rule="evenodd" d="M51.9093 22.0635C52.387 21.6666 53.1394 22.032 52.9776 22.6854C52.8015 23.3969 52.0389 23.8831 51.4094 24.1754C50.7613 24.4762 50.1301 24.5342 49.4232 24.5014L49.4144 24.4994C49.6107 25.2864 49.722 26.1045 49.8722 26.8962C50.0627 27.9007 50.2502 28.9056 50.4348 29.9111C50.6134 30.8829 50.8392 31.856 50.9765 32.8326C51.1149 33.8185 51.2477 34.8051 51.3837 35.7913C51.6106 37.4384 51.7938 39.0931 51.9869 40.745L52.079 41.5269C52.2724 43.1818 52.4281 44.8388 52.0615 46.4857C51.718 48.0292 50.9441 49.4689 50.0465 50.7574C49.1674 52.019 48.1854 53.2321 47.1075 54.3295C45.0281 56.4459 42.4641 58.141 39.4575 58.4554C38.163 58.5908 36.7803 58.4401 35.5632 57.9696L35.4824 57.938C34.2505 57.4516 32.7418 56.6188 32.4211 55.2521C32.2242 54.4137 33.0882 53.7592 33.8456 54.157C34.1966 54.3414 34.4605 54.552 34.7485 54.8161L34.7997 54.8633C35.0351 55.0819 35.1257 55.1491 35.3974 55.3201C35.9546 55.6707 36.3722 55.8366 37.005 55.9958C38.1719 56.2893 39.4312 56.2429 40.6157 55.8958C43.1306 55.1588 45.0817 53.2358 46.7531 51.3076C47.6606 50.2605 48.522 49.1621 49.1863 47.9418C49.8833 46.6614 50.2051 45.3171 50.1858 43.8602C50.1639 42.2164 49.9368 40.5662 49.7877 38.9302C49.6358 37.2623 49.4953 35.5949 49.3716 33.9247C49.2557 32.3584 49.2445 30.785 49.204 29.2138L49.196 28.9192C49.1722 28.0851 49.1557 27.2508 49.1368 26.4165C49.118 25.5846 49.0522 24.7421 49.1378 23.9138C49.1439 23.8535 49.2252 23.8382 49.245 23.8992C49.2956 24.0544 49.3397 24.212 49.3815 24.3706C49.3879 24.3657 49.3951 24.3613 49.4038 24.3583C49.9578 24.168 50.468 23.7879 50.8837 23.378C51.2804 22.9869 51.4875 22.414 51.9093 22.0635ZM21.5993 10.4089C21.9473 8.97962 23.5133 8.66037 24.6713 9.34869C25.2283 9.67968 25.6743 10.157 26.1946 10.5364C26.7119 10.9136 27.2836 11.2166 27.8868 11.4305C29.0852 11.8555 30.3494 12.0101 31.616 12.0156C34.6987 12.0291 37.7183 11.1628 40.8056 11.2594C43.1945 11.3342 45.73 12.0402 47.4628 13.767C48.3962 14.6973 48.9977 15.8933 49.3203 17.163C49.4711 17.7564 49.5835 18.3642 49.6722 18.9706L49.6939 19.1221C49.7435 19.4765 49.8231 19.8517 49.8305 20.2099C49.8372 20.5316 49.7558 20.8682 49.7117 21.1866C49.6188 21.8577 48.5793 21.7813 48.4299 21.1866C48.0898 19.8326 48.2322 18.4352 47.8165 17.0858C47.4479 15.8893 46.7335 14.8431 45.6985 14.1276C41.3319 11.109 35.7323 13.6368 30.9211 13.4019C29.7453 13.3445 28.5521 13.1628 27.443 12.7579C26.871 12.5491 26.3079 12.2944 25.7893 11.9741C25.3142 11.6808 24.9026 11.3124 24.4628 10.9733L24.2688 10.8258C23.9673 10.599 23.454 10.2443 23.1498 10.5444C23.0174 10.675 23.0094 10.9703 23.0118 11.1958L23.0133 11.2978C23.0271 12.2552 23.2223 13.2109 22.864 14.1359C22.7005 14.5578 22.2463 14.8238 21.8142 14.5849L21.7919 14.5721C20.8781 14.0284 19.6774 15.1208 20.3794 16.0249L20.4013 16.0523C20.7963 16.5323 20.5857 17.3775 19.8788 17.3754L19.8533 17.375C18.5938 17.3357 18.035 18.9097 19.1206 19.5975L19.154 19.618C20.0354 20.1455 19.2623 21.4137 18.359 20.9783C18.4355 21.0152 18.3025 21.0147 18.2263 21.1169C18.1532 21.215 18.1477 21.2998 18.1651 21.4238C18.2179 21.7993 18.5481 22.1157 18.8156 22.3532C19.4232 22.893 20.1764 23.2656 20.9525 23.4925C24.0614 24.4014 27.2509 23.2896 30.28 22.6182C33.438 21.9182 37.0048 21.6363 39.7588 23.6226C39.7915 23.6461 39.7629 23.6986 39.7267 23.6776C37.7502 22.5298 35.3295 22.6317 33.169 23.1023C30.3359 23.7194 27.5276 24.8681 24.626 25.1707C25.4406 26.6087 25.7815 28.3071 25.5639 29.9519C25.4141 31.0841 24.9635 32.0662 24.4313 33.0615L24.3297 33.2512C23.8552 34.1445 23.4876 34.9885 23.4818 36.0234C23.476 37.0516 21.9474 37.2684 21.6883 36.2662C21.1 33.9901 23.2431 32.1973 24.1175 30.3204C24.8649 28.7159 24.8879 26.8452 24.2831 25.2024C23.6007 25.2572 22.913 25.263 22.2184 25.201C21.6218 25.1477 21.0079 25.0402 20.4097 24.87L20.1703 25.8762C19.8532 27.2164 19.5594 28.5558 19.4704 29.9478C19.4048 30.9707 19.4083 31.9987 19.5081 33.0191C19.5943 33.9004 19.7763 34.7503 19.9615 35.6107C20.1204 35.8203 20.2016 36.1411 20.1569 36.3966C21.1884 36.6936 21.9997 37.5075 22.2961 38.5855C22.3141 38.6512 22.2223 38.6881 22.1879 38.6312C21.4846 37.4643 19.6737 37.0349 18.5281 37.8058C17.4341 38.5418 17.0026 40.0278 17.6218 41.2042C17.9475 41.8227 18.4305 42.2573 19.0532 42.5567L19.1784 42.6155C19.5047 42.7699 19.8043 42.9382 20.0142 43.2483C20.2864 43.6506 20.2956 44.0759 20.2699 44.5355L20.2587 44.7218C20.2415 45.03 20.2376 45.3472 20.3294 45.6436L20.3503 45.7095C20.3745 45.7834 20.3999 45.8486 20.4441 45.9192C20.4573 45.9402 20.5813 46.0618 20.6217 46.1058L20.6726 46.1211L20.7295 46.1235C20.7926 46.1244 20.8756 46.0971 20.8484 46.116L20.8558 46.1118C20.8797 46.0969 20.9018 46.0811 20.9203 46.0671L20.9556 46.0396C21.038 45.9204 21.1414 45.8219 21.2681 45.7468L21.3892 45.6929C21.7038 45.3608 22.2429 45.5353 22.4684 45.8662C22.6307 46.1041 22.718 46.3461 22.7252 46.5847C22.7505 46.544 22.8069 46.5218 22.8427 46.5673L23.0565 46.8398C23.8746 47.8851 24.6787 48.937 25.6083 49.8898C26.1204 50.4149 26.6713 50.9083 27.2472 51.3627C27.7388 51.7507 28.6714 52.1241 28.6857 52.8308C28.6901 53.0602 28.5272 53.2227 28.3279 53.3006C27.6793 53.554 26.8778 52.6921 26.4093 52.2727L26.371 52.2389C25.7976 51.7366 25.2743 51.1854 24.7914 50.5958C23.8535 49.4506 23.0692 48.1326 22.7235 46.6826C22.7073 46.9356 22.5987 47.1836 22.3874 47.4175C22.106 47.7289 21.7209 47.9473 21.3096 48.0372C20.3777 48.2409 19.4678 47.9055 18.9134 47.129C18.4447 46.4725 18.3067 45.6057 18.3672 44.8126L18.3746 44.7174C18.3831 44.5902 18.394 44.3569 18.4269 44.2575L18.1335 44.0964C17.7737 43.905 17.4403 43.654 17.1411 43.3782C15.9384 42.2694 15.3349 40.4675 15.8848 38.8907C16.2287 37.9043 16.9514 37.046 17.8768 36.5999C17.7221 36.2425 17.6704 35.818 17.612 35.4424L17.6022 35.3802C17.5032 34.7641 17.4204 34.1402 17.3888 33.5166C17.3298 32.3521 17.4015 31.1767 17.5845 30.0257C17.8817 28.1562 18.497 26.1735 19.6248 24.6052C18.7644 24.2635 17.9724 23.7688 17.3611 23.082C16.7224 22.3642 16.3151 21.3367 16.8091 20.4251C16.935 20.1928 17.099 19.9975 17.2875 19.8424C16.9606 19.2251 16.8548 18.4955 17.0566 17.7981C17.2976 16.9644 17.9521 16.3142 18.7428 16.0106C18.5508 15.2207 18.7078 14.371 19.2945 13.7127C19.8764 13.0597 20.7802 12.8218 21.6166 12.9711C21.662 12.131 21.3975 11.2374 21.5993 10.4089ZM19.2533 39.9053C20.0202 39.53 20.9291 39.5897 21.6951 39.9453L21.747 39.97C22.5833 40.3755 23.691 41.323 23.4251 42.3308C23.2696 42.9201 22.6147 43.1214 22.107 42.867C21.6828 42.6544 21.5861 42.2743 21.3733 41.8926C21.2229 41.6225 21.0369 41.4115 20.8184 41.1944C20.358 40.7371 19.8408 40.3973 19.2533 40.1255C19.1686 40.0862 19.1715 39.9454 19.2533 39.9053ZM38.5765 19.5356C38.5046 19.5028 38.5568 19.3902 38.6291 19.4108C40.5561 19.9611 42.3528 21.1964 43.4264 22.9109C43.4919 23.0155 43.5019 23.1877 43.4264 23.2912L43.3917 23.3382C43.3424 23.4025 43.2939 23.4499 43.2013 23.4643C43.0273 23.4913 42.876 23.4459 42.7758 23.2912C41.7181 21.657 40.3631 20.3528 38.5765 19.5356ZM51.477 19.8592C51.6402 19.5827 52.0731 19.6384 52.1592 19.9484L52.1717 19.9754C52.2182 20.0811 52.1971 20.1027 52.1103 20.0429C52.3251 20.2199 52.4223 20.4834 52.3567 20.7669C52.002 22.2975 50.2682 23.3906 48.7568 23.2401C48.6249 23.227 48.6069 23.0649 48.7265 23.0165C49.308 22.7811 49.8241 22.3987 50.2391 21.9295C50.6425 21.4734 50.8121 20.9516 51.0291 20.4008C51.1105 20.194 51.2371 20.0451 51.4156 19.9638C51.4392 19.9312 51.4598 19.8964 51.477 19.8592ZM42.8818 18.8756L42.8922 18.8762C43.6688 18.9766 44.3406 19.3598 44.886 19.9214C45.4112 20.4622 46.0741 21.3545 46.0173 22.1481C45.9797 22.6743 45.2316 22.975 44.9525 22.4366C44.7859 22.1153 44.7482 21.7631 44.6315 21.4234C44.5245 21.112 44.3767 20.8164 44.1997 20.5391C43.8354 19.9678 43.3344 19.4838 42.8214 19.0472C42.7614 18.9961 42.8032 18.8758 42.8818 18.8756ZM22.9632 18.6424C22.791 18.4785 22.9701 18.199 23.1891 18.2543C24.3442 18.5468 25.4881 18.9024 26.689 18.9378C27.2889 18.9554 27.8853 18.9081 28.4795 18.8305L28.7804 18.7905C29.2437 18.73 29.715 18.6825 30.1731 18.7777C30.4784 18.8411 30.5381 19.2345 30.3478 19.4397C29.4493 20.4089 27.7162 20.3163 26.5246 20.1529C25.2306 19.9754 23.925 19.5587 22.9632 18.6424ZM43.8219 15.6215C43.7429 15.5118 43.8759 15.3387 44.0018 15.3874C45.1497 15.8311 46.3528 16.9862 46.669 18.1947C46.7526 18.5139 46.35 18.755 46.1136 18.518C45.673 18.0764 45.362 17.5547 44.9897 17.0583C44.6186 16.5635 44.1843 16.124 43.8219 15.6215ZM25.0137 16.1612C24.9216 16.0692 25.0143 15.886 25.1466 15.9329C25.8939 16.1975 26.6469 16.4265 27.4321 16.5467C28.2363 16.6696 29.048 16.5762 29.8564 16.626C30.1834 16.6461 30.4061 17.1549 30.0426 17.3132C28.4272 18.0164 26.2332 17.3787 25.0137 16.1612ZM27.0772 14.5837C26.9488 14.4888 27.0219 14.2281 27.1966 14.3008C27.9083 14.5971 28.6281 14.67 29.3919 14.6395C29.674 14.6281 29.7334 15.0715 29.4584 15.1313C28.6141 15.315 27.7672 15.0938 27.0772 14.5837Z" fill="black"/>
<path fill-rule="evenodd" clip-rule="evenodd" d="M38.2694 49.0079C37.6165 48.7415 37.034 48.2973 36.6081 47.7297C36.46 47.5324 36.4216 47.3241 36.4527 47.1335C36.4876 46.9192 36.6144 46.725 36.7872 46.5948C36.9606 46.4641 37.1776 46.3997 37.3873 46.4325C37.5695 46.4611 37.7509 46.5608 37.8945 46.7678L37.9245 46.8091C38.1777 47.1517 38.5076 47.4328 38.8836 47.6139C39.2459 47.7885 39.6512 47.87 40.0706 47.8226C40.8693 47.7324 41.4198 47.3004 42.005 46.7138C42.0775 46.6398 42.1501 46.5634 42.223 46.4858C42.2691 46.4154 42.333 46.3702 42.4039 46.3465C42.4827 46.3202 42.5719 46.3217 42.6535 46.3501C42.7322 46.3776 42.8026 46.4297 42.8498 46.499C42.8947 46.5649 42.9201 46.6462 42.9119 46.7398C42.8583 47.3477 42.5405 47.8903 42.089 48.3163C41.5876 48.7894 40.923 49.1167 40.2973 49.2315C39.6079 49.358 38.9055 49.2674 38.2694 49.0079ZM40.6225 39.6297C41.3559 40.0755 42.4734 41.115 41.6844 42.2202C40.7557 43.1947 39.4186 42.0774 38.7596 41.5721C38.1487 41.1804 37.4622 42.1877 38.0291 42.645C42.7904 46.1701 44.7227 39.7463 40.9934 39.1055C40.5828 39.0349 40.4303 39.4918 40.6225 39.6297ZM32.0901 35.5291C32.1711 34.5232 33.703 34.2948 33.8554 35.2901C33.9918 36.1817 33.8312 37.0008 33.4296 37.8035C33.0459 38.5704 32.0814 38.2126 32.0084 37.5143C31.9107 36.5782 32.0397 36.1548 32.0901 35.5291ZM43.7511 35.0838C43.9647 34.804 44.273 34.6131 44.6425 34.721C45.7968 35.0583 45.4566 36.6971 45.0512 37.4948C44.8309 37.9279 44.1189 38.0378 43.7971 37.6564C43.2727 37.0344 43.0215 35.7923 43.6882 35.1796C43.7063 35.148 43.7264 35.116 43.7511 35.0838ZM33.4133 31.1278L33.5957 31.0959C34.1598 30.9984 34.8611 30.9046 35.2601 31.3581C35.4718 31.5986 35.5446 32.0455 35.2601 32.2757C34.7598 32.6807 34.2065 32.5238 33.6069 32.5581C33.1127 32.5864 32.6378 32.6682 32.1618 32.8043C31.1175 33.1027 30.2666 33.6476 29.3747 34.2459C29.2577 34.3244 29.1383 34.1747 29.1941 34.0652C29.7089 33.0568 30.7067 32.2284 31.7061 31.7235C32.2395 31.454 32.8232 31.2304 33.4133 31.1278ZM42.6988 30.6761L42.8384 30.7047C44.3571 31.0221 46.3303 31.6563 47.0495 33.148C47.077 33.359 47.048 33.4042 47.0244 33.4337L47.0166 33.4435C46.9972 33.4688 46.9817 33.5035 46.8903 33.5322C46.8649 33.5262 46.8393 33.5198 46.8134 33.513C46.4837 33.4266 46.2229 33.3076 45.9704 33.1841L45.6966 33.0492C45.379 32.8935 45.0585 32.7434 44.7189 32.6326C43.9941 32.3962 43.2487 32.2297 42.4917 32.1407C42.3276 32.1215 42.1696 32.0661 42.0449 31.9712C41.9266 31.8811 41.8362 31.7564 41.795 31.5906C41.7416 31.3761 41.757 31.2136 41.8721 31.0201C41.9586 30.8747 42.0825 30.774 42.2247 30.7161C42.3697 30.6571 42.5348 30.6432 42.6988 30.6761Z" fill="black"/>
<path fill-rule="evenodd" clip-rule="evenodd" d="M48.5082 37.5913C48.2414 38.3382 47.8352 39.1158 47.3386 39.7444C45.3292 41.4945 43.3766 40.5255 42.3852 38.1536C42.0085 36.4774 43.0087 34.6719 44.0685 33.4388C45.5991 31.861 48.0971 32.6891 48.8009 34.5647C48.8436 34.8077 48.8695 35.0502 48.8818 35.2918C48.8672 36.0771 48.7752 36.7482 48.5082 37.4943M29.1935 36.085C31.8406 32.8466 36.7929 32.6734 36.6666 37.6576C36.0979 43.9664 26.5226 42.4179 29.1935 36.085ZM49.3408 33.3835C49.2481 33.2219 49.1451 33.0655 49.0327 32.916C48.9912 32.8906 48.9673 32.665 48.8146 32.6483C46.7738 30.3327 43.1886 31.6465 41.8931 33.9539C41.6565 34.2456 41.4636 34.5871 41.3213 34.948C40.0449 34.7072 38.5568 34.754 37.3697 35.2498C36.1926 32.0886 32.6289 31.8064 30.2804 33.1571C28.8197 33.8959 27.8726 35.4432 26.452 36.2932C23.1125 36.5404 19.5284 35.7709 16.2492 36.6324C13.663 37.1854 15.8249 38.5322 16.2586 37.6334C19.3503 36.694 23.0131 37.4879 26.2232 37.2762C26.5569 37.8568 27.197 38.332 27.8349 38.3117C28.5239 44.5931 37.4305 43.5515 37.7377 37.9678C38.0862 37.4011 38.5197 36.8588 39.14 36.5057C39.3775 36.4551 39.6069 36.3894 39.8166 36.2877C40.175 36.2357 40.7272 36.3919 41.057 36.6988C42.1864 43.6688 48.6934 42.857 49.8563 36.751C49.8794 36.7268 49.944 36.6357 49.9937 36.4897C50.3917 35.9484 51.3661 35.7472 51.2104 34.8335C51.0718 33.9195 49.9496 33.9304 49.3408 33.3835Z" fill="black"/>
</svg>
