<svg width="68" height="68" viewBox="0 0 68 68" fill="none" xmlns="http://www.w3.org/2000/svg">
<circle cx="34" cy="34" r="34" fill="white"/>
<path fill-rule="evenodd" clip-rule="evenodd" d="M36.2827 13.0269C37.9679 12.908 39.6837 13.192 41.2884 13.7001C43.8478 14.5103 46.1982 15.94 48.1293 17.8012C50.1196 19.7194 51.5915 22.0844 52.4865 24.6964C53.5658 27.8466 53.7273 31.2101 54.0311 34.4984C54.1846 36.1598 54.4375 37.7959 54.7004 39.4412L54.742 39.7011C54.9988 41.3041 55.1433 42.9254 54.7885 44.5259C54.1987 47.186 52.4305 49.444 50.3317 51.1125C46.0202 54.54 39.3084 56.6296 34.2884 53.4757C33.5118 52.9877 34.2477 51.7398 35.0059 52.2483C35.5394 52.6063 36.1047 52.9201 36.7109 53.1368C39.2437 54.0419 42.0254 53.7195 44.5286 52.8775C46.9954 52.0478 49.3624 50.6459 51.1826 48.7752C53.0945 46.8102 54.154 44.3831 54.0009 41.6214C53.9097 39.9782 53.5353 38.3654 53.3275 36.7356C53.1435 35.2921 53.0331 33.8408 52.9059 32.3915L52.8593 31.8702C52.5896 28.9173 52.2023 25.8834 50.8587 23.203C49.7286 20.948 48.0738 18.9419 46.0841 17.3925C44.0009 15.7705 41.5128 14.6361 38.9021 14.2129C35.8321 13.7154 32.8933 14.6202 30.3324 16.3044C28.0611 17.7982 26.1084 19.7943 24.6111 22.0592C23.885 23.1574 23.2665 24.3302 22.7323 25.533C22.229 26.6662 21.882 27.8539 21.4772 29.0219C21.8103 29.012 22.1489 29.0248 22.4927 29.0628C24.2564 29.2582 25.8996 30.1722 26.9457 31.6134C28.224 33.3746 27.8785 35.5363 28.3778 37.5392C28.4164 37.6947 28.3507 37.8468 28.2176 37.9329C27.4605 38.4222 26.4473 38.4384 25.7145 37.8875C25.0786 37.4093 24.78 36.5448 25.0375 35.7894C25.0711 35.691 25.2145 35.7084 25.2185 35.8139C25.2669 37.0994 26.4595 38.0893 27.6286 37.4776C27.1271 35.7506 27.3911 33.8217 26.3654 32.2617C24.55 29.5008 20.7932 29.3867 18.1546 30.9431C16.7659 31.7621 15.6667 32.9936 14.8483 34.3711L14.6125 34.7709C14.2987 35.3052 13.9665 35.9096 13.9014 36.498C13.8639 36.8375 13.9892 37.1566 14.3787 36.9855C14.6938 36.8472 14.9378 36.5244 15.125 36.2469C15.4442 35.7736 16.1778 36.1825 15.9141 36.6865L15.9052 36.703C15.5214 37.3828 15.2851 38.1321 15.2418 38.9127L15.2307 39.1289C15.2235 39.2864 15.2183 39.5103 15.2516 39.5185C15.2916 39.5283 15.5693 39.2078 15.6155 39.1634C15.8383 38.9494 16.0677 38.7746 16.3777 38.7176C16.7853 38.6429 17.1966 39.1472 16.8428 39.4778L16.828 39.4912C16.5122 39.7657 16.5263 40.3131 16.8751 40.5698C17.3674 40.9321 17.9735 40.3407 18.0449 39.8538L18.0473 39.8359C18.1105 39.3098 18.8412 39.2912 18.8808 39.8359C18.967 41.0179 17.5597 42.0087 16.4889 41.4123C16.0655 41.1767 15.7963 40.7451 15.712 40.2826C15.5769 40.354 15.431 40.4035 15.2769 40.4172C14.7751 40.4616 14.4183 40.1088 14.3371 39.6352C14.2426 39.0835 14.2987 38.4927 14.444 37.9198C14.1715 37.9855 13.8848 37.9604 13.5966 37.7941C12.7248 37.291 12.9752 36.172 13.3044 35.4165C14.7096 32.1919 17.6211 29.266 21.2281 29.0337C21.2479 28.4647 21.325 27.9269 21.4512 27.3572C22.6849 21.7848 26.6816 16.6249 31.8849 14.2132C33.2753 13.5687 34.7498 13.1352 36.2827 13.0269ZM22.6377 35.2864L22.6871 35.2753C23.2492 35.1542 24.7286 35.0119 24.5503 35.9579C24.5419 36.0023 24.4772 35.9969 24.4657 35.9579C24.291 35.3631 23.1047 35.8387 22.7583 35.9819C22.2808 36.1792 21.8097 36.4703 21.4198 36.8086C20.5662 37.5495 19.994 38.5936 19.9069 39.7276C19.8206 40.8524 20.147 42.0674 20.9584 42.8811C21.3562 43.2799 21.8639 43.5507 22.4343 43.5706C22.9467 43.5884 23.5128 43.1895 23.9857 43.4231C24.0789 43.4692 24.1527 43.5956 24.1443 43.6997C24.1284 43.8967 24.0402 44.0501 23.909 44.169C24.7006 45.6116 25.3485 47.1384 26.3582 48.4502C26.8649 49.1084 27.4391 49.7178 28.0893 50.2365C28.3983 50.4831 28.7343 50.6997 29.0808 50.89C29.4868 51.1132 29.8381 51.2528 30.1279 51.6309C30.375 51.9534 30.1278 52.5768 29.7205 52.6324C28.7613 52.763 27.8291 51.9875 27.1249 51.4066C26.4214 50.8261 25.8133 50.1102 25.3108 49.3505C24.3459 47.8917 23.6858 46.1707 23.4219 44.4296C23.1154 44.5268 22.7705 44.5564 22.5109 44.557C21.8204 44.5586 21.1611 44.3102 20.6184 43.8904C18.6318 42.3539 18.411 39.1992 19.813 37.2098C20.4838 36.2579 21.5032 35.5546 22.6377 35.2864ZM22.6501 38.9453C23.1108 38.9049 23.571 38.9776 24.004 39.1346L24.1825 39.1994C24.5595 39.3372 24.9608 39.4993 25.2331 39.7819C25.6492 40.2139 25.2349 40.9625 24.6423 40.7969C23.9871 40.6139 23.4545 40.062 22.7995 39.8306C22.214 39.6238 21.5508 39.6531 21.0312 40.0093C20.9625 40.0563 20.8723 39.9635 20.9172 39.8952C21.3146 39.2899 21.9422 39.0074 22.6501 38.9453Z" fill="black"/>
<path fill-rule="evenodd" clip-rule="evenodd" d="M45.2192 48.7522C44.4826 48.7582 43.6545 48.4818 43.1008 48.2654L42.9565 48.2082C42.4772 48.0163 41.9849 47.7959 41.6178 47.4261C41.5005 47.3059 41.3755 47.17 41.312 47.0269C41.2748 46.9432 41.2593 46.8564 41.2953 46.7703C41.428 46.7572 41.5538 46.7403 41.673 46.7185C41.7297 46.7081 41.7841 46.6974 41.8257 46.6971C41.9793 46.6961 42.1313 46.7156 42.2831 46.7348C42.3051 46.7376 42.327 46.7404 42.349 46.7431C42.4672 46.7577 42.5849 46.7735 42.7023 46.7893C43.0438 46.8352 43.3835 46.8807 43.73 46.8972C43.9801 46.9092 44.2424 46.8952 44.507 46.8808C45.1933 46.8434 45.9029 46.7925 46.4317 47.2732C46.5702 47.399 46.6281 47.5576 46.6281 47.7192C46.6281 47.9155 46.5454 48.1153 46.4194 48.2721C46.134 48.627 45.6946 48.7483 45.2192 48.7522ZM49.2356 42.5615C48.9152 43.0422 48.3813 43.3514 47.6498 43.3178C46.1958 43.2513 44.4606 42.7027 43.2428 41.9095C42.9257 41.703 42.7201 41.3728 42.6832 41.0191L42.6176 40.3898L42.2631 40.9139C42.2261 40.9685 42.1889 41.0229 42.1516 41.0774C42.0489 41.2274 41.9464 41.3774 41.8496 41.5312C41.4781 42.1214 41.1375 42.7176 40.8283 43.3428C40.6094 43.7856 40.4493 44.2807 40.2887 44.7803C40.0178 45.6238 39.756 46.4534 39.177 47.0463C39.0894 47.1359 38.9548 47.168 38.8317 47.1522C38.7231 47.1382 38.6167 47.085 38.5645 46.9789C37.8727 45.5721 38.8032 43.8768 39.5581 42.6982L39.6379 42.5751C40.3378 41.51 41.4809 40.1005 42.79 39.9089L42.9399 40.1479L43.1578 40.0026C43.5142 39.7649 43.9846 39.776 44.3965 39.9619L44.8084 40.1478C45.5751 40.4919 46.3314 40.8094 47.1609 40.9833C47.2214 40.9959 47.2818 41.0078 47.3421 41.0187C47.399 41.0291 47.4563 41.0388 47.5139 41.0478C47.5014 40.9913 47.4882 40.935 47.4749 40.8788C47.4609 40.8195 47.4467 40.7599 47.4315 40.7006C47.4159 40.6393 47.3991 40.5784 47.3824 40.5177C47.316 40.2757 47.2409 40.0359 47.1519 39.8011C46.8169 38.9185 46.2821 38.093 45.7618 37.3056L45.7006 37.213C45.626 37.1002 45.5443 36.9824 45.4598 36.8607C45.054 36.2764 44.604 35.6423 44.5721 35.0057C45.1107 35.0396 45.5614 35.3742 45.9582 35.6656C46.5026 36.0651 47.0072 36.522 47.4649 37.0184C48.3528 37.9814 49.1496 39.2125 49.499 40.4852C49.6991 41.214 49.6111 41.9981 49.2356 42.5615ZM35.0304 35.3013L35.0303 35.2753C35.0319 34.5404 35.4599 32.8626 36.5178 32.8626C37.1787 32.8626 37.58 34.0045 37.6495 35.1816L37.6519 35.2296C37.6825 35.9614 37.4817 37.5611 36.5178 37.5611C35.5438 37.5611 35.0405 36.046 35.0304 35.3013ZM50.6059 35.0708L50.606 35.0448C50.6044 34.3099 50.1764 32.6321 49.1185 32.6321C48.4741 32.6321 48.0765 33.7176 47.9927 34.8629L47.9869 34.9511C47.9451 35.6583 48.1329 37.3306 49.1185 37.3306C50.0926 37.3306 50.5959 35.8155 50.6059 35.0708ZM38.5933 30.3279C38.4531 30.3444 38.3136 30.3659 38.1742 30.3881C37.7674 30.4529 37.3628 30.5307 36.961 30.6213C36.1978 30.7936 35.4407 31.0112 34.6981 31.257C34.0032 31.4871 33.3191 31.7472 32.6352 32.0073C32.5987 32.0211 32.5622 32.035 32.5257 32.0489C32.2842 32.1407 32.0435 32.2436 31.8021 32.3468C31.4347 32.5039 31.0656 32.662 30.689 32.7812C31.6813 31.4092 33.2104 30.3925 34.6817 29.665C35.5211 29.25 36.4117 28.9152 37.3076 28.641L37.8065 28.4911C38.5411 28.2743 39.3443 28.0741 40.0344 28.5063C40.3073 28.6772 40.4815 28.9429 40.5363 29.2301C40.5901 29.5118 40.5288 29.8138 40.3343 30.0659C40.1648 30.2855 39.9536 30.4105 39.7288 30.4534C39.4808 30.5007 39.2179 30.4487 38.9785 30.3209C38.7868 30.3066 38.7302 30.3118 38.6735 30.3181L38.5933 30.3279ZM49.6447 30.4675C49.153 30.3606 48.6662 30.3177 48.1617 30.3331C47.9336 30.34 47.7129 30.3752 47.4928 30.4107C47.151 30.4657 46.8105 30.5226 46.4422 30.4558C46.2501 30.4209 46.0864 30.3085 45.96 30.1618C45.8122 29.9903 45.7145 29.7711 45.6831 29.5627C45.6507 29.3474 45.683 29.1591 45.7626 28.9929C45.8567 28.7964 46.0153 28.6309 46.2069 28.4859C46.7866 28.047 47.7814 28.1525 48.4656 28.2413C49.1418 28.3292 49.8142 28.5389 50.4119 28.8719C51.0016 29.2006 51.5143 29.6433 51.9143 30.1846C52.2515 30.6407 52.4103 31.1658 52.5743 31.7004C51.8028 31.0531 50.6221 30.6797 49.6447 30.4675Z" fill="black"/>
</svg>
