<svg width="68" height="68" viewBox="0 0 68 68" fill="none" xmlns="http://www.w3.org/2000/svg">
<circle cx="34" cy="34" r="34" fill="white"/>
<path fill-rule="evenodd" clip-rule="evenodd" d="M20.4706 12.1627C23.6318 9.2867 27.8432 7.90314 32.0922 8.00527C34.2928 8.05826 36.4857 8.47737 38.5639 9.19517C39.6035 9.55551 40.6103 10.0257 41.5729 10.5575C41.9197 10.7487 42.2395 10.9728 42.5473 11.2107L42.624 11.2705H42.625C43.4507 11.5673 44.1877 12.1001 44.8564 12.7234C46.1966 12.6165 47.5474 12.7369 48.8433 13.1503C50.6469 13.7264 52.3167 14.7814 53.4892 16.2797C54.8551 18.0239 55.3091 20.1396 55.1471 22.3237L55.1172 22.6947C54.957 24.624 54.67 27.1056 53.0865 28.3733C52.9661 28.4697 52.8331 28.5429 52.6953 28.5872C53.7156 30.335 54.5529 32.2754 55.0539 34.2352C56.9664 41.7205 55.4962 49.5266 53.1963 56.7412C53.0075 57.3357 52.1086 57.7307 51.6509 57.1497C50.8339 56.1111 49.6469 55.3191 48.3115 55.1707C47.4877 55.0792 46.6678 55.2449 45.8893 54.8711C45.5838 54.7237 45.289 54.4828 45.077 54.1899C43.7628 54.688 42.3475 54.9231 40.9437 54.8653C38.64 54.7709 36.1773 53.9731 34.5924 52.2234C34.338 51.9426 34.2736 51.6272 34.3322 51.343C34.5309 51.2721 34.735 51.2193 34.9452 51.1862C36.9551 52.3707 39.1705 53.1622 41.5515 53.2119C42.9272 53.2407 44.2692 53.0483 45.3847 52.1892C45.626 52.0033 45.848 51.7974 46.0532 51.5761C48.3856 50.0758 50.0299 47.5275 50.8117 44.7978C51.5401 42.2523 51.4505 39.6018 51.2 36.9907L51.0678 35.6129C50.8752 33.5906 50.6965 31.5623 50.6464 29.5314L50.6615 29.5307C51.154 29.4989 51.1576 28.7278 50.6615 28.7599C49.3782 28.8429 48.1047 28.6324 46.8254 28.7241C46.8147 28.1193 46.7711 27.5173 46.5934 26.934C46.4919 26.6007 45.9116 26.535 45.8501 26.934C45.7679 27.4677 45.7378 27.9985 45.7288 28.5347C43.8143 28.5093 41.9016 28.3482 39.9868 28.4144C39.6335 28.0376 39.5211 27.3697 39.3559 26.905C39.3318 26.8366 39.3077 26.7691 39.2826 26.7007C39.1374 27.3647 38.9317 28.0142 38.6609 28.65L38.1913 28.6516C35.5268 28.6641 32.8081 28.7438 30.2062 29.2971C30.0254 29.1583 29.9178 28.9161 29.8887 28.6961C29.6999 27.2648 29.4306 25.8715 28.9532 24.5075L28.8849 24.315C28.8793 24.2991 28.8735 24.2821 28.8673 24.2643C28.5155 24.832 28.0958 25.3613 27.6381 25.8541C27.3683 26.1446 27.0854 26.4224 26.7951 26.6922C26.5131 27.0054 26.2217 27.3138 25.9392 27.6279C25.9502 27.685 25.9599 27.743 25.9677 27.8021C26.0541 28.4539 26.0631 29.1149 25.9998 29.7692C25.8853 30.9521 25.5514 32.0919 25.0149 33.1463L24.9979 33.2519C24.9165 33.7461 24.8005 34.2567 24.5299 34.6288C24.8677 35.0073 25.1279 35.4594 25.2788 35.9616C25.4131 36.4088 24.7944 36.7963 24.4736 36.4304C24.2188 36.1397 23.9356 35.8991 23.6246 35.7072C23.6049 35.7339 23.5695 35.747 23.5297 35.7247C22.6635 35.2439 21.1923 35.3894 20.3271 35.8423C19.2508 36.4049 18.8308 37.5601 18.9502 38.7308C19.0649 39.8494 19.5543 41.1568 20.5034 41.7301C20.9389 41.9931 21.278 42.0153 21.7405 41.8891C21.8884 41.8489 22.0717 41.7257 22.1504 41.6646L22.2278 41.6025C22.531 41.3629 22.8134 41.1988 23.1713 41.1925C23.5373 41.0783 23.9052 41.2367 24.0452 41.6205L24.0538 41.6453C24.1193 41.8409 24.2388 42.0866 24.2128 42.3853C24.1858 42.7052 24.0394 42.9961 23.8207 43.2303C23.7831 43.2707 23.7426 43.3112 23.7012 43.3488C27.4684 47.4272 27.9521 53.7823 26.0203 58.8772C25.9365 59.1008 25.8469 59.3214 25.7534 59.5401C25.4306 60.2897 24.1877 60.0575 24.0297 59.3147C23.9825 59.0921 23.9305 58.8705 23.8736 58.6508C23.7692 58.2449 23.6494 57.8427 23.5145 57.4464L23.4632 57.2981C23.3485 56.9705 23.2416 56.64 23.126 56.3124L23.1144 56.275C23.1101 56.2602 23.1053 56.2431 23.1 56.2238L22.9044 56.6506L22.3099 57.9388C22.0317 58.5399 21.1479 58.2132 21.115 57.634L21.1142 57.6141C21.1113 57.5072 21.1075 57.4012 21.1007 57.2962C21.0583 56.509 20.9225 55.744 20.7067 54.9954L20.6288 55.0921C19.4694 56.5256 18.1086 57.8692 16.2419 58.1999C15.7736 58.2828 15.2437 57.7933 15.5655 57.3202C15.6985 57.1247 15.8266 56.9243 15.948 56.721C15.843 56.6718 15.7438 56.6208 15.6522 56.5687C14.9441 56.1708 14.3544 55.6043 13.8669 54.9616C12.8331 53.5993 12.4631 51.8843 12.3725 50.2059C12.2762 48.4321 12.4323 46.562 12.9169 44.8508C13.1269 44.1109 13.4112 43.4008 13.7397 42.7119C13.7166 42.6502 13.6944 42.5886 13.6723 42.5269C13.3177 41.5384 13.0267 40.5277 12.7849 39.5054C12.2974 37.4416 12.0353 35.3123 12.0035 33.1917C11.9457 29.3927 12.6009 25.533 13.9815 21.9902C15.4075 18.3367 17.5522 14.8171 20.4706 12.1627ZM18.6949 45.3779C18.4331 44.9656 17.7779 45.3371 18.021 45.7523L18.0301 45.7671C18.4454 46.4213 18.64 47.1651 18.8789 47.8945C19.0321 48.3637 19.7769 48.1633 19.6218 47.6893L19.5704 47.531C19.3327 46.7914 19.1158 46.0397 18.6949 45.3779ZM20.9755 37.5081L21.1494 37.4239C21.6982 37.1621 22.179 36.9837 22.8273 37.2123C23.6954 37.5177 24.6252 38.4899 24.0384 39.4332C23.8226 39.781 23.4391 39.9197 23.0441 39.8378C22.3781 39.6997 22.2063 39.1 21.8683 38.6077L21.8102 38.5243C21.6041 38.2265 21.3436 37.8147 21.0005 37.6979C20.9225 37.6709 20.8897 37.5495 20.9755 37.5081ZM21.4648 17.4812L21.5208 17.431C21.8937 17.1015 21.3464 16.5581 20.9755 16.8857C19.2778 18.3858 18.6882 20.7339 17.8075 22.735C17.61 23.185 18.2739 23.5781 18.4733 23.1243C19.3133 21.2147 19.8709 18.9304 21.4648 17.4812ZM41.8658 16.825C41.4222 16.6251 41.0341 17.2706 41.4605 17.4832L41.4765 17.4908C42.9757 18.1681 43.6135 19.702 44.2244 21.126C44.419 21.5808 45.0828 21.1886 44.8901 20.7377L44.7799 20.4822C44.1425 19.0147 43.3991 17.5188 41.8658 16.825ZM44.2157 15.8981C43.7455 15.7353 43.5441 16.4791 44.0105 16.6419C45.2813 17.0842 46.1533 18.038 46.8884 19.1287C47.1639 19.5372 47.8316 19.1518 47.5532 18.7394C46.6996 17.4734 45.686 16.4107 44.2157 15.8981Z" fill="black"/>
<path fill-rule="evenodd" clip-rule="evenodd" d="M43.7499 45.8977C44.0805 45.3144 45.0669 45.4092 45.2177 46.0895C45.5236 47.4686 43.879 48.7422 42.63 48.774C41.3887 48.8055 39.996 47.749 40.1757 46.4146C40.2201 46.0845 40.661 46.1246 40.8113 46.3315L40.8696 46.4109C41.2779 46.9594 41.8165 47.527 42.5742 47.3933C42.8882 47.338 43.1734 47.1418 43.3632 46.8893C43.5921 46.5845 43.5669 46.2206 43.7499 45.8977ZM35.8572 35.808C36.0254 35.7617 36.1952 35.7796 36.3442 35.843C36.677 35.904 36.955 36.1815 37.0527 36.4982C37.0604 36.5257 37.069 36.5528 37.0785 36.5796L37.0933 36.6195L37.0534 36.518C37.0718 36.618 37.1533 36.7231 37.1825 36.8235C37.2186 36.9469 37.2273 37.0871 37.2152 37.223C37.321 37.224 37.4268 37.2276 37.5324 37.2368L37.6344 37.2459C38.2051 37.2989 38.8316 37.3962 39.1699 37.8893C39.3599 38.1664 39.1816 38.6653 38.8325 38.7187C38.2952 38.8009 37.8323 38.5035 37.2968 38.444C36.7906 38.3876 36.2609 38.4199 35.7612 38.5113C34.7296 38.6999 33.7817 39.1181 32.7764 39.3804L32.6395 39.4152L32.6397 39.4145C32.4674 39.4561 32.2719 39.2166 32.4423 39.0765C33.2477 38.4149 34.2788 37.8787 35.2946 37.5522C35.1466 37.3168 35.1008 37.0068 35.202 36.754C35.2177 36.7017 35.2371 36.6508 35.2576 36.6L35.3004 36.4955C35.3045 36.4463 35.314 36.3977 35.3276 36.35L35.3299 36.3354L35.3311 36.3363C35.4067 36.0905 35.6043 35.8778 35.8572 35.808ZM46.1323 35.846C46.3525 35.6257 46.662 35.6582 46.8919 35.8317L46.9224 35.8556C47.1391 35.9518 47.3184 36.1622 47.4361 36.3571C47.5584 36.5595 47.6396 36.7657 47.6428 36.9885C48.176 36.9903 48.6867 37.1502 49.0782 37.5807C49.2046 37.7196 49.2909 37.9339 49.2214 38.1223L49.18 38.2343C49.0485 38.5901 48.4575 38.7949 48.2567 38.3765L48.2474 38.3561C48.034 37.8593 47.2147 37.9115 46.7793 37.9622C46.4758 37.9978 46.1761 38.0732 45.883 38.1577C45.7797 38.1875 45.6774 38.2198 45.5752 38.2528L45.4729 38.286C45.4184 38.3036 45.1344 38.4579 45.3111 38.4213C45.3586 38.4115 45.3943 38.4807 45.3459 38.5039C45.1352 38.6046 44.9106 38.4041 44.9246 38.1779C44.949 37.7852 45.5726 37.5699 45.8727 37.4344L45.8906 37.4263C46.0057 37.3731 46.1262 37.3221 46.2506 37.2748C46.1806 37.1707 46.1228 37.0551 46.0747 36.931C46.0293 36.8139 45.9989 36.7 45.9822 36.5754C45.9659 36.5145 45.9659 36.4536 45.9822 36.3926L45.9847 36.3752C45.9763 36.3349 45.9722 36.2933 45.9728 36.2514L45.9711 36.2351H45.9728C45.9787 36.0884 46.037 35.9413 46.1323 35.846ZM42.6128 40.028C43.4591 40.2895 44.8551 41.0018 44.4142 42.1013C43.7984 43.111 42.1654 42.3689 41.3741 42.0427C40.6631 41.8072 40.2929 42.8035 40.9804 43.1039C46.661 45.3512 46.6401 39.4201 42.8188 39.5072C42.3981 39.5167 42.3849 39.9411 42.6128 40.028ZM35.0972 32.2944L35.2415 32.2523C35.9916 32.035 36.7573 31.6598 37.4232 32.2453C37.6847 32.4751 37.7386 32.9528 37.5515 33.2396C37.1252 33.8929 36.4931 33.7931 35.8047 33.8488C35.2805 33.8912 34.7642 34.0451 34.275 34.2375C33.8751 34.3949 33.5043 34.6164 33.1541 34.8634C32.8102 35.1063 32.5752 35.486 32.2223 35.7046C32.093 35.7848 31.9437 35.7023 31.8973 35.5724C31.7327 35.1113 32.0108 34.537 32.246 34.1442C32.5333 33.6649 32.9695 33.273 33.4386 32.9764C33.9523 32.6516 34.5204 32.4641 35.0972 32.2944ZM46.0267 31.7983C47.2946 31.798 48.5145 32.5031 49.2237 33.5369C49.4646 33.888 49.288 34.4083 48.9421 34.6106C48.5541 34.8375 48.1392 34.6741 47.8835 34.3488L47.8683 34.3291C47.4616 33.7875 46.9374 33.361 46.316 33.0833C46.0127 32.9478 45.6775 32.8378 45.3495 32.7821L45.2435 32.7639C45.0949 32.739 44.9226 32.7152 44.7883 32.7385C44.7163 32.748 44.6502 32.7717 44.5893 32.808C44.6186 32.872 44.543 32.949 44.4731 32.9107C44.158 32.7376 44.1967 32.4289 44.4569 32.189C44.8251 31.8496 45.5512 31.7984 46.0267 31.7983Z" fill="black"/>
</svg>
