<svg width="68" height="68" viewBox="0 0 68 68" fill="none" xmlns="http://www.w3.org/2000/svg">
<circle cx="34" cy="34" r="34" fill="white"/>
<path fill-rule="evenodd" clip-rule="evenodd" d="M54.3827 33.3607C54.276 34.7072 53.7053 35.9189 53.2275 37.1738C53.2796 36.4312 53.2551 35.6585 53.3071 34.8875C52.7514 30.0595 46.1857 28.7911 43.6369 25.1404C43.7334 24.9343 43.7682 23.091 43.3881 23.6094C41.9139 30.0605 33.1513 33.2971 27.1521 33.3095C26.6983 32.9356 25.7985 33.3306 25.9685 34.0759C26.8656 38.0089 27.062 42.123 26.4859 46.1193C26.2144 47.5304 26.1686 49.2284 25.322 50.4443C24.4233 51.299 25.5037 51.3676 26.0982 51.1747C26.264 51.4077 26.439 51.634 26.6146 51.8595C25.7605 52.4494 24.5144 52.1277 23.6305 51.7349C22.6472 51.2145 22.0852 50.2059 21.3727 49.3975C20.9838 48.6146 20.3938 48.1646 19.6353 47.7406C15.4159 44.8728 15.5248 38.582 16.1305 34.0353C17.8956 20.5054 32.9125 13.9772 44.9642 18.6775C51.4727 20.3418 54.5221 27.071 54.3827 33.3607ZM15.1287 25.7009C12.5549 23.1376 13.073 18.6566 14.6909 15.7017C17.933 9.52768 27.1414 9.72831 28.244 17.2119C23.5481 18.8205 19.5857 22.2699 17.2265 26.6255C16.4584 26.5434 15.7159 26.2013 15.1287 25.7009ZM54.5305 27.6753C52.6841 16.5077 38.5851 14.4942 29.3977 16.8448C29.2285 14.6966 27.8752 12.7985 26.1863 11.5499C19.0126 6.38778 10.5196 15.1521 12.2199 22.7056C12.5249 24.9938 14.3541 27.6049 16.9133 27.2133C13.6964 33.3011 12.4395 45.5769 19.527 49.3716C20.2108 49.8583 20.3243 50.8466 20.8505 51.4802C21.7048 52.5023 25.3548 53.8042 27.3294 52.7608C27.7988 53.3368 30.4635 55.0886 30.2693 53.3714C30.0733 52.9088 29.4675 52.7881 29.0642 52.5595C28.2166 52.0915 27.4801 51.432 26.9015 50.6573C28.7189 45.5327 28.5804 39.8267 27.5623 34.5501C33.6466 34.2441 40.806 31.5772 43.4896 25.721C45.3038 29.9828 50.9297 30.5312 52.3508 35.2961C52.4366 37.7987 51.8999 40.2642 52.2891 42.768C52.4033 45.2205 53.6997 47.6567 52.9502 50.093C50.8562 55.406 43.3182 56.1856 38.338 55.9635C37.1551 55.8659 36.1733 55.2266 35.2009 54.6197C34.618 54.3431 33.9242 54.9217 34.2813 55.5393C35.6448 57.442 38.4494 57.6083 40.6029 57.5397C46.1918 57.2084 54.2689 55.5572 54.559 48.6559C54.3747 45.9202 53.3012 43.3021 53.2229 40.5387C53.4527 40.2702 53.4656 39.8974 53.5229 39.5579C53.7719 38.3546 54.316 37.238 54.5881 36.0381C55.1969 33.3145 55.0913 30.4046 54.5305 27.6753Z" fill="black"/>
<path fill-rule="evenodd" clip-rule="evenodd" d="M44.5239 51.2908C43.925 51.2957 43.2517 51.0709 42.8015 50.8949L42.6841 50.8485C42.2943 50.6924 41.8941 50.5132 41.5956 50.2125C41.5001 50.1148 41.3985 50.0042 41.3469 49.8879C41.3167 49.8198 41.3041 49.7493 41.3333 49.6792C41.4413 49.6686 41.5435 49.6548 41.6404 49.6371C41.6866 49.6287 41.7308 49.6199 41.7646 49.6197C41.8895 49.6189 42.0131 49.6348 42.1365 49.6504C42.1544 49.6526 42.1723 49.6549 42.1901 49.6571C42.2863 49.669 42.3819 49.6819 42.4774 49.6947C42.7551 49.732 43.0313 49.769 43.313 49.7824C43.5164 49.7922 43.7297 49.7808 43.9449 49.7691C44.5029 49.7387 45.0799 49.6972 45.5099 50.0881C45.6225 50.1905 45.6696 50.3194 45.6696 50.4508C45.6696 50.6104 45.6024 50.7729 45.4999 50.9004C45.2678 51.189 44.9106 51.2876 44.5239 51.2908ZM47.7898 46.2569C47.5293 46.6478 47.0952 46.8992 46.5003 46.8719C45.3181 46.8178 43.9071 46.3718 42.9169 45.7268C42.6591 45.5589 42.4919 45.2904 42.4619 45.0028L42.4085 44.4911L42.1202 44.9172C42.0902 44.9616 42.0599 45.0059 42.0296 45.0502C41.9461 45.1722 41.8627 45.2941 41.784 45.4191C41.4819 45.8991 41.205 46.3838 40.9536 46.8923C40.7756 47.2522 40.6454 47.6549 40.5149 48.0611C40.2945 48.747 40.0817 49.4216 39.6108 49.9036C39.5397 49.9765 39.4302 50.0026 39.3301 49.9897C39.2418 49.9784 39.1553 49.9351 39.1129 49.8489C38.5503 48.7049 39.3069 47.3264 39.9207 46.3681L39.9856 46.268C40.5548 45.4019 41.4842 44.2558 42.5487 44.1L42.6706 44.2944L42.8478 44.1762C43.1376 43.983 43.5201 43.9919 43.855 44.1431L44.1899 44.2943C44.8134 44.5741 45.4283 44.8322 46.1029 44.9736C46.152 44.9839 46.2011 44.9935 46.2502 45.0025C46.2965 45.0109 46.343 45.0188 46.3898 45.0261C46.3797 44.9801 46.369 44.9344 46.3582 44.8887C46.3467 44.8404 46.3352 44.792 46.3229 44.7438C46.3101 44.6939 46.2965 44.6444 46.283 44.595C46.2289 44.3983 46.1679 44.2033 46.0955 44.0124C45.8231 43.2947 45.3883 42.6234 44.9652 41.9832L44.9154 41.9079C44.8547 41.8161 44.7883 41.7204 44.7196 41.6214C44.3896 41.1463 44.0237 40.6307 43.9978 40.1131C44.4358 40.1407 44.8023 40.4128 45.1249 40.6496C45.5676 40.9745 45.9779 41.346 46.35 41.7497C47.072 42.5327 47.7199 43.5338 48.004 44.5686C48.1667 45.1612 48.0952 45.7988 47.7898 46.2569ZM36.2392 40.3534L36.239 40.3323C36.2404 39.7347 36.5884 38.3704 37.4486 38.3704C37.986 38.3704 38.3123 39.2989 38.3688 40.2561L38.3707 40.2951C38.3957 40.8902 38.2324 42.191 37.4486 42.191C36.6566 42.191 36.2473 40.959 36.2392 40.3534ZM48.904 40.166L48.9042 40.1449C48.9028 39.5473 48.5548 38.183 47.6946 38.183C47.1706 38.183 46.8474 39.0657 46.7792 39.997L46.7744 40.0687C46.7405 40.6437 46.8932 42.0035 47.6946 42.0035C48.4866 42.0035 48.8959 40.7716 48.904 40.166ZM39.1363 36.3094C39.0223 36.3228 38.9088 36.3403 38.7955 36.3583C38.4647 36.411 38.1357 36.4743 37.8089 36.548C37.1884 36.6881 36.5728 36.865 35.9689 37.0649C35.4039 37.252 34.8476 37.4635 34.2915 37.6749C34.2618 37.6862 34.2322 37.6975 34.2025 37.7088C34.0061 37.7835 33.8104 37.8671 33.6141 37.951C33.3154 38.0788 33.0152 38.2074 32.709 38.3043C33.5159 37.1886 34.7592 36.362 35.9556 35.7704C36.6382 35.4329 37.3623 35.1607 38.0908 34.9377L38.4964 34.8158C39.0938 34.6396 39.7469 34.4768 40.308 34.8282C40.53 34.9672 40.6716 35.1832 40.7162 35.4168C40.7599 35.6458 40.71 35.8914 40.5519 36.0964C40.4141 36.2749 40.2423 36.3766 40.0596 36.4115C39.8579 36.4499 39.6441 36.4077 39.4495 36.3037C39.2936 36.2921 39.2476 36.2963 39.2015 36.3015L39.1363 36.3094ZM48.1225 36.423C47.7227 36.336 47.3268 36.3011 46.9166 36.3137C46.7311 36.3192 46.5517 36.3479 46.3727 36.3767C46.0948 36.4215 45.8179 36.4678 45.5184 36.4134C45.3622 36.385 45.2291 36.2937 45.1263 36.1744C45.0062 36.0349 44.9267 35.8567 44.9012 35.6872C44.8749 35.5121 44.9011 35.359 44.9658 35.2239C45.0424 35.0641 45.1713 34.9295 45.3271 34.8116C45.7985 34.4547 46.6074 34.5406 47.1637 34.6127C47.7135 34.6842 48.2603 34.8547 48.7463 35.1255C49.2258 35.3927 49.6427 35.7528 49.968 36.1929C50.2421 36.5638 50.3713 36.9907 50.5046 37.4254C49.8773 36.8991 48.9172 36.5955 48.1225 36.423Z" fill="black"/>
</svg>
