<svg width="68" height="68" viewBox="0 0 68 68" fill="none" xmlns="http://www.w3.org/2000/svg">
<circle cx="34" cy="34" r="34" fill="white"/>
<path fill-rule="evenodd" clip-rule="evenodd" d="M29.2488 11.0709C32.1431 10.6728 36.138 11.9667 37.5794 14.5758C44.4611 12.9535 53.1407 12.9003 58.8126 18.3011C64.731 24.7076 57.2972 33.1546 52.3679 35.059C52.7268 36.8031 52.1672 47.9766 48.2078 52.9606C45.0655 57.1835 37.7478 59.1324 34.3617 54.0885L34.3353 54.0469C33.9725 53.4644 34.2849 53.4831 34.6573 53.9164C37.9731 56.8322 42.4813 56.882 45.9554 53.8048C52.4663 48.1803 51.795 34.3893 48.6968 26.411C39.8747 25.442 30.429 28.116 24.3356 34.7568L24.7477 37.2373C24.8179 37.6599 24.8976 38.0822 24.9585 38.5063C24.9974 38.778 25.0018 39.0482 24.8135 39.2682C24.1919 39.9943 23.1442 38.9032 22.2822 38.4692C22.0278 38.4334 21.7728 38.4196 21.5228 38.4372C17.3813 38.9706 18.1973 47.0045 22.7491 45.5962C23.1315 45.358 23.4601 45.4307 23.6085 45.7764C24.6934 46.7702 25.4088 48.5426 27.2113 50.2497C27.8473 50.8901 28.4261 51.4258 29.1415 51.9395C29.5617 52.3644 30.8296 52.7977 30.4277 53.5248C29.6676 55.1795 25.1855 49.982 24.393 48.5446C21.9102 49.5251 19.1587 49.192 16.5857 48.9524C3.01166 48.2467 4.82375 33.9382 15.95 24.9045C18.0444 23.3627 20.3552 22.1049 22.7572 21.137C23.0851 21.0048 22.9418 20.4664 22.6092 20.6004C21.0199 21.2409 19.4705 22.0033 17.9936 22.8857L17.9914 22.3582C17.9892 21.4697 18.0031 20.5446 18.1575 19.7328C18.2346 19.1702 18.3644 18.5694 18.5641 18.1174C18.8111 16.7316 22.6796 11.9749 29.2488 11.0709ZM21.3417 40.2816C21.5513 40.0825 21.9425 40.3199 22.1291 40.314C22.6062 40.3792 23.0595 40.5808 23.4131 40.8295C23.6465 40.9602 23.8101 41.083 23.9468 41.196L23.9505 41.195C23.9494 41.195 23.9481 41.196 23.947 41.1963L23.9599 41.205C24.1589 41.3464 24.8876 42.1429 24.4272 41.9287C24.3929 41.8841 24.3578 41.8413 24.3223 41.7992C24.3185 41.805 24.3133 41.8107 24.307 41.8161L24.3328 41.8545C24.7241 42.4431 24.0486 41.823 23.9446 41.6583C23.9397 41.6623 23.9341 41.665 23.9287 41.6678L24.064 41.8326C24.0829 41.8559 24.0978 41.8746 24.1102 41.8904L24.1387 41.918C24.5911 42.3626 24.6052 42.7628 24.0797 42.1054C24.1003 42.1364 24.1169 42.1692 24.1193 42.1983L24.1504 42.238C24.563 42.7697 24.2274 42.5809 24.0224 42.3538L24.0052 42.3343L24.0087 42.3396C24.1995 42.6334 23.821 42.4272 23.7541 42.27L23.7513 42.2629C23.6784 42.2035 23.6335 42.1367 23.6182 42.1199L23.6153 42.1171C23.2605 41.7535 22.7462 41.4459 22.3093 41.3062C22.246 41.2941 22.1819 41.2845 22.1171 41.2776C21.8544 41.219 21.5888 41.1788 21.3204 41.1571C21.2876 41.1532 21.2543 41.1291 21.2295 41.098C20.8236 41.0843 20.9489 40.9179 21.1173 40.887L21.1202 40.8865L21.0868 40.8837C20.8264 40.8583 20.6485 40.7649 20.9118 40.7075L20.9452 40.7009C20.9411 40.6945 20.9375 40.6881 20.934 40.6817C20.7085 40.6569 20.8556 40.4377 20.9808 40.4907C20.9282 40.3185 21.1689 40.4045 21.1989 40.3789C21.2219 40.3535 21.2503 40.331 21.2667 40.3298C21.3393 40.2786 21.3041 40.2833 21.3417 40.2816ZM22.7216 37.4934L22.6688 37.5243C22.626 37.5492 22.5821 37.5658 22.5379 37.5756C22.6002 37.6021 22.6618 37.6307 22.7228 37.6613C22.7218 37.6239 22.7211 37.5866 22.7211 37.5493L22.7216 37.4934Z" fill="black"/>
<path fill-rule="evenodd" clip-rule="evenodd" d="M34.2911 48.1152C34.3009 47.0934 35.1863 46.9172 36.0275 47.0534C37.4515 47.2838 38.8807 47.4459 40.324 47.4751L40.5727 47.4795C40.6128 47.421 40.6798 47.3767 40.7706 47.367C41.5707 47.2805 42.388 47.2945 43.1924 47.2708C43.8941 47.2502 44.6153 47.18 45.3169 47.2351L45.3728 47.24C46.2303 47.323 47.1353 47.7607 47.0317 48.7671C46.9365 49.699 46.0456 50.524 45.3342 51.0419C45.1904 51.1456 45.0433 51.2429 44.892 51.3316C44.8445 51.3921 44.7752 51.4343 44.6952 51.443C43.9947 51.8213 43.2217 52.0452 42.4215 52.1198C40.7252 52.2776 38.7531 52.1068 37.1238 51.3717C36.5941 51.1327 36.1 50.8342 35.6632 50.4677C34.9897 49.9023 34.2836 49.045 34.2911 48.1152ZM40.9749 50.1412C40.2949 50.1207 39.616 50.2159 38.9683 50.4256C38.5294 50.5672 38.1293 50.8396 37.7087 51.0289C39.1261 51.5695 40.7728 51.6873 42.2269 51.5889C42.8648 51.5457 43.4833 51.3986 44.0596 51.1456C43.9698 51.0808 43.8789 51.0149 43.7838 50.9575C43.4963 50.7834 43.1956 50.6353 42.8821 50.5174C42.2713 50.2883 41.6269 50.1618 40.9749 50.1412ZM41.2029 41.206C41.0194 41.0743 41.165 40.6381 41.5571 40.7055C45.1179 41.3173 43.2729 47.451 38.7266 44.0851C38.1853 43.6484 38.8408 42.6867 39.4242 43.0606L39.6313 43.2203C40.3048 43.7365 41.4187 44.5169 42.2168 43.6795C42.9702 42.6242 41.9032 41.6316 41.2029 41.206ZM43.6135 36.5637C44.3705 35.9179 45.3198 36.3938 45.8771 37.048L45.9753 37.1649C46.0868 37.2984 46.2102 37.4538 46.2844 37.62C46.902 37.0942 47.7394 36.7242 48.5407 36.9643C49.3179 37.1981 49.7611 37.94 49.6276 38.7366C49.4762 39.6423 48.7909 40.2512 48.0545 40.7219L47.8456 40.8545C46.9607 41.4187 46.1327 41.987 45.4044 42.7624C45.2856 42.8884 45.0288 42.8717 44.9509 42.704L44.8882 42.5689L44.8247 42.434C44.3081 41.3324 43.7546 40.238 43.3001 39.1104C42.9634 38.2747 42.8541 37.211 43.6135 36.5637ZM34.9849 37.1487L35.1002 37.0154C35.6548 36.3699 36.5942 35.9378 37.3353 36.5638C38.1244 37.2305 37.9695 38.3332 37.6181 39.1836C37.1948 40.2093 36.7005 41.2123 36.2255 42.2184L36.1241 42.4341C36.0814 42.524 36.0397 42.614 35.998 42.7039C35.92 42.8718 35.6623 42.8885 35.5444 42.7623C34.8388 42.0112 34.0404 41.4554 33.1877 40.9091L32.9303 40.7453C32.1818 40.2705 31.4742 39.6575 31.3203 38.7366C31.1886 37.9418 31.6291 37.1953 32.4071 36.9643C33.2102 36.7261 34.0458 37.0933 34.6644 37.62C34.7381 37.4496 34.865 37.2891 34.9849 37.1487ZM35.9996 32.5182C36.2705 32.8698 35.9813 33.4445 35.5858 33.5354C35.0959 33.6481 34.6011 33.5795 34.1201 33.7193C33.6794 33.8474 33.2573 34.104 32.8796 34.3597C32.4488 34.6513 32.0521 34.9768 31.6875 35.3477C31.4707 35.5683 31.1975 36.091 30.8631 36.1007C30.5306 36.1104 30.9769 35.0708 31.0138 34.9808C31.276 34.3404 31.6442 33.7512 32.1049 33.235C33.0138 32.2165 34.9387 31.1417 35.9996 32.5182ZM46.1499 32.2367L46.3768 32.2997C46.9383 32.4558 47.5376 32.6476 48.0193 32.9841L48.0571 33.0109L48.1154 33.0536C48.7201 33.5044 49.5754 34.4039 49.1472 35.1887C49.1176 35.2427 49.0549 35.2481 49.0044 35.2261C48.4347 34.9765 48.0123 34.4781 47.4062 34.2696L47.2944 34.2316C46.7075 34.0339 45.9813 33.826 45.3496 33.8449C44.9054 33.9893 44.3054 33.8697 44.1898 33.329L44.1846 33.3025L44.1746 33.2465C44.108 32.877 44.207 32.406 44.589 32.2279C45.1124 31.984 45.623 32.0925 46.1499 32.2367Z" fill="black"/>
</svg>
