<svg width="68" height="68" viewBox="0 0 68 68" fill="none" xmlns="http://www.w3.org/2000/svg">
<circle cx="34" cy="34" r="34" fill="white"/>
<path fill-rule="evenodd" clip-rule="evenodd" d="M55.6978 22.6617C55.15 21.1401 54.5713 19.6303 53.9625 18.1321C53.3696 16.674 52.834 15.1844 52.0977 13.7954C47.7001 5.49953 39.7032 5.49953 35.5694 6.58349C33.4257 5.65987 29.4105 5.9204 27.1784 6.75385C23.5647 8.10312 19.1596 13.4108 17.6535 15.7956C14.3283 21.0608 12.253 28.0687 14.4619 34.1529C14.7506 34.9481 15.1188 35.6845 15.5333 36.3943C15.2722 36.7482 14.9716 37.0834 14.6387 37.4128C13.6492 38.3917 12.6598 39.3384 11.8051 40.4424C10.9557 41.5397 10.2516 42.7065 9.72737 43.993C8.73894 46.4191 8.69134 49.1662 9.99811 51.4812C11.135 53.4955 13.149 54.9954 15.4181 55.1384C15.5346 55.1546 15.6512 55.1695 15.7684 55.1813C16.069 55.6765 16.4356 56.1325 16.854 56.53C18.1359 57.7492 21.1915 58.3747 22.9344 58.4148C23.0237 58.4866 23.1139 58.5584 23.2041 58.6294C24.2705 59.4687 25.3896 60.3155 26.6138 60.9126C27.4431 61.3176 28.5304 61.6558 29.3956 61.3635C29.788 61.6257 30.4319 61.5706 30.8211 61.356C31.4608 61.0036 31.981 60.3689 32.2975 59.7192C33.065 58.1417 32.8804 56.4156 32.6833 54.7303C32.4662 52.8689 32.2574 51.0066 32.0453 49.1452C31.8791 47.6896 31.7054 46.2098 31.2628 44.8077C31.034 44.0811 30.7342 43.383 30.3467 42.7266C30.3568 42.6715 30.3551 42.6164 30.3392 42.5646C30.2123 42.1521 29.9501 41.9358 29.6394 41.6552C29.5993 41.6193 29.5592 41.5825 29.52 41.5449C29.3647 41.3679 29.1985 41.2034 29.0206 41.0639C28.9521 40.9946 28.8845 40.9245 28.8168 40.8543C28.2548 40.2656 27.7237 39.6468 27.2519 38.9837C26.7942 38.3407 26.3808 37.6692 25.9875 36.9853C25.5875 36.2897 25.3228 35.5222 24.9236 34.8316C24.8894 34.7723 24.8025 34.7606 24.7541 34.8099C24.6305 34.9376 24.5511 35.0796 24.5662 35.2291L24.5044 35.2383C24.481 35.0128 24.273 34.8291 23.9908 34.8783C23.5682 34.9518 23.2208 34.9794 22.8551 34.8391C22.9194 34.4124 22.9786 33.9848 23.0371 33.5564C23.144 32.768 23.2434 31.9772 23.3286 31.1864C23.5348 31.2356 23.7394 31.3066 23.9398 31.3968C24.2254 31.5246 24.4952 31.6966 24.7257 31.9079C24.9528 32.1167 25.1098 32.3981 25.3871 32.5434C25.7061 32.7096 26.0911 32.4348 25.9975 32.0741C25.808 31.345 24.7349 30.9275 24.071 30.7897C23.843 30.7421 23.61 30.722 23.377 30.7271C23.4296 30.2193 23.4764 29.7116 23.5148 29.203C23.5332 28.9625 23.5499 28.722 23.5657 28.4806C24.0818 28.3245 24.6346 28.2777 25.1716 28.3512C25.3487 28.4923 25.5257 28.6318 25.6969 28.7729C26.2405 29.2222 26.7817 29.674 27.3162 30.1341C27.3646 30.1751 27.4122 30.216 27.4606 30.2577C27.778 30.5308 28.1738 30.2602 28.1204 29.8736C27.6844 26.7052 29.6252 24.1849 31.8975 22.2324C34.4128 20.0703 38.9858 19.8186 41.9772 16.0736C43.3548 16.354 46.4308 17.1868 47.7001 19.2094C49.4772 22.0437 49.245 24.5832 49.3803 27.7984C49.5156 31.016 49.8597 34.3723 49.129 37.5448C48.455 40.4702 46.6303 42.9696 43.7994 44.1187C43.7292 44.1471 43.6582 44.1747 43.5872 44.2014C42.1233 44.7534 40.5258 44.9096 38.9858 44.6189C37.2814 44.2966 35.8584 43.5166 34.4404 42.5571C34.3585 42.5028 34.2391 42.6147 34.3009 42.6965C36.1699 45.1734 39.841 46.001 42.753 45.3471C42.8891 45.3162 43.0244 45.2828 43.1588 45.2461C42.5075 47.1192 42.6386 49.1752 43.487 50.9991C43.9973 52.0964 44.7756 53.0459 45.7234 53.795C46.7681 54.6201 48.0642 55.2865 48.7891 56.4448C49.453 57.5062 49.2559 58.6987 48.1193 59.3117C47.8329 59.467 47.7226 59.9689 48.0066 60.1894C48.1151 60.2729 48.2237 60.3581 48.3348 60.4416C48.9711 60.9218 50.719 61.8237 51.0021 61.8571C53.5157 62.1552 55.206 60.3096 56.2891 58.1325C57.561 55.5771 57.2303 52.463 55.829 50.0295C54.7049 48.0771 52.4911 46.153 53.3713 43.682C53.6853 42.7993 54.3275 42.0468 54.9513 41.3671C55.6628 40.5929 56.4277 39.8681 57.11 39.0664C57.7881 38.2705 58.3894 37.4045 58.7251 36.4057C59.2153 34.946 58.9714 33.3676 58.6032 31.9104C57.814 28.7821 56.7893 25.6956 55.6978 22.6617Z" fill="black"/>
<path fill-rule="evenodd" clip-rule="evenodd" d="M41.4323 36.1067C42.467 36.1017 44.0169 36.0716 45.0508 36.1326C45.3489 36.1501 45.4959 36.576 45.5168 36.7781C45.7147 38.6563 44.2148 40.1544 42.5588 40.7348C41.0222 41.2735 38.993 41.3753 37.6226 40.3691C37.0271 39.9323 36.5762 39.3268 36.2822 38.6529C36.1236 38.2897 36.0075 37.913 35.9432 37.5222C35.8939 37.2241 35.8004 36.8224 35.9098 36.5293C36.0601 36.1292 36.4785 36.1576 36.8367 36.151C37.3311 36.1409 37.8255 36.1283 38.319 36.1226C39.3571 36.1108 40.3951 36.1108 41.4323 36.1067ZM44.3025 36.6536C43.8374 36.7038 38.7015 36.7405 37.9082 36.758C37.7887 36.7606 37.6635 36.758 37.5365 36.7547C37.4486 37.0267 37.6768 37.5869 37.9224 37.6842C38.1679 37.7814 40.2439 37.8769 41.4699 37.8209C42.3058 37.7833 44.4742 37.2766 44.4742 37.0592C44.4742 36.8418 44.3819 36.6453 44.3025 36.6536ZM33.9147 31.8359C34.0744 31.7514 34.2238 31.8608 34.2445 32.0251C34.2862 32.3551 34.112 32.6999 34.1032 33.0397C34.0938 33.4031 34.1333 33.7661 34.1211 34.1295C34.0998 34.7641 33.9102 35.4012 33.5436 35.9238C33.106 36.5475 31.9518 37.2287 31.401 36.3258C31.0049 35.6766 31.3162 34.7297 31.6045 34.1033C31.8306 33.6123 32.1594 33.1582 32.5276 32.7639C32.7727 32.5014 33.2879 31.9099 33.6839 31.9694C33.6991 31.9717 33.706 31.9899 33.703 32.0031C33.7004 32.0147 33.6959 32.025 33.6924 32.036C33.7496 31.9545 33.8217 31.885 33.9147 31.8359ZM33.6131 32.1768C33.5429 32.2606 33.4474 32.3276 33.3666 32.4095C33.1946 32.5837 33.0238 32.7586 32.8696 32.9491C32.5886 33.2962 32.3566 33.6841 32.1726 34.0906C31.9533 34.5752 31.592 35.4058 31.8496 35.9446C31.9878 36.2333 32.3432 36.1815 32.5828 36.0409C33.0306 35.7785 33.2948 35.2184 33.4202 34.7367C33.5601 34.1994 33.4783 33.6541 33.4809 33.1072C33.4822 32.8279 33.4873 32.4593 33.6131 32.1768ZM46.6629 30.9847C46.6705 30.7781 46.8777 30.6684 47.0575 30.7582C47.3656 30.9121 47.4955 31.2247 47.6656 31.5114C47.8629 31.8439 48.0602 32.1764 48.2575 32.5089C48.6055 33.0955 49.0807 33.7216 49.2561 34.3888C49.5153 35.3749 48.6597 36.0986 47.7112 35.8868C46.7216 35.6658 46.3541 34.5149 46.375 33.6159C46.3859 33.1453 46.4957 32.6674 46.5884 32.2078C46.643 31.9374 46.6618 31.6437 46.7317 31.3726C46.6853 31.2443 46.658 31.1145 46.6629 30.9847ZM41.6369 31.8351C41.4716 31.7166 41.6028 31.3237 41.9558 31.3845C45.1623 31.9354 43.5009 37.4588 39.4069 34.4278C38.9195 34.0346 39.5098 33.1685 40.0351 33.5053C40.6017 33.9397 41.7514 34.9004 42.5499 34.0626C43.2283 33.1123 42.2675 32.2185 41.6369 31.8351ZM47.1434 32.0988C47.1038 32.3629 47.0446 32.6169 47.0171 32.8045C46.9088 33.5428 46.832 34.5017 47.4423 35.0602C47.7006 35.2966 48.1494 35.3842 48.4495 35.1612C48.8886 34.835 48.4277 34.2076 48.2228 33.8726C47.9202 33.3777 47.6221 32.8804 47.3261 32.3816C47.2725 32.2912 47.2091 32.1965 47.1434 32.0988ZM35.3993 28.2634C36.4478 28.0939 37.5821 28.7845 37.9481 29.7798C38.0405 30.0309 37.8871 30.3419 37.6672 30.4704C37.4135 30.6185 37.1424 30.5467 36.9262 30.3747C36.6358 30.1437 36.4977 29.7727 36.1787 29.5628C35.9087 29.3851 35.547 29.3757 35.2367 29.4271C34.5069 29.5478 33.9334 30.0187 33.2669 30.2938C33.1735 30.3324 33.1188 30.2126 33.1502 30.142C33.5538 29.2347 34.3967 28.4255 35.3993 28.2634ZM45.564 28.2224C46.4021 28.1505 47.4006 28.5135 47.6656 29.3758C47.672 29.3965 47.6502 29.4209 47.6286 29.4129C47.1215 29.2249 46.5607 29.1107 46.0187 29.2063C45.6696 29.2679 44.9805 29.515 44.9542 29.9155C44.9133 30.5329 44.197 30.6849 43.848 30.215C43.5086 29.7581 43.8006 29.1331 44.1756 28.8028C44.5688 28.4566 45.0454 28.2669 45.564 28.2224ZM37.5272 24.723C37.7092 24.9297 37.7718 25.314 37.5272 25.512C37.097 25.8602 36.6213 25.7252 36.1057 25.7547C35.6808 25.7791 35.2724 25.8494 34.8632 25.9664C33.9653 26.223 33.2336 26.6915 32.4668 27.206C32.3661 27.2734 32.2634 27.1447 32.3114 27.0506C32.7541 26.1835 33.612 25.4713 34.4713 25.0371C34.93 24.8054 35.4319 24.6131 35.9393 24.525L36.096 24.4975C36.5811 24.4136 37.1841 24.333 37.5272 24.723ZM44.3408 24.1365L44.4608 24.1611C45.7667 24.4341 47.4633 24.9793 48.0817 26.262C48.1052 26.4434 48.0803 26.4822 48.0601 26.5076L48.0533 26.5161C48.0367 26.5378 48.0234 26.5677 47.9447 26.5924C47.9229 26.5872 47.9009 26.5817 47.8786 26.5758C47.5952 26.5015 47.3709 26.3992 47.1538 26.293L46.9184 26.177C46.6452 26.0431 46.3697 25.9141 46.0777 25.8188C45.4545 25.6155 44.8136 25.4724 44.1627 25.3959C44.0216 25.3793 43.8857 25.3317 43.7785 25.2501C43.6768 25.1727 43.5991 25.0654 43.5637 24.9229C43.5177 24.7384 43.5309 24.5987 43.6299 24.4323C43.7043 24.3073 43.8108 24.2207 43.9331 24.1709C44.0578 24.1202 44.1997 24.1083 44.3408 24.1365Z" fill="black"/>
</svg>
