<svg width="1532" height="3404" viewBox="0 0 1532 3404" fill="none" xmlns="http://www.w3.org/2000/svg">
<g clip-path="url(#clip0_1226_239)">
<g style="mix-blend-mode:overlay">
<path fill-rule="evenodd" clip-rule="evenodd" d="M1532 0H0V1897.96C-38.5005 1929.37 -70.3621 1958.13 -95.5847 1984.24C-122.335 2011.74 -152.847 2045.58 -187.12 2085.77C-221.394 2124.89 -249.398 2164.02 -271.132 2203.15C-292.031 2241.22 -312.511 2283.53 -332.574 2330.06C-351.801 2375.53 -366.012 2424.71 -375.207 2477.59C-384.402 2529.41 -389 2583.34 -389 2639.39C-389 2722.94 -378.133 2802.78 -356.398 2878.93C-333.828 2954.01 -299.554 3023.81 -253.578 3088.32C-207.601 3152.83 -151.593 3208.35 -85.5533 3254.89C-59.1126 3273.52 -30.5948 3290.54 0 3305.95V3404H453.629H1532V0ZM0 3131.54V3305.95C45.82 3329.02 96.2986 3348.49 151.436 3364.34C243.39 3390.78 344.12 3404 453.629 3404C558.121 3404 654.255 3394.48 742.028 3375.45C829.802 3357.47 904.201 3333.14 965.225 3302.48C1026.25 3271.81 1081 3235.32 1129.49 3193.02C1177.97 3149.66 1216.43 3105.77 1244.85 3061.35C1274.1 3015.88 1298.35 2967.23 1317.57 2915.41C1337.64 2863.59 1351.43 2816 1358.95 2772.64C1367.31 2729.28 1372.33 2685.4 1374 2640.98L1115.69 2387.17L1103.16 2409.38C1134.92 2481.29 1152.06 2561.13 1154.57 2648.91C1157.91 2735.63 1144.95 2821.82 1115.69 2907.48C1086.44 2992.08 1044.22 3069.81 989.049 3140.67C933.877 3210.47 859.478 3267.58 765.853 3311.99C673.063 3355.35 568.989 3377.03 453.629 3377.03C360.003 3377.03 275.573 3357.47 200.339 3318.34C125.94 3279.21 64.916 3225.8 17.2674 3158.12C11.3372 3149.41 5.58139 3140.55 0 3131.54ZM0 3131.54V2247.62C28.2899 2207.85 57.8701 2171.35 88.7404 2138.11C128.03 2095.81 174.006 2051.92 226.671 2006.45V2271.36C226.671 2707.08 190.307 2953.48 117.58 3010.59V3037.56H527.609V3010.59C454.883 2953.48 418.519 2707.08 418.519 2271.36V1854.16C456.137 1825.61 482.469 1805.51 497.516 1793.88C513.398 1781.19 538.059 1761.63 571.496 1735.19C604.934 1708.75 629.176 1688.13 644.223 1673.32C659.27 1658.52 680.169 1638.42 706.919 1613.04C733.669 1587.66 753.314 1565.98 765.853 1548C779.228 1530.02 794.693 1508.34 812.247 1482.96C829.802 1456.52 842.341 1432.2 849.865 1409.99C858.224 1387.78 865.33 1363.46 871.181 1337.02C877.033 1310.58 879.959 1283.61 879.959 1256.12C879.959 1243.43 879.123 1231.27 877.451 1219.63C865.748 1140.32 809.322 1091.67 708.173 1073.69C664.704 1065.23 568.153 1061 418.519 1061H117.58V1089.55C183.62 1141.37 219.565 1352.88 225.417 1724.08C180.276 1756.87 143.912 1783.83 116.326 1804.99C89.5763 1825.08 54.4668 1853.1 10.9979 1889.06C7.27362 1892.05 3.60767 1895.02 0 1897.96V2247.62C-7.71521 2258.46 -15.3345 2269.55 -22.8578 2280.88C-57.1313 2332.7 -83.4635 2388.75 -101.854 2449.03C-119.409 2509.31 -128.186 2572.77 -128.186 2639.39C-128.186 2739.86 -115.647 2834.51 -90.569 2923.34C-68.6676 3000 -38.478 3069.4 0 3131.54ZM418.519 1578.14V1089.55C486.23 1089.55 537.641 1106.47 572.75 1140.32C608.696 1173.1 626.669 1211.7 626.669 1256.12C626.669 1314.28 608.696 1368.75 572.75 1419.51C537.641 1469.21 486.23 1522.09 418.519 1578.14Z" fill="white"/>
</g>
</g>
<defs>
<clipPath id="clip0_1226_239">
<rect width="1532" height="3404" fill="white"/>
</clipPath>
</defs>
</svg>
