<svg width="171" height="106" viewBox="0 0 171 106" fill="none" xmlns="http://www.w3.org/2000/svg">
<path fill-rule="evenodd" clip-rule="evenodd" d="M117.524 21.9946C143.837 -1.49687 170.604 0.135128 170.604 0.135128C166.641 2.14204 161.418 11.124 161.418 11.124C151.014 11.6093 143.831 14.6751 135.915 21.5624C144.639 19.5704 149.216 18.8167 156.786 19.4434L150.783 28.6066C138.939 27.8278 132.234 31.4746 122.574 38.0036C131.247 36.1546 137.074 36.3752 145.796 38.1185L140.808 47.6303C133.696 46.4122 127.721 46.5288 121.371 48.5506C121.39 50.6001 121.396 52.7665 121.398 55.0583C126.22 55.1147 130.761 55.6735 135.82 57.1422C131.214 62.2559 126.353 65.328 121.381 66.9221C121.268 83.7967 120.437 92.9989 114.32 99.0229C107.248 106 95.8568 106 73.0808 106H48.9217C26.1457 106 14.7547 106 7.68213 99.0229C0.603516 92.0516 0.603516 80.8237 0.603516 58.374C0.603516 35.9242 0.603516 24.6964 7.68213 17.7251C14.7547 10.7479 26.1457 10.7479 48.9217 10.7479H73.0808C95.8568 10.7479 107.248 10.7479 114.32 17.7251C115.608 18.9934 116.662 20.4026 117.524 21.9946ZM101.749 34.965C101.858 33.7861 101.487 32.6129 100.719 31.7033C99.9506 30.7933 98.8532 30.2213 97.6572 30.113C96.4612 30.0047 95.2705 30.369 94.3469 31.1259L81.307 41.8418C75.6719 46.4674 71.7581 49.6703 68.4544 51.7659C65.2593 53.7959 63.091 54.4746 61.0073 54.4746C58.9236 54.4746 56.7553 53.79 53.5603 51.7659C50.2505 49.6703 46.3427 46.4674 40.7076 41.8418L27.6617 31.1318C26.7383 30.374 25.5472 30.0087 24.3505 30.1165C23.1538 30.2242 22.0496 30.7961 21.2807 31.7063C20.5118 32.6166 20.1413 33.7906 20.2506 34.9701C20.3599 36.1497 20.9401 37.2381 21.8635 37.9959L35.1269 48.8904L35.3379 49.0635C40.5983 53.3776 44.8711 56.8819 48.6499 59.2789C52.6422 61.8031 56.5258 63.4045 61.0013 63.4045C65.4768 63.4045 69.3603 61.809 73.3466 59.2789C77.1818 56.8499 81.5184 53.2899 86.8757 48.8845L100.139 37.99C101.061 37.2319 101.641 36.1439 101.749 34.965Z" fill="#945C5C"/>
</svg>
