<svg width="771" height="673" viewBox="0 0 771 673" fill="none" xmlns="http://www.w3.org/2000/svg">
<path fill-rule="evenodd" clip-rule="evenodd" d="M517.648 10.5004C491.459 23.4414 471.811 47.0605 471.811 65.5968C471.811 70.9556 467.375 79.3611 461.953 84.2663C451.39 93.8303 448.743 113.653 457.319 118.958C460.198 120.738 469.366 119.367 477.697 115.911C491.104 110.36 493.628 110.7 499.582 118.845C508.391 130.893 508.139 152.708 498.996 170.396C491.927 184.067 467.276 205.197 458.729 204.911C451.508 204.669 422.022 151.569 419.099 133.55C416.402 116.927 416.851 116.311 431.732 116.311C450.911 116.311 452.129 105.909 434.32 94.2346C423.722 87.2933 421.982 83.2459 424.407 71.138C430.756 39.3846 402.364 12.709 362.384 12.8618C334.494 12.9703 306.082 29.4509 287.174 56.4864L272.18 77.9216L273.51 155.691C274.25 198.758 272.663 239.193 269.962 246.307C267.048 253.968 251.586 267.851 231.657 280.698C188.566 308.473 185.653 312.096 161.875 367.415C147.324 401.278 135.292 420.717 117.645 438.898C101.226 455.812 90.7121 472.199 85.0632 489.691C80.4791 503.894 74.6725 516.78 72.1734 518.328C63.4537 523.717 67.1555 546.015 77.2012 548.642C85.1273 550.713 79.1137 558.448 42.485 593.312C-0.610755 634.329 -10.617 652.456 11.0862 650.193C34.204 647.782 72.6614 639.165 81.5586 634.403C86.8772 631.553 109.719 626.017 132.314 622.098C173.088 615.018 178.934 611.666 193.525 586.982C197.966 579.474 200.327 579.139 210.777 584.547C227.329 593.11 245.069 609.788 245.069 616.788C245.069 619.963 240.633 626.579 235.211 631.484C213.222 651.386 230.144 661.31 257.392 644.489L272.18 635.364L293.02 654.374C324.069 682.706 346.447 677.569 326.258 646.747C318.997 635.665 319.268 635.127 333.651 632.253C351.244 628.733 353.728 615.58 337.491 611.912C331.394 610.537 315.31 608.831 301.755 608.121C278.104 606.889 277.109 606.253 277.109 592.454C277.109 576.674 275.162 577.443 328.909 571.97L360.989 568.702L369.758 587.09C377.994 604.365 378.019 605.849 370.147 611.607C364.828 615.492 362.99 620.919 365.109 626.441C368.333 634.841 373.489 635.068 402.413 628.097C405.928 627.249 415.771 637.01 424.289 649.789C442.847 677.638 453.928 678.466 456.102 652.16C457.433 636.059 458.995 633.91 467.429 636.587C479.269 640.348 491.976 630.991 488.245 621.264C483.01 607.623 518.195 612.667 533.243 627.718L546.73 641.206L555.962 629.808C561.039 623.537 567.486 619.825 570.291 621.56C577.882 626.253 582.264 610.266 575.59 602.225C572.421 598.405 560.689 593.736 549.52 591.848L529.211 588.417L548.568 581.027C559.22 576.964 573.475 574.007 580.253 574.46C624.936 577.438 634.849 576.526 642.666 568.712C650.425 560.952 651.337 560.957 657.094 568.83C666.164 581.239 670.058 573.597 661.151 560.878C654.161 550.895 652.702 550.624 642.918 557.482C630.427 566.227 605.347 567.169 588.564 559.523C579.292 555.298 573.352 555.835 561.463 561.987C553.088 566.316 539.474 569.86 531.208 569.86C511.747 569.86 511.664 579.696 530.961 599.44C549.268 618.168 550.126 623.32 532.652 609.571C524.361 603.048 515.977 600.401 509.8 602.363C501.209 605.089 500.455 603.832 503.471 591.803C506.054 581.51 504.398 575.609 496.743 567.844C491.158 562.175 476.854 544.294 464.955 528.109L443.316 498.683L460.213 478.943C483.543 451.681 493.012 415.688 493.371 352.945C493.647 304.346 492.573 298.554 475.848 258.218C459.069 217.763 458.576 215.081 467.409 212.276C481.605 207.77 505.773 185.886 513.887 170.199C523.592 151.426 522.937 131.717 512.009 113.846C505.088 102.527 504.22 97.0298 508.302 90.4139C515.341 79.0111 506.246 64.4186 492.41 64.9067C479.816 65.3553 484.243 55.3378 506.444 33.1335C532.795 6.77341 575.058 6.71919 597.175 33.0103C610.868 49.2888 615.526 68.0076 616.537 110.848C616.911 126.831 618.617 139.072 620.317 138.051C622.023 137.026 624.635 142.257 626.124 149.666C629.017 164.076 638.092 177.678 675.14 223.146C698.287 251.552 709.156 277.878 716.318 322.888C718.837 338.728 718.235 343.648 714.09 341.084C710.334 338.762 708.333 342.262 708.18 351.422C706.923 427.106 701.974 461.038 685.905 504.229C670.679 545.142 668.323 564.931 678.679 564.931C683.248 564.931 703.522 616.906 703.374 628.225C703.315 632.731 698.987 626.988 693.757 615.462C686.605 599.706 681.439 594.49 672.917 594.436C664 594.377 663.132 593.381 668.84 589.767C674.972 585.892 674.661 584.63 666.834 581.628C655.093 577.122 632.665 589.339 630.319 601.515C628.751 609.655 631.221 610.394 652.993 608.299C676.747 606.016 677.584 606.386 683.061 621.536C686.161 630.104 688.695 640.994 688.695 645.736C688.695 651.854 691.914 653.895 699.786 652.781C709.003 651.47 711.133 647.669 712.389 630.252C713.227 618.726 715.184 609.3 716.737 609.3C718.294 609.3 727.266 614.057 736.675 619.869C750.428 628.373 754.578 629.147 757.861 623.833C764.126 613.692 753.937 599.489 733.871 590.393C709.412 579.311 678.836 560.011 678.836 555.657C678.836 548.746 711.985 540.281 739.041 540.281C759.601 540.281 767.261 538.309 769.514 532.443C773.822 521.222 769.913 516.992 742.383 503.036C727.438 495.464 719.231 488.483 721.311 485.116C723.386 481.758 722.494 480.979 719.034 483.119C704.754 491.944 704.779 478.677 719.088 453.313L734.516 425.977L731.505 368.509C726.758 277.981 715.357 245.558 671.428 197.654C644.909 168.735 639.27 154.941 631.585 100.165C627.77 72.972 620.761 44.0828 616.004 35.9633C594.7 -0.414365 558.624 -9.75158 517.648 10.5004ZM400.56 39.6755C415.471 54.5835 417.354 77.1772 403.379 73.5192C392.629 70.7092 377.413 88.9202 381.538 99.6624C382.987 103.444 389.474 107.866 395.951 109.493C405.879 111.987 407.732 115.507 407.732 131.879C407.732 150.761 417.092 175.203 430.091 190.259C433.605 194.326 445.879 220.948 457.369 249.418C473.167 288.561 478.845 310.016 480.644 337.406C482.818 370.461 481.586 376.924 466.517 411.355C457.438 432.1 440.176 465.717 428.158 486.052C416.146 506.388 403.33 530.101 399.692 538.743C391.111 559.103 396 584.088 409.659 589.674C430.056 598.01 459.538 618.849 451.153 619.007C446.569 619.09 441.447 616.941 439.772 614.229C438.096 611.518 434.384 609.3 431.52 609.3C428.612 609.3 429.824 614.658 434.276 621.452C449.26 644.322 442.99 651.707 427.02 629.99C412.696 610.507 402.803 603.832 402.803 613.653C402.803 616.049 397.179 619.085 390.302 620.402C378.615 622.635 378.315 622.226 385.713 614.047C392.999 605.997 392.816 603.729 383.411 585.286C367.061 553.237 359.406 551.447 288.076 563.018C266.26 566.557 258.688 577.586 263.066 599.46C265.131 609.797 270.528 617.02 279.031 620.816C292.162 626.682 313.644 647.92 313.92 655.315C314.009 657.578 305.442 652.584 294.883 644.223C284.325 635.862 270.888 629.019 265.018 629.019C259.029 629.019 255.706 626.815 257.446 624C262.834 615.28 239.903 584.729 220.561 574.859C210.205 569.58 200.564 560.366 198.794 554.06C195.901 543.737 195.171 543.505 190.503 551.413C187.689 556.18 186.708 562.214 188.32 564.827C192.495 571.581 177.737 598.198 166.473 604.222C161.258 607.017 149.547 609.3 140.452 609.3C131.353 609.3 110.69 612.77 94.5322 617.015C78.3743 621.26 55.5177 626.554 43.7419 628.787L22.3296 632.85L40.8436 613.884C51.0322 603.453 61.275 596.102 63.6115 597.547C65.9528 598.991 67.2541 598.158 66.5098 595.698C64.2621 588.283 98.8698 551.832 112.031 547.75C118.779 545.66 132.827 539.645 143.242 534.385C153.663 529.13 174.528 522.819 189.611 520.359C221.794 515.124 234.131 505.087 253.232 468.596C260.764 454.205 268.512 443.404 270.445 444.602C272.382 445.795 275.566 444.178 277.528 441.003C279.918 437.133 278.942 436.561 274.57 439.268C269.809 442.211 268.931 441.082 271.342 435.097C273.161 430.586 275.99 423.566 277.636 419.499C279.283 415.432 278.726 412.168 276.404 412.247C274.082 412.321 262.198 429.211 249.998 449.773C224.623 492.545 210.402 505.772 189.779 505.772C181.788 505.772 160.085 512.427 141.556 520.562C123.028 528.696 101.329 535.351 93.3393 535.351H78.818L90.4705 512.334C96.8785 499.669 102.123 486.54 102.123 483.154C102.123 479.767 112.292 465.169 124.718 450.715C149.512 421.865 160.903 401.993 176.425 360.493C189.345 325.959 203.112 309.597 238.868 286.264C287.342 254.629 288.303 252.341 283.408 180.399C278.657 110.622 282.861 84.0051 302.76 57.8767C326.755 26.3796 377.777 16.8846 400.56 39.6755ZM542.476 59.9472C538.005 71.6015 548.494 79.8936 557.865 72.1142C566.21 65.1877 568.448 54.7265 560.536 59.6169C557.825 61.2931 555.607 60.312 555.607 57.4428C555.607 49.3972 545.808 51.2657 542.476 59.9472ZM353.136 69.9253C348.749 75.2151 349.262 77.4434 355.419 79.8048C364.725 83.374 378.157 79.1639 378.157 72.6713C378.157 64.8722 359.066 62.7819 353.136 69.9253ZM496.634 88.9793C493.514 92.7458 483.878 98.1982 475.222 101.102L459.488 106.377L478.899 88.2448C490.798 77.1279 499.084 72.4346 500.317 76.1222C501.416 79.4301 499.76 85.2129 496.634 88.9793ZM416.259 96.6059L428.809 106.475L412.109 103.291C392.106 99.4751 391.027 98.7553 395.207 91.9915C399.663 84.7791 401.837 85.2573 416.259 96.6059ZM721.844 408.318C720.744 417.177 719.823 411.118 719.798 394.849C719.768 378.581 720.665 371.329 721.794 378.738C722.918 386.148 722.938 399.459 721.844 408.318ZM472.107 439.953C469.199 450.394 462.396 464.484 456.989 471.263C448.886 481.423 449.531 477.815 460.686 450.685C475.444 414.776 480.413 410.107 472.107 439.953ZM745.4 521.188C760 527.35 759.833 527.458 730.593 530.53C714.327 532.236 697.139 535.371 692.392 537.486C681.902 542.169 681.917 542.539 691.593 514.128L699.426 491.145L715.031 503.051C723.613 509.598 737.282 517.761 745.4 521.188ZM456.965 539.739C464.955 549.53 477.115 563.166 483.976 570.048C499.661 585.769 499.661 588.826 483.962 585.823C476.09 584.32 467.823 586.731 461.623 592.346C452.109 600.953 451.04 600.894 429.755 590.551C402.901 577.502 401.216 565.157 420.888 525.674C433.038 501.291 434.364 500.137 438.239 510.608C440.545 516.844 448.969 529.953 456.965 539.739Z" fill="#E8B787"/>
</svg>
