<svg width="171" height="93" viewBox="0 0 171 93" fill="none" xmlns="http://www.w3.org/2000/svg">
<path fill-rule="evenodd" clip-rule="evenodd" d="M156.347 45.1701C158.77 52.058 161.192 57.6814 163.615 62.0403C166.072 66.3993 168.2 69.1943 170 70.4255V71.274H147.99V70.4255C150.308 68.8616 148.768 60.5097 143.37 45.3698L140.099 36.0862H123.747L120.529 45.1701C120.148 46.2682 119.837 47.1832 119.595 47.9153C119.387 48.614 119.145 49.6622 118.868 51.0597C118.626 52.4573 118.522 53.7051 118.556 54.8031C118.591 55.8679 118.781 57.1323 119.127 58.5964C119.473 60.0605 120.044 61.4247 120.84 62.6892C121.636 63.9203 122.744 65.218 124.163 66.5823C124.851 67.2441 125.609 67.8863 126.435 68.5089C126.861 66.5925 127.026 64.6695 126.931 62.7399C126.805 59.2718 125.943 56.117 124.345 53.2756L124.976 52.3982L137.971 62.4265C137.887 64.1815 137.635 65.9156 137.214 67.6287C136.836 69.3419 136.142 71.2222 135.132 73.2697C134.165 75.3171 132.945 77.2392 131.473 79.036C130.044 80.7909 128.109 82.525 125.67 84.2382C123.23 85.9096 120.476 87.3512 117.406 88.5629C114.336 89.7747 110.593 90.7357 106.177 91.4461C101.761 92.1982 96.9246 92.5743 91.6676 92.5743C86.1583 92.5743 81.0906 92.0519 76.4644 91.0073C71.8383 89.9627 67.864 88.5211 64.5416 86.6826C61.2192 84.8441 58.4015 82.6504 56.0884 80.1015C54.0596 77.8659 52.4838 75.4695 51.3609 72.9125H51.2668L7.54223 12.12V37.2755C7.54223 40.7028 7.81402 44.0136 8.3576 47.2079C8.93516 50.369 9.85246 53.5633 11.1095 56.791C12.3665 59.9853 14.1841 62.9301 16.5623 65.6254C18.9745 68.2873 21.8453 70.4335 25.1747 72.064V72.9125H2.24228V72.064C5.16405 70.3004 6.62493 62.6473 6.62493 49.1046V10.8722L0 1.63848H12.7912L50.4754 54.0597C50.9021 52.6844 51.4484 51.3785 52.1141 50.1418C53.1235 48.3032 54.1538 46.6319 55.2052 45.1276C55.4406 44.7948 55.6906 44.462 55.9552 44.1292V37.2755C55.9552 34.5802 55.7853 31.9682 55.4456 29.4393C55.1398 26.9105 54.5792 24.2818 53.7639 21.5533C52.9485 18.8248 51.8953 16.3125 50.6043 14.0166C49.3133 11.7207 47.6146 9.55781 45.5082 7.52807C43.4358 5.49833 41.0576 3.81796 38.3736 2.48698V1.63848H61.3061V2.48698C58.3503 4.25053 56.8725 11.9037 56.8725 25.4464V43.041C57.6301 42.1905 58.4833 41.34 59.4318 40.4895C61.1561 38.9017 62.6912 37.5645 64.0369 36.4781C65.4248 35.35 67.2122 34.0964 69.3991 32.7175C71.586 31.2968 73.3523 30.1895 74.6981 29.3956C76.0859 28.5599 77.9154 27.4944 80.1864 26.1991C79.892 11.5326 78.0836 3.17565 74.7612 1.12819V0H89.9013C97.4292 0 102.287 0.167139 104.474 0.501418C109.562 1.21176 112.401 3.13386 112.99 6.26772C113.074 6.72736 113.116 7.20788 113.116 7.7093C113.116 8.7957 112.969 9.86122 112.674 10.9058C112.38 11.9505 112.023 12.9115 111.602 13.789C111.224 14.6665 110.593 15.6275 109.71 16.6721C108.826 17.675 108.048 18.5316 107.375 19.2419C106.745 19.9522 105.756 20.8088 104.41 21.8117C103.065 22.8145 102.013 23.6084 101.256 24.1934C100.499 24.7784 99.2797 25.5932 97.5975 26.6378C95.9152 27.6824 94.6746 28.4555 93.8755 28.9569C93.1185 29.4165 91.7938 30.2104 89.9013 31.3386V47.8227C89.9013 65.0381 91.7307 74.7739 95.3895 77.0303V78.0958H74.7612V77.0303C78.42 74.7739 80.2495 65.0381 80.2495 47.8227V37.3556C77.5999 39.1524 75.2869 40.8864 73.3102 42.5578C71.3336 44.2292 69.4621 46.1095 67.6958 48.1988C65.9715 50.2462 64.6468 52.4608 63.7215 54.8426C62.8384 57.2243 62.3968 59.7314 62.3968 62.3638C62.3968 66.0805 62.9498 69.5958 64.0559 72.9095L64.058 72.9125H64.0568C64.1318 73.1369 64.2093 73.3605 64.2893 73.5831C65.5509 77.0512 67.3594 80.1433 69.7145 82.8593C72.1117 85.5335 75.1817 87.6436 78.9247 89.1897C82.7097 90.7357 86.9574 91.5088 91.6676 91.5088C97.4713 91.5088 102.707 90.6522 107.375 88.939C112.086 87.184 115.829 84.9276 118.604 82.1698C121.38 79.3703 123.504 76.2991 124.976 72.9563C125.219 72.3961 125.441 71.8353 125.639 71.274H105.942V70.4255C107.396 69.5936 109.126 67.4141 111.133 63.887C113.14 60.36 114.836 56.9659 116.22 53.7051C117.639 50.4441 118.764 47.5992 119.595 45.1701L131.482 11.4797L127.433 0H140.463L156.347 45.1701ZM124.059 35.1878H139.788L131.949 12.7774L124.059 35.1878ZM89.9013 20.4328V1.12819C93.3078 1.12819 95.8942 1.79675 97.6605 3.13386C99.4689 4.42919 100.373 5.95434 100.373 7.7093C100.373 10.0075 99.4689 12.1594 97.6605 14.1651C95.8942 16.1289 93.3078 18.2182 89.9013 20.4328Z" fill="#945C5C"/>
</svg>
